<?xml version="1.0" encoding="UTF-8"?>
<svg width="24px" height="24px" viewBox="0 0 24 24" version="1.1" xmlns="http://www.w3.org/2000/svg" xmlns:xlink="http://www.w3.org/1999/xlink">
    <!-- Generator: Sketch 52.6 (67491) - http://www.bohemiancoding.com/sketch -->
    <title>icon-alarm</title>
    <desc>Created with Sketch.</desc>
    <g id="icon-alarm" stroke="none" stroke-width="1" fill="none" fill-rule="evenodd">
        <path d="M22,5.72 L17.4,1.86 L16.11,3.39 L20.71,7.25 L22,5.72 L22,5.72 Z M7.88,3.39 L6.6,1.86 L2,5.71 L3.29,7.24 L7.88,3.39 L7.88,3.39 Z M12.5,8 L11,8 L11,14 L15.75,16.85 L16.5,15.62 L12.5,13.25 L12.5,8 L12.5,8 Z M12,4 C7.03,4 3,8.03 3,13 C3,17.97 7.02,22 12,22 C16.97,22 21,17.97 21,13 C21,8.03 16.97,4 12,4 L12,4 Z M12,20 C8.13,20 5,16.87 5,13 C5,9.13 8.13,6 12,6 C15.87,6 19,9.13 19,13 C19,16.87 15.87,20 12,20 L12,20 Z" id="Shape" fill="#999999" fill-rule="nonzero"></path>
    </g>
</svg>