<?xml version="1.0" encoding="utf-8"?>
<!-- Generator: Adobe Illustrator 19.2.1, SVG Export Plug-In . SVG Version: 6.00 Build 0)  -->
<svg version="1.1" id="Layer_1" xmlns="http://www.w3.org/2000/svg" xmlns:xlink="http://www.w3.org/1999/xlink" x="0px" y="0px"
	 width="18.73px" height="32px" viewBox="0 0 18.73 32" style="enable-background:new 0 0 18.73 32;" xml:space="preserve">
<style type="text/css">
	.st0{fill-rule:evenodd;clip-rule:evenodd;}
</style>
<path class="st0" d="M17.571,7.001H1.159C0.519,7.001,0,7.528,0,8.178v15.645c0,0.65,0.519,1.177,1.159,1.177h16.411
	c0.64,0,1.159-0.527,1.159-1.177V8.178C18.73,7.528,18.211,7.001,17.571,7.001z M10.039,15.954l1.203-1.221l1.203,1.221
	l-1.203,1.221L10.039,15.954z M10.863,17.559L9.66,18.78l-1.203-1.221l1.203-1.221L10.863,17.559z M12.823,16.338l1.203,1.221
	l-1.203,1.221l-1.203-1.221L12.823,16.338z M13.201,15.954l1.203-1.221l1.203,1.221l-1.203,1.221L13.201,15.954z M12.823,15.57
	l-1.203-1.221l1.203-1.221l1.203,1.221L12.823,15.57z M11.242,13.965l-1.203-1.221l0.486-0.493h1.434l0.486,0.493L11.242,13.965z
	 M10.863,14.349L9.66,15.57l-1.203-1.221l1.203-1.221L10.863,14.349z M9.282,15.954l-1.203,1.221l-1.203-1.221l1.203-1.221
	L9.282,15.954z M7.7,17.559L6.498,18.78l-1.203-1.221l1.203-1.221L7.7,17.559z M6.498,15.57l-1.203-1.221l1.203-1.221l1.203,1.221
	L6.498,15.57z M6.119,15.954l-1.203,1.221l-1.203-1.221l1.203-1.221L6.119,15.954z M4.538,17.559L3.335,18.78l-1.203-1.221
	l1.203-1.221L4.538,17.559z M3.335,15.57l-1.203-1.221l1.203-1.221l1.203,1.221L3.335,15.57z M1.754,13.965l-0.327-0.332v-0.206
	c0-0.612,0.461-1.115,1.049-1.171l0.481,0.488L1.754,13.965z M1.754,14.733l1.203,1.221l-1.203,1.221l-0.327-0.332v-1.778
	L1.754,14.733z M1.754,17.943l1.203,1.221l-1.203,1.221l-0.327-0.332v-1.778L1.754,17.943z M3.335,19.548l1.203,1.221l-1.203,1.221
	l-1.203-1.221L3.335,19.548z M3.714,19.164l1.203-1.221l1.203,1.221l-1.203,1.221L3.714,19.164z M6.498,19.548L7.7,20.769
	l-1.203,1.221l-1.203-1.221L6.498,19.548z M6.876,19.164l1.203-1.221l1.203,1.221l-1.203,1.221L6.876,19.164z M9.66,19.548
	l1.203,1.221L9.66,21.989l-1.203-1.221L9.66,19.548z M10.039,19.164l1.203-1.221l1.203,1.221l-1.203,1.221L10.039,19.164z
	 M12.823,19.548l1.203,1.221l-1.203,1.221l-1.203-1.221L12.823,19.548z M13.201,19.164l1.203-1.221l1.203,1.221l-1.203,1.221
	L13.201,19.164z M15.985,19.548l1.203,1.221l-1.203,1.221l-1.203-1.221L15.985,19.548z M14.783,17.559l1.203-1.221l1.203,1.221
	l-1.203,1.221L14.783,17.559z M14.783,14.349l1.203-1.221l1.203,1.221l-1.203,1.221L14.783,14.349z M14.404,13.965l-1.203-1.221
	l0.486-0.493h1.434l0.486,0.493L14.404,13.965z M12.915,8.445c0.684,0,1.239,0.563,1.239,1.257c0,0.694-0.555,1.257-1.239,1.257
	c-0.684,0-1.239-0.563-1.239-1.257C11.677,9.007,12.231,8.445,12.915,8.445z M9.365,8.445c0.684,0,1.239,0.563,1.239,1.257
	c0,0.694-0.555,1.257-1.239,1.257c-0.684,0-1.239-0.563-1.239-1.257C8.126,9.007,8.681,8.445,9.365,8.445z M8.796,12.251
	l0.486,0.493l-1.203,1.221l-1.203-1.221l0.486-0.493H8.796z M5.815,8.445c0.684,0,1.239,0.563,1.239,1.257
	c0,0.694-0.554,1.257-1.239,1.257c-0.684,0-1.238-0.563-1.238-1.257C4.576,9.007,5.131,8.445,5.815,8.445z M4.199,12.251h1.434
	l0.486,0.493l-1.203,1.221l-1.203-1.221L4.199,12.251z M1.026,9.701c0-0.694,0.554-1.257,1.238-1.257
	c0.684,0,1.239,0.563,1.239,1.257c0,0.694-0.554,1.257-1.239,1.257C1.58,10.958,1.026,10.396,1.026,9.701z M1.427,22.736v-1.252
	l0.327-0.332l1.203,1.221l-1.183,1.201C1.56,23.361,1.427,23.065,1.427,22.736z M2.587,23.913c-0.118,0-0.232-0.018-0.339-0.052
	l1.088-1.104l1.139,1.156H2.587z M3.714,22.374l1.203-1.221l1.203,1.221l-1.203,1.221L3.714,22.374z M5.359,23.913l1.138-1.156
	l1.139,1.156H5.359z M6.876,22.374l1.203-1.221l1.203,1.221l-1.203,1.221L6.876,22.374z M8.522,23.913l1.138-1.156l1.139,1.156
	H8.522z M10.039,22.374l1.203-1.221l1.203,1.221l-1.203,1.221L10.039,22.374z M11.684,23.913l1.139-1.156l1.139,1.156H11.684z
	 M13.201,22.374l1.203-1.221l1.203,1.221l-1.203,1.221L13.201,22.374z M16.322,23.913h-1.475l1.139-1.156l0.957,0.972
	C16.763,23.845,16.551,23.913,16.322,23.913z M17.481,22.736c0,0.221-0.061,0.427-0.165,0.604l-0.952-0.966l1.118-1.134V22.736z
	 M17.481,20.298l-1.118-1.134l1.118-1.134V20.298z M17.481,17.088l-1.118-1.134l1.118-1.134V17.088z M17.481,13.879l-1.118-1.134
	l0.399-0.405c0.421,0.176,0.719,0.597,0.719,1.088V13.879z M16.466,10.958c-0.684,0-1.239-0.563-1.239-1.257
	c0-0.694,0.555-1.257,1.239-1.257c0.684,0,1.239,0.563,1.239,1.257C17.705,10.396,17.15,10.958,16.466,10.958z"/>
</svg>
