<svg width="16" height="16" viewBox="0 0 16 16" xmlns="http://www.w3.org/2000/svg"><title>amp</title><path d="M14.8 0H.98C.44 0 0 .47 0 1.05v13.9C0 15.53.44 16 .98 16H14.8c.53 0 .97-.47.97-1.05V1.05c0-.58-.44-1.05-.97-1.05zM8.45 7.96l1.02-1.09 1 1.09-1 1.09-1.02-1.1zm.7 1.42l-1.02 1.1-1-1.1 1-1.08 1.02 1.1v-.01zM10.8 8.3l1 1.09-1 1.08L9.79 9.4l1-1.09zm.32-.34l1-1.09 1.02 1.09-1.01 1.09-1.01-1.1zm-.32-.34L9.79 6.53l1-1.08 1.02 1.08-1.01 1.09zM9.47 6.2L8.45 5.1l.42-.43h1.2l.41.44-1 1.08h-.01zm-.32.33L8.13 7.62l-1-1.09 1-1.08 1.02 1.08zM7.8 7.96l-1 1.09-1.02-1.1L6.8 6.88l1.01 1.09zM6.48 9.38l-1 1.1-1.02-1.1L5.47 8.3l1.01 1.1v-.01zm-1-1.76L4.45 6.53l1.01-1.08 1.01 1.08-1 1.09zm-.33.34l-1 1.09-1.02-1.1 1.01-1.08 1.01 1.09zM3.82 9.38l-1 1.1-1.02-1.1L2.81 8.3l1.01 1.1v-.01zm-1-1.76L1.8 6.53l1.01-1.08 1.01 1.08-1 1.09zM1.46 6.2l-.27-.3v-.18c0-.56.4-1 .89-1.04l.4.42-1 1.09h-.02zm0 .67l1.01 1.09-1 1.09-.28-.3V7.17l.27-.3zm0 2.85l1.01 1.09-1 1.1-.28-.31v-1.57l.27-.3zm1.33 1.43l1.01 1.09-1 1.08-1.02-1.08 1.01-1.08v-.01zm.32-.34l1.01-1.09 1.02 1.09-1 1.1-1.02-1.1zm2.35.35l1.01 1.08-1 1.08-1.02-1.08 1.01-1.08zm.32-.35L6.8 9.72l1.01 1.09-1 1.1-1.02-1.1zm2.34.35l1.02 1.08-1.02 1.08-1-1.08 1-1.08zm.32-.35l1.02-1.09 1 1.09-1 1.1-1.02-1.1zm2.35.35l1 1.08-1 1.08-1.01-1.08 1-1.08zm.32-.35l1-1.09 1.02 1.09-1.01 1.1-1.01-1.1zm2.35.35l1 1.08-1 1.08-1.02-1.08 1.02-1.08zm-1.02-1.78l1.02-1.08 1 1.09-1 1.08-1.02-1.08v-.01zm0-2.85l1.02-1.08 1 1.08-1 1.09-1.02-1.09zm-.32-.33l-1.01-1.1.4-.43h1.21l.42.44-1.02 1.08zm-1.26-4.92c.58 0 1.05.5 1.05 1.12 0 .62-.47 1.12-1.05 1.12-.57 0-1.03-.5-1.03-1.12 0-.62.46-1.11 1.03-1.11v-.01zm-2.98 0c.57 0 1.04.5 1.04 1.12 0 .62-.47 1.12-1.04 1.12-.58 0-1.04-.5-1.04-1.12 0-.62.46-1.11 1.03-1.11l.01-.01zM7.4 4.67l.4.44-1 1.08L5.78 5.1l.4-.43H7.4zM4.88 1.29c.59 0 1.05.5 1.05 1.11 0 .62-.46 1.12-1.04 1.12-.58 0-1.04-.5-1.04-1.12 0-.62.46-1.11 1.04-1.11zM3.53 4.67h1.2l.42.44L4.13 6.2l-1-1.09.4-.43zM.87 2.4c0-.62.46-1.12 1.03-1.12.58 0 1.05.5 1.05 1.12 0 .62-.47 1.12-1.05 1.12-.57 0-1.03-.5-1.03-1.12zM1.2 14v-1.13l.27-.3 1.01 1.1-.99 1.06a1.05 1.05 0 0 1-.29-.74zm.98 1.03c-.1 0-.2-.01-.29-.04l.92-.98.96 1.02h-1.6.01zm.94-1.37l1.01-1.08 1.02 1.08-1 1.09-1.02-1.09zm1.4 1.37l.95-1.02.96 1.02H4.51zm1.27-1.37l1.01-1.08 1.01 1.08-1 1.09-1.02-1.09zm1.38 1.37l.96-1.02.96 1.02H7.17zm1.28-1.37l1.02-1.08 1 1.08-1 1.09-1.02-1.09zm1.39 1.37l.96-1.02.96 1.02H9.84zm1.28-1.37l1-1.08 1.02 1.08-1.01 1.09-1.01-1.09zm2.62 1.37h-1.23l.96-1.02.8.86a.96.96 0 0 1-.53.16zm.98-1.04c0 .2-.05.37-.13.53l-.81-.86.94-1v1.33zm0-2.17l-.94-1.01.94-1v2.01zm0-2.85l-.94-1.01.94-1v2zm0-2.85l-.94-1.02.33-.35c.36.16.61.53.61.97v.4zm-.85-2.6c-.58 0-1.04-.5-1.04-1.12 0-.62.46-1.12 1.04-1.12.57 0 1.04.5 1.04 1.12 0 .62-.47 1.12-1.04 1.12z"/></svg>