<?xml version="1.0" encoding="utf-8"?>
<!-- Generator: Adobe Illustrator 23.0.2, SVG Export Plug-In . SVG Version: 6.00 Build 0)  -->
<svg version="1.1" id="Layer_1" xmlns="http://www.w3.org/2000/svg" xmlns:xlink="http://www.w3.org/1999/xlink" x="0px" y="0px"
	 viewBox="0 0 17 32" enable-background="new 0 0 17 32" xml:space="preserve">
<path d="M15.5,14.5c0.828,0,1.5,0.671,1.5,1.5c0,0.828-0.672,1.5-1.5,1.5c-0.828,0-1.5-0.672-1.5-1.5
	C14,15.171,14.672,14.5,15.5,14.5z M8.5,14.5c0.828,0,1.5,0.671,1.5,1.5c0,0.828-0.672,1.5-1.5,1.5S7,16.828,7,16
	C7,15.171,7.672,14.5,8.5,14.5z M1.5,14.5C2.328,14.5,3,15.171,3,16c0,0.828-0.672,1.5-1.5,1.5S0,16.828,0,16
	C0,15.171,0.672,14.5,1.5,14.5z M15.5,10.5C14.672,10.5,14,9.828,14,9c0-0.829,0.672-1.5,1.5-1.5C16.328,7.5,17,8.171,17,9
	C17,9.828,16.328,10.5,15.5,10.5z M8.5,7.5C9.328,7.5,10,8.171,10,9c0,0.828-0.672,1.5-1.5,1.5S7,9.828,7,9
	C7,8.171,7.672,7.5,8.5,7.5z M1.5,7.5C2.328,7.5,3,8.171,3,9c0,0.828-0.672,1.5-1.5,1.5S0,9.828,0,9C0,8.171,0.672,7.5,1.5,7.5z
	 M15.5,21.5c0.828,0,1.5,0.671,1.5,1.5c0,0.828-0.672,1.5-1.5,1.5c-0.828,0-1.5-0.672-1.5-1.5C14,22.171,14.672,21.5,15.5,21.5z
	 M8.5,21.5c0.828,0,1.5,0.671,1.5,1.5c0,0.828-0.672,1.5-1.5,1.5S7,23.828,7,23C7,22.171,7.672,21.5,8.5,21.5z M1.5,21.5
	C2.328,21.5,3,22.171,3,23c0,0.828-0.672,1.5-1.5,1.5S0,23.828,0,23C0,22.171,0.672,21.5,1.5,21.5z"/>
</svg>
