<?xml version="1.0" encoding="utf-8"?>
<!-- Generator: Adobe Illustrator 23.0.2, SVG Export Plug-In . SVG Version: 6.00 Build 0)  -->
<svg version="1.1" id="Layer_1" xmlns="http://www.w3.org/2000/svg" xmlns:xlink="http://www.w3.org/1999/xlink" x="0px" y="0px"
	 viewBox="0 0 19.75 32" enable-background="new 0 0 19.75 32" xml:space="preserve">
<path fill-rule="evenodd" clip-rule="evenodd" d="M19.25,14H0.5C0.224,14,0,13.776,0,13.5S0.224,13,0.5,13h18.75
	c0.276,0,0.5,0.224,0.5,0.5S19.526,14,19.25,14z M11.25,24H0.5C0.224,24,0,23.776,0,23.5C0,23.224,0.224,23,0.5,23h10.75
	c0.276,0,0.5,0.224,0.5,0.5C11.75,23.776,11.526,24,11.25,24z M19.25,19H0.5C0.224,19,0,18.776,0,18.5S0.224,18,0.5,18h18.75
	c0.276,0,0.5,0.224,0.5,0.5S19.526,19,19.25,19z M19.25,9H0.5C0.224,9,0,8.776,0,8.5S0.224,8,0.5,8h18.75c0.276,0,0.5,0.224,0.5,0.5
	S19.526,9,19.25,9z"/>
</svg>
