<svg width="16" height="16" viewBox="0 0 16 16" xmlns="http://www.w3.org/2000/svg"><title>bolt</title><path d="M10.73.55H4.9a.9.9 0 0 0-.91.9v1.46c0 .5.4.9.9.9h.92v1.35c-.26.15-.44.39-.51.66l-.04.12c-.09.33 0 .69.21.95a.8.8 0 0 0-.17.34l-.04.13c-.09.33 0 .68.21.95a.8.8 0 0 0-.17.34l-.04.13c-.08.33 0 .68.21.94a.88.88 0 0 0-.17.35l-.04.13c-.08.32 0 .67.21.93a.83.83 0 0 0-.17.35l-.04.13c-.08.33 0 .68.21.94a.96.96 0 0 0-.17.35l-.04.13c-.13.48.1.98.55 1.2v.32c0 .5.4.9.9.9H8.9a.9.9 0 0 0 .85-.63c.3-.14.5-.4.57-.69l.03-.13c.09-.33 0-.67-.2-.93a.98.98 0 0 0 .17-.35l.03-.13c.09-.33.01-.68-.2-.94.08-.1.14-.22.17-.35l.03-.13c.09-.33.01-.68-.2-.94.08-.1.14-.22.17-.35l.03-.13c.09-.32 0-.67-.2-.93a.98.98 0 0 0 .17-.35l.03-.13c.1-.33.01-.68-.2-.94a.8.8 0 0 0 .17-.35l.03-.13c.08-.29.03-.58-.12-.83a1.1 1.1 0 0 0-.42-.37v-1.9h.9c.5 0 .92-.4.92-.91V1.45a.9.9 0 0 0-.91-.9zm0 2.36h-.55V1.45h.55v1.46zM9.5 14.08a.36.36 0 0 1-.08.06l-.04.02a.38.38 0 0 1-.13.04h-.13l-2.4-.5-.43-.08c-.2-.03-.34-.22-.3-.4l.04-.13a.31.31 0 0 1 .06-.1l.03-.04a.36.36 0 0 1 .07-.06l.05-.02a.32.32 0 0 1 .14-.03h.11l2.52.5.32.07c.2.04.33.22.29.4l-.04.12a.32.32 0 0 1-.06.12l-.02.03zm-1.57.47h-1.2v-.24l1.21.24zM4.91 1.45h.54v1.46h-.54V1.45zm4.72 9.53l-.04.13a.31.31 0 0 1-.06.1l-.02.03a.36.36 0 0 1-.08.06l-.04.02a.41.41 0 0 1-.13.04h-.13l-2.51-.5-.31-.07c-.2-.04-.34-.22-.3-.4l.04-.13a.31.31 0 0 1 .06-.11l.03-.03a.36.36 0 0 1 .07-.05l.04-.03a.39.39 0 0 1 .14-.03h.12l2.52.5.32.06c.2.04.33.22.29.4l-.01.01zm0 1.41l-.04.13a.31.31 0 0 1-.06.11l-.02.03a.36.36 0 0 1-.08.06l-.04.02a.38.38 0 0 1-.13.04h-.13l-2.51-.51-.31-.06c-.2-.04-.34-.22-.3-.4l.04-.13a.31.31 0 0 1 .06-.12l.03-.03a.36.36 0 0 1 .07-.05l.04-.03.14-.02h.12l2.52.5.32.06c.2.04.33.22.29.4h-.01zM6 8.97l.03-.13a.31.31 0 0 1 .06-.1l.03-.03a.36.36 0 0 1 .07-.06l.05-.02a.41.41 0 0 1 .13-.04h.12l2.52.5.32.07c.2.04.33.21.29.4l-.04.13a.31.31 0 0 1-.06.11l-.02.03a.36.36 0 0 1-.08.05l-.04.03a.39.39 0 0 1-.14.03h-.12l-2.51-.5-.31-.07c-.2-.04-.34-.21-.3-.4zM6 7.7a.3.3 0 0 1 0-.13l.03-.13a.31.31 0 0 1 .06-.11l.03-.03a.36.36 0 0 1 .07-.06l.05-.02a.41.41 0 0 1 .14-.04h.11l2.52.51.32.06c.2.04.33.22.29.4l-.04.13a.31.31 0 0 1-.06.12l-.02.02a.36.36 0 0 1-.08.06l-.04.02a.39.39 0 0 1-.13.03h-.13l-2.51-.5-.31-.06a.4.4 0 0 1-.14-.05A.33.33 0 0 1 6 7.7zm3.62-.96l-.04.13a.31.31 0 0 1-.06.1L9.51 7a.36.36 0 0 1-.08.05l-.04.03a.39.39 0 0 1-.13.03h-.13l-2.51-.5-.32-.06c-.2-.05-.34-.23-.3-.41L6.05 6a.31.31 0 0 1 .06-.11l.03-.03a.36.36 0 0 1 .07-.06l.05-.02a.32.32 0 0 1 .14-.03h.12l2.4.48.43.08c.2.04.33.23.29.4zM6.73 5.2V3.64H8.9v2l-2.18-.43zm-.91-2.3V1.45h4v1.46h-4z"/></svg>