<svg width="16" height="16" viewBox="0 0 16 16" xmlns="http://www.w3.org/2000/svg"><title>bolt-45c</title><path d="M15.05 4.93L10.73.7a.96.96 0 0 0-1.34 0L8.3 1.75a.93.93 0 0 0 0 1.33l.68.66-1 .98c-.29-.08-.6-.04-.86.1L7 4.89a1.08 1.08 0 0 0-.54.84c-.14.02-.26.06-.38.13l-.13.07c-.3.18-.5.48-.53.83-.16.03-.28.07-.4.13l-.12.08a1 1 0 0 0-.54.83.92.92 0 0 0-.38.13L3.85 8c-.3.17-.5.48-.54.83a1.3 1.3 0 0 0-.38.12l-.13.08a1.08 1.08 0 0 0-.54.83.78.78 0 0 0-.38.13l-.13.08c-.26.15-.45.4-.53.7-.03.18-.02.37.04.57l-.22.23a.93.93 0 0 0 0 1.32l1.61 1.6c.3.28.74.34 1.1.15.33.1.65.08.94-.09l.11-.07c.28-.15.46-.4.54-.7v-.13a.86.86 0 0 0 .4-.13l.11-.08c.3-.16.5-.47.53-.82a.98.98 0 0 0 .4-.13l.12-.08c.3-.18.5-.48.54-.82.15-.02.28-.07.4-.13l.1-.08c.28-.15.46-.4.54-.7v-.12c.16-.03.28-.08.4-.13l.12-.08c.3-.18.5-.49.53-.83a1 1 0 0 0 .4-.13l.12-.07c.45-.26.65-.79.5-1.28l1.4-1.38.66.65c.38.38.98.38 1.36 0l1.07-1.06a.92.92 0 0 0 0-1.3v-.02zM13.3 6.66l-.4-.4 1.08-1.07.4.4-1.08 1.07zM4.1 13.9H4l-.04-.02a.39.39 0 0 1-.12-.07.42.42 0 0 1-.1-.1l-1.42-2.1-.25-.38c-.12-.18-.08-.4.08-.5l.13-.07a.34.34 0 0 1 .12-.04h.05l.1.01.04.02c.04.02.1.04.12.07l.1.1 1.48 2.2.19.27c.13.2.1.4-.08.5l-.12.07a.36.36 0 0 1-.13.04H4.1zm-1.5-.79l-.9-.9.18-.18.73 1.07v.02H2.6zm7.46-11.77l.4.4L9.4 2.8 9 2.4l1.07-1.05.01-.01zM6.5 11.74l-.12.07a.34.34 0 0 1-.12.04h-.04c-.04 0-.06 0-.1-.02h-.05a.38.38 0 0 1-.12-.08.41.41 0 0 1-.1-.09L4.38 9.45h-.01l-.2-.28c-.11-.18-.09-.41.1-.5l.1-.07a.34.34 0 0 1 .14-.04h.14l.05.03.12.07.1.09 1.48 2.2.19.28c.12.18.1.4-.08.5zm-1.04 1.03l-.12.07a.34.34 0 0 1-.13.04h-.14c0-.02-.03-.02-.05-.03a.39.39 0 0 1-.12-.07.45.45 0 0 1-.1-.1L3.33 10.5l-.19-.28c-.13-.18-.09-.41.08-.5l.12-.07a.34.34 0 0 1 .13-.04h.14l.04.03.12.07.09.09L5.34 12l.2.28c.12.18.08.4-.08.5v-.01zM5.3 7.64l.12-.07a.34.34 0 0 1 .13-.04h.05a.2.2 0 0 1 .1.02h.03l.13.08.08.1 1.5 2.19.2.28c.11.19.07.4-.1.5l-.11.08a.34.34 0 0 1-.14.04h-.04c-.03 0-.06 0-.1-.02l-.04-.02a.37.37 0 0 1-.13-.07.41.41 0 0 1-.07-.08l-1.5-2.21-.2-.28c-.12-.17-.1-.4.08-.5zm.95-.94a.24.24 0 0 1 .1-.1l.12-.06a.34.34 0 0 1 .14-.03h.13l.05.02.12.07.1.1L8.5 8.88l.19.28c.12.18.08.41-.09.5l-.11.07a.34.34 0 0 1-.13.04H8.2l-.05-.02a.37.37 0 0 1-.08-.05l-.04-.03a.41.41 0 0 1-.09-.09L6.44 7.4l-.18-.28a.4.4 0 0 1-.06-.15.34.34 0 0 1 .05-.26zm3.39 1.94l-.12.08a.34.34 0 0 1-.12.03h-.14l-.05-.03a.37.37 0 0 1-.12-.08.41.41 0 0 1-.1-.09L7.54 6.37l-.19-.29c-.13-.16-.1-.4.08-.5l.1-.08a.34.34 0 0 1 .14-.03h.14l.04.02.13.08.1.1 1.4 2.1.27.37c.12.18.08.4-.08.5h-.01zm-1-3.22l1.17-1.14 1.62 1.59-1.5 1.46-1.3-1.91h.01zm1.04-2.34l1.07-1.06 2.96 2.91L12.63 6 9.67 3.1v-.01z"/></svg>