<?xml version="1.0" encoding="utf-8"?>
<!-- Generator: Adobe Illustrator 23.0.2, SVG Export Plug-In . SVG Version: 6.00 Build 0)  -->
<svg version="1.1" id="Layer_1" xmlns="http://www.w3.org/2000/svg" xmlns:xlink="http://www.w3.org/1999/xlink" x="0px" y="0px"
	 viewBox="0 0 28 32" enable-background="new 0 0 28 32" xml:space="preserve">
<path fill-rule="evenodd" clip-rule="evenodd" d="M0,7.5h4c1.333-0.667,3-1,5-1s3.667,0.333,5,1c1.333-0.667,3-1,5-1s4,0.333,6,1h3
	v18H0V7.5z M14.5,8.5v12.781c1.402-0.573,3.068-0.831,5-0.773c1.728,0.052,3.244,0.274,4.548,0.665V8.5H25v13h-0.01
	c0.003,0.001,0.007,0.003,0.01,0.004V22.5c-1.5-0.606-3.333-0.938-5.5-0.996c-1.932-0.052-3.598,0.207-5,0.775V24.5h-1v-2.188
	c-1.402-0.487-3.068-0.757-5-0.808c-2.167-0.058-4,0.274-5.5,0.996v-0.996c0.003-0.001,0.006-0.003,0.008-0.004H3v-13h1v12.593
	c1.293-0.442,2.793-0.637,4.5-0.585c1.932,0.058,3.598,0.329,5,0.811V8.5V8.272C12.257,7.757,10.757,7.5,9,7.5c-3,0-4.715,1-5,1
	c-1.16,0-2.16,0-3,0v16h26v-16h-3c-1.333-0.592-3-0.925-5-1c-1.757-0.066-3.257,0.184-4.5,0.748V8.5z"/>
</svg>
