<?xml version="1.0" encoding="utf-8"?>
<!-- Generator: Adobe Illustrator 19.2.1, SVG Export Plug-In . SVG Version: 6.00 Build 0)  -->
<svg version="1.1" id="Layer_1" xmlns="http://www.w3.org/2000/svg" xmlns:xlink="http://www.w3.org/1999/xlink" x="0px" y="0px"
	 width="22px" height="32px" viewBox="0 0 22 32" style="enable-background:new 0 0 22 32;" xml:space="preserve">
<path d="M21.438,10.227L11.071,5.104c-0.284-0.14-0.618-0.138-0.9,0.006l-9.621,4.905C0.213,10.187,0,10.535,0,10.916v9.405
	c0,0.374,0.205,0.718,0.535,0.892l10.631,5.668C11.313,26.961,11.475,27,11.637,27c0.183,0,0.367-0.05,0.528-0.15l9.357-5.795
	C21.819,20.871,22,20.545,22,20.195v-9.061C22,10.749,21.782,10.397,21.438,10.227z M11.637,16.042l-4.235-2.282l8.018-4.254
	l4.073,2.013L11.637,16.042z M10.634,7.14l3.671,1.814l-7.971,4.229l-3.672-1.979L10.634,7.14z M2.013,12.001l9.075,4.891v7.659
	l-9.075-4.839V12.001z M12.094,24.519v-7.575l7.894-4.544v7.23L12.094,24.519z"/>
</svg>
