<svg width="16" height="16" viewBox="0 0 16 16" xmlns="http://www.w3.org/2000/svg"><title>cable</title><path d="M13.53.78l-.15.42-.43.1-5.34 5.18-.16-.16-4.67 4.55c-.43.43-.65.94-.38 1.52l-.05-.05-.06.06-.25-.24-.44.43.25.24-.32.3-.24-.24-.44.43.24.24-.31.3-.25-.24-.44.42.25.25 1.14 1.1.25.24.44-.43-.25-.23.3-.31.26.25.44-.43-.25-.25.32-.3.25.24.43-.42-.25-.24.07-.06-.05-.06c.6.27 1.13.06 1.56-.37l4.71-4.5-.24-.25L14.8 3.1l.1-.42.45-.16c.45-.94.5-1.58.16-1.92-.47-.45-1.33-.15-1.99.18zm-.17 3L9.08 7.9l-1.1-1.06 4.28-4.13 1.1 1.06zm1.52-1.48l-.5-.21-.1.12.15.53-.5.48-1.1-1.06.5-.49.54.14.11-.11-.2-.47S14.85.7 15.14.96c.27.26-.27 1.34-.27 1.34h.01z"/></svg>