<?xml version="1.0" encoding="utf-8"?>
<!-- Generator: Adobe Illustrator 23.0.2, SVG Export Plug-In . SVG Version: 6.00 Build 0)  -->
<svg version="1.1" id="Layer_1" xmlns="http://www.w3.org/2000/svg" xmlns:xlink="http://www.w3.org/1999/xlink" x="0px" y="0px"
	 width="20px" height="32px" viewBox="0 0 20 32" style="enable-background:new 0 0 20 32;" xml:space="preserve">
<g>
	<path d="M19.5,7.68h-4.23V5.77c0-0.28-0.22-0.5-0.5-0.5s-0.5,0.22-0.5,0.5v1.91H5.71V5.77c0-0.28-0.22-0.5-0.5-0.5
		s-0.5,0.22-0.5,0.5v1.91H0.5C0.22,7.68,0,7.9,0,8.18v5.65v12.4c0,0.28,0.22,0.5,0.5,0.5h19c0.28,0,0.5-0.22,0.5-0.5v-12.4V8.18
		C20,7.9,19.78,7.68,19.5,7.68z M19,25.73H1v-11.4h18V25.73z M19,13.33H1V8.68h3.71v2.62c0,0.28,0.22,0.5,0.5,0.5s0.5-0.22,0.5-0.5
		V8.68h8.55v2.62c0,0.28,0.22,0.5,0.5,0.5s0.5-0.22,0.5-0.5V8.68H19V13.33z"/>
	<path d="M7.68,22.61c-0.4,0-0.75-0.17-0.95-0.46C6.62,22,6.54,21.77,6.51,21.52L6.5,21.41h-1l0.01,0.13
		c0.01,0.28,0.06,0.52,0.16,0.76c0.33,0.78,1.08,1.25,2.01,1.25c1.3,0,2.21-0.89,2.21-2.17c0-0.99-0.51-1.45-0.84-1.65
		c0.66-0.45,0.74-1.19,0.74-1.5c0-0.94-0.64-1.96-2.04-1.96c-0.75,0-1.33,0.29-1.69,0.85c-0.2,0.32-0.31,0.68-0.33,1.06l-0.01,0.13
		h1l0.01-0.12c0.02-0.23,0.1-0.47,0.24-0.65c0.24-0.3,0.54-0.34,0.78-0.34c0.94,0,1.04,0.73,1.04,1.04c0,0.55-0.32,0.8-0.5,0.9
		c-0.19,0.1-0.46,0.15-0.71,0.13l-0.13-0.01v0.94l0.13,0c0.26-0.01,0.53,0.04,0.72,0.13c0.56,0.25,0.6,0.85,0.6,1.03
		C8.89,22.06,8.36,22.61,7.68,22.61z"/>
	<polygon points="13.34,23.43 14.34,23.43 14.34,16.38 12.64,16.38 12.11,17.34 13.34,17.34 	"/>
</g>
</svg>
