<svg width="16" height="16" viewBox="0 0 16 16" xmlns="http://www.w3.org/2000/svg"><title>cart</title><path d="M15.86 4.1a.72.72 0 0 0-.58-.32H3.8l-.5-1.23a.73.73 0 0 0-.67-.45H.73c-.4 0-.73.34-.73.75 0 .42.33.75.73.75h1.43l3.4 8.31c.1.28.37.46.66.46h.09c-.14.35-.1.74.1 1.04a1.07 1.07 0 0 0 1.8 0c.21-.3.25-.7.12-1.04h1.95c-.13.35-.09.74.12 1.05a1.07 1.07 0 0 0 1.8 0c.2-.31.24-.7.11-1.05h.57c.4 0 .73-.33.73-.75a.74.74 0 0 0-.73-.75H6.7l-.24-.58h7.17c.31 0 .59-.2.69-.51l1.64-5.01a.77.77 0 0 0-.1-.68zm-2.75 4.69H5.85L4.4 5.28h9.85l-1.15 3.5z"/></svg>