<?xml version="1.0" encoding="utf-8"?>
<!-- Generator: Adobe Illustrator 23.0.2, SVG Export Plug-In . SVG Version: 6.00 Build 0)  -->
<svg version="1.1" id="Layer_1" xmlns="http://www.w3.org/2000/svg" xmlns:xlink="http://www.w3.org/1999/xlink" x="0px" y="0px"
	 viewBox="0 0 21 32" enable-background="new 0 0 21 32" xml:space="preserve">
<path fill-rule="evenodd" clip-rule="evenodd" d="M12,6v20h1V6H12z M4,5h13c2.209,0,4,1.791,4,4v14c0,2.209-1.791,4-4,4H4
	c-2.209,0-4-1.791-4-4V9C0,6.791,1.791,5,4,5z M9,19.563V6H8v13.563c-0.863,0.222-1.5,1.005-1.5,1.937s0.637,1.715,1.5,1.937V26h1
	v-2.563c0.863-0.222,1.5-1.005,1.5-1.937S9.863,19.785,9,19.563z M17,8.063V6h-1v2.063C15.137,8.285,14.5,9.068,14.5,10
	s0.637,1.715,1.5,1.937V26h1V11.937c0.863-0.222,1.5-1.005,1.5-1.937S17.863,8.285,17,8.063z M5,14.063V6H4v8.063
	C3.137,14.285,2.5,15.068,2.5,16c0,0.932,0.637,1.715,1.5,1.937V26h1v-8.063C5.863,17.715,6.5,16.932,6.5,16
	C6.5,15.068,5.863,14.285,5,14.063z M4,6C2.343,6,1,7.343,1,9v14c0,1.657,1.343,3,3,3h13c1.657,0,3-1.343,3-3V9c0-1.657-1.343-3-3-3
	H4z"/>
</svg>
