<svg height="32" viewBox="0 0 54 32" width="54" xmlns="http://www.w3.org/2000/svg"><path d="m8.103 7.228v2.478c-.826.42-1.498.504-2.058.504-1.722 0-2.884-.588-3.668-1.358-.84-.812-1.456-2.044-1.456-3.542 0-1.47.616-2.702 1.456-3.514.826-.798 2.03-1.344 3.486-1.344.616 0 1.33.126 2.24.518v2.492c-.476-.504-1.19-.994-2.184-.994-.784 0-1.414.252-1.904.728-.518.504-.882 1.26-.882 2.156 0 .966.392 1.652.812 2.058.196.196.868.784 2.016.784.56 0 1.316-.154 2.142-.966zm6.384-6.776c1.456 0 2.674.448 3.612 1.358.882.854 1.456 2.086 1.456 3.528 0 1.246-.448 2.52-1.456 3.5-.868.84-2.044 1.372-3.612 1.372-1.75 0-2.94-.7-3.64-1.372-.896-.84-1.456-2.1-1.456-3.472 0-1.344.602-2.702 1.442-3.542.63-.63 1.792-1.372 3.654-1.372zm-.014 1.988c-.812 0-1.54.294-2.044.798-.406.392-.826 1.078-.826 2.114 0 .854.28 1.54.854 2.1.602.574 1.274.77 2.002.77.952 0 1.624-.35 2.072-.798.364-.35.812-1.008.812-2.086 0-.966-.392-1.68-.812-2.1-.462-.448-1.204-.798-2.058-.798zm14.588-1.778v5.53c0 .896-.112 2.002-1.036 2.954-.896.924-1.932 1.064-2.912 1.064s-2.016-.14-2.912-1.064c-.924-.952-1.036-2.058-1.036-2.954v-5.53h2.156v5.474c0 .406.028 1.092.49 1.568.378.406.896.49 1.302.49s.924-.084 1.302-.49c.462-.476.49-1.162.49-1.568v-5.474zm4.2 9.338h-2.156v-9.338h1.876l5.068 6.02v-6.02h2.156v9.338h-1.876l-5.068-6.048zm14.294-7.518h-2.03v7.518h-2.156v-7.518h-2.03v-1.82h6.216zm-30.205 14.18h2.156v9.338h-2.156zm6.398 9.338h-2.156v-9.338h1.876l5.068 6.02v-6.02h2.156v9.338h-1.876l-5.068-6.048z" transform="translate(3 3)"/></svg>