<?xml version="1.0" encoding="utf-8"?>
<!-- Generator: Adobe Illustrator 19.2.1, SVG Export Plug-In . SVG Version: 6.00 Build 0)  -->
<svg version="1.1" id="Layer_1" xmlns="http://www.w3.org/2000/svg" xmlns:xlink="http://www.w3.org/1999/xlink" x="0px" y="0px"
	 width="12px" height="32px" viewBox="0 0 12 32" style="enable-background:new 0 0 12 32;" xml:space="preserve">
<g>
	<path d="M11.725,11.379L8.809,8.311L8.513,8H8.084H1H0v1v14v1h1h10h1v-1V12.068v-0.399L11.725,11.379z M10.787,11.844H8.188V9.109
		L10.787,11.844z M1,23V9h6.188v3.844H11V23H1z"/>
	<rect x="5" y="14.5" width="4" height="1"/>
	<rect x="5" y="16.5" width="4" height="1"/>
	<rect x="5" y="18.5" width="4" height="1"/>
	<rect x="3" y="14.5" width="1" height="1"/>
	<rect x="3" y="16.5" width="1" height="1"/>
	<rect x="3" y="18.5" width="1" height="1"/>
</g>
</svg>
