<?xml version="1.0" encoding="utf-8"?>
<!-- Generator: Adobe Illustrator 21.1.0, SVG Export Plug-In . SVG Version: 6.00 Build 0)  -->
<svg version="1.1" id="Layer_1" xmlns="http://www.w3.org/2000/svg" xmlns:xlink="http://www.w3.org/1999/xlink" x="0px" y="0px"
	 width="23px" height="32px" viewBox="0 0 23 32" style="enable-background:new 0 0 23 32;" xml:space="preserve">
<g id="ellipsis-more-large">
	<g id="icon-more-large" transform="translate(3.000000, 10.000000)">
		<path id="Combined-Shape" d="M-0.4,8.6C-1.9,8.6-3,7.4-3,6s1.1-2.6,2.6-2.6S2.1,4.6,2.1,6S1,8.6-0.4,8.6z M8.5,8.6
			C7.1,8.6,5.9,7.4,5.9,6s1.1-2.6,2.6-2.6s2.6,1.1,2.6,2.6S9.9,8.6,8.5,8.6z M17.4,8.6c-1.4,0-2.6-1.1-2.6-2.6s1.1-2.6,2.6-2.6
			C18.9,3.4,20,4.6,20,6S18.9,8.6,17.4,8.6z"/>
	</g>
</g>
</svg>
