<?xml version="1.0" encoding="utf-8"?>
<!-- Generator: Adobe Illustrator 19.2.1, SVG Export Plug-In . SVG Version: 6.00 Build 0)  -->
<svg version="1.1" id="Layer_1" xmlns="http://www.w3.org/2000/svg" xmlns:xlink="http://www.w3.org/1999/xlink" x="0px" y="0px"
	 width="23.003px" height="32px" viewBox="0 0 23.003 32" style="enable-background:new 0 0 23.003 32;" xml:space="preserve">
<style type="text/css">
	.st0{fill-rule:evenodd;clip-rule:evenodd;}
</style>
<path class="st0" d="M20.061,19c1.625,0,2.942-1.343,2.942-3s-1.317-3-2.942-3s-2.942,1.343-2.942,3S18.436,19,20.061,19z
	 M11.502,19c1.625,0,2.942-1.343,2.942-3s-1.317-3-2.942-3c-1.625,0-2.942,1.343-2.942,3S9.877,19,11.502,19z M2.942,19
	c1.625,0,2.942-1.343,2.942-3s-1.317-3-2.942-3S0,14.343,0,16S1.317,19,2.942,19z"/>
</svg>
