<?xml version="1.0" encoding="utf-8"?>
<!-- Generator: Adobe Illustrator 23.0.2, SVG Export Plug-In . SVG Version: 6.00 Build 0)  -->
<svg version="1.1" id="Layer_1" xmlns="http://www.w3.org/2000/svg" xmlns:xlink="http://www.w3.org/1999/xlink" x="0px" y="0px"
	 width="5.2px" height="32px" viewBox="0 0 5.2 32" style="enable-background:new 0 0 5.2 32;" xml:space="preserve">
<g id="ellipsis-more-large">
	<g id="icon-more-large" transform="translate(3.000000, 10.000000)">
		<path id="Combined-Shape" d="M-3-2.9c0-1.5,1.2-2.6,2.6-2.6s2.6,1.1,2.6,2.6S1-0.4-0.4-0.4S-3-1.5-3-2.9z M-3,6
			c0-1.4,1.2-2.6,2.6-2.6S2.2,4.5,2.2,6S1.1,8.6-0.4,8.6S-3,7.4-3,6z M-3,14.9c0-1.4,1.1-2.6,2.6-2.6s2.6,1.1,2.6,2.6
			c0,1.5-1.2,2.6-2.6,2.6S-3,16.4-3,14.9z"/>
	</g>
</g>
</svg>
