<?xml version="1.0" encoding="utf-8"?>
<!-- Generator: Adobe Illustrator 23.0.2, SVG Export Plug-In . SVG Version: 6.00 Build 0)  -->
<svg version="1.1" id="Layer_1" xmlns="http://www.w3.org/2000/svg" xmlns:xlink="http://www.w3.org/1999/xlink" x="0px" y="0px"
	 viewBox="0 0 17.93 32" style="enable-background:new 0 0 17.93 32;" xml:space="preserve">
<style type="text/css">
	.st0{fill:#231F20;}
</style>
<path id="Combined-Shape" class="st0" d="M16.93,8.03h-5.15c-0.66,0-0.66-1,0-1h5.64c0.16,0,0.28,0.06,0.36,0.14
	c0.09,0.08,0.14,0.2,0.14,0.36v5.64c0,0.66-1,0.66-1,0V8.03z M10.13,14.12l6.6-6.6c0.32-0.32,1.02,0.39,0.71,0.71l-6.6,6.6
	C10.53,15.14,9.82,14.44,10.13,14.12z M1,23.97h5.15c0.66,0,0.66,1,0,1H0.51c-0.16,0-0.28-0.06-0.36-0.14
	C0.06,24.74,0,24.61,0,24.45v-5.64c0-0.66,1-0.66,1,0V23.97z M7.79,17.88l-6.6,6.6c-0.32,0.32-1.02-0.39-0.71-0.71l6.6-6.6
	C7.4,16.86,8.11,17.56,7.79,17.88z"/>
</svg>
