<?xml version="1.0" encoding="utf-8"?>
<!-- Generator: Adobe Illustrator 23.0.2, SVG Export Plug-In . SVG Version: 6.00 Build 0)  -->
<svg version="1.1" id="Layer_1" xmlns="http://www.w3.org/2000/svg" xmlns:xlink="http://www.w3.org/1999/xlink" x="0px" y="0px"
	 width="17.33px" height="32px" viewBox="0 0 17.33 32" style="enable-background:new 0 0 17.33 32;" xml:space="preserve">
<path id="SVGID_1_" d="M4.81,26c-2.46-1.33-4.95-3.51-4.79-6.57c0.07-1.43,0.72-2.74,1.33-4.01c0.52-1.07,1.26-2.28,1.17-3.51
	c0.75,0.9,0.87,2.16,0.82,3.28C5.65,12.64,7.68,9.53,7.27,6c2.96,1.26,4.76,4.41,5.58,7.38c0.73-1.08,0.7-2.41,0.33-3.61
	c2.35,2.12,4.16,5.13,4.15,8.36c-0.01,3.63-2.34,6.3-5.46,7.87c2.09-3.96,0.6-9.22-2.95-11.81c0.15,2.02-0.21,3.89-1.48,5.52
	c0.07-0.88,0.12-2.19-0.66-2.81c-0.39,1.37-1.27,2.45-1.95,3.68C3.85,22.34,4,24.19,4.81,26z"/>
</svg>
