<?xml version="1.0" encoding="utf-8"?>
<!-- Generator: Adobe Illustrator 19.2.1, SVG Export Plug-In . SVG Version: 6.00 Build 0)  -->
<svg version="1.1" id="Layer_1" xmlns="http://www.w3.org/2000/svg" xmlns:xlink="http://www.w3.org/1999/xlink" x="0px" y="0px"
	 width="24.857px" height="32px" viewBox="0 0 24.857 32" style="enable-background:new 0 0 24.857 32;" xml:space="preserve">
<style type="text/css">
	.st0{fill-rule:evenodd;clip-rule:evenodd;}
</style>
<path class="st0" d="M24.857,14.846h-2.26V12.56h-2.26v2.286h-2.26v2.286h2.26v2.286h2.26v-2.286h2.26V14.846z M7.909,14.846v2.743
	h4.485c-0.181,1.177-1.356,3.451-4.485,3.451c-2.7,0-4.904-2.263-4.904-5.051s2.203-5.051,4.904-5.051
	c1.537,0,2.565,0.663,3.152,1.234l2.147-2.091c-1.379-1.303-3.164-2.091-5.299-2.091c-4.372,0-7.909,3.577-7.909,8s3.536,8,7.909,8
	c4.565,0,7.593-3.246,7.593-7.817c0-0.526-0.057-0.926-0.124-1.326H7.909z"/>
</svg>
