<svg width="16" height="16" viewBox="0 0 16 16" xmlns="http://www.w3.org/2000/svg"><title>guitar-case</title><path d="M14.39 8.16a27.87 27.87 0 0 1-1.28-.05.1.1 0 0 0-.1-.1L12.73 8a.1.1 0 0 0-.1.09 93.2 93.2 0 0 1-3.38-.18l.02-.04a.1.1 0 0 0-.1-.1h-.29c-.05 0-.1.03-.1.08a.67.67 0 0 1-.34-.18l.17-.12c.03-.03.13-.1.15-.24a.48.48 0 0 0-.14-.4l-.33-.41c-.12-.15-.25-.22-.39-.23a.4.4 0 0 0-.28.08l-.22.17.01.02c-.3-.19-.66-.3-1.02-.33-.8-.1-.76.1-1.24.04-.4-.05-.66-.33-1.01-.6l.02-.02a.1.1 0 0 0-.03-.13l-.25-.15a.1.1 0 0 0-.13.03v.01a2.14 2.14 0 0 0-.8-.25 3.3 3.3 0 0 0-.63 0C.23 5.33.04 7.62.04 7.7c0 .08-.4 2.35 1.56 3.02.2.07.4.11.62.14 1.18.14 1.67-.65 2.4-.56.49.05.4.23 1.2.33 1.8.21 1.94-1.14 2.78-1.04a90.03 90.03 0 0 1 5.48 1c1.32.16 1.46-.71 1.5-1.05.05-.34.13-1.22-1.2-1.38zM7.87 6.64s.04.01.1.08l.34.41c.05.07.06.11.05.12l-.16.13c-.14-.2-.28-.42-.5-.62l.17-.12z"/></svg>