<svg width="16" height="16" viewBox="0 0 16 16" xmlns="http://www.w3.org/2000/svg"><title>headstock-fill-45c</title><path d="M12.08 6.17a4 4 0 0 0 1.14.18c1.19 0 1.76-.64 1.76-.64 1.59-1.66.2-3.13.2-3.13a2.24 2.24 0 0 0-1.68-.75c-.67 0-1.18.3-1.18.3l-.08.05-.1-.2c.24-.21.35-.49.25-.7-.13-.26-.52-.3-.88-.1-.35.2-.53.56-.4.81.1.21.4.28.7.17l.1.2-1.28.7-.1-.18c.25-.2.36-.5.25-.7-.12-.26-.51-.3-.87-.1-.35.2-.54.56-.41.81.1.21.4.28.7.18l.1.18-1.28.7-.09-.17c.25-.21.36-.5.25-.71-.12-.25-.52-.3-.87-.1-.35.2-.54.56-.41.82.1.2.4.28.7.17l.1.18-1.28.7-.09-.16c.25-.21.36-.5.25-.71-.13-.25-.52-.3-.87-.1-.36.2-.54.56-.41.81.1.21.4.28.7.18l.09.17-1.28.7-.08-.16c.25-.2.36-.49.25-.7-.13-.26-.52-.3-.87-.1-.36.2-.55.56-.42.82.11.2.4.27.7.16l.1.17-1.28.7-.08-.15c.25-.21.36-.5.25-.7-.13-.26-.53-.3-.88-.1-.35.2-.54.56-.41.81.11.21.4.28.7.18l.08.15-1.66.92S2.96 8.78 1.8 10L0 11.86l2.5 2.63 1.83-1.82a4.11 4.11 0 0 1 3-1.44c.7 0 1.15.21 1.15.21s1.21-2 2.17-3.46a8.64 8.64 0 0 1 1.43-1.81zM4.03 8.53a.42.42 0 0 1 0-.58.38.38 0 0 1 .56 0c.15.16.15.41 0 .58a.38.38 0 0 1-.56 0zm1.61-.95a.43.43 0 0 1 0-.6.39.39 0 0 1 .57 0c.16.17.16.43 0 .6a.39.39 0 0 1-.56 0zm1.63-.87a.43.43 0 0 1 0-.59.39.39 0 0 1 .56 0c.16.17.16.43 0 .6a.39.39 0 0 1-.55 0h-.01zm1.63-.85a.43.43 0 0 1 0-.6.39.39 0 0 1 .57 0c.16.17.16.43 0 .6a.39.39 0 0 1-.56 0zm1.63-.93a.43.43 0 0 1 0-.6.39.39 0 0 1 .55 0c.16.17.16.43 0 .6a.39.39 0 0 1-.55 0zm1.62-.88a.43.43 0 0 1 0-.59.39.39 0 0 1 .55 0c.16.17.16.43 0 .6a.39.39 0 0 1-.55 0z"/></svg>