<?xml version="1.0" encoding="utf-8"?>
<!-- Generator: Adobe Illustrator 19.2.1, SVG Export Plug-In . SVG Version: 6.00 Build 0)  -->
<svg version="1.1" id="Layer_1" xmlns="http://www.w3.org/2000/svg" xmlns:xlink="http://www.w3.org/1999/xlink" x="0px" y="0px"
	 width="22.629px" height="32px" viewBox="0 0 22.629 32" style="enable-background:new 0 0 22.629 32;" xml:space="preserve">
<path d="M17.363,14.381c0.616,0.186,1.164,0.258,1.643,0.258c1.699,0,2.537-0.909,2.537-0.909c2.278-2.368,0.266-4.476,0.266-4.476
	c-0.798-0.829-1.662-1.068-2.39-1.068c-0.981,0-1.716,0.431-1.716,0.431l-0.115,0.063l-0.144-0.279
	c0.357-0.294,0.518-0.709,0.363-1.011c-0.185-0.36-0.748-0.422-1.258-0.138c-0.51,0.284-0.773,0.805-0.589,1.165
	c0.155,0.302,0.577,0.393,1.01,0.248l0.142,0.277l-1.833,1.01L15.14,9.684c0.357-0.294,0.518-0.709,0.363-1.011
	c-0.185-0.36-0.748-0.422-1.258-0.138c-0.51,0.284-0.773,0.806-0.589,1.166c0.155,0.302,0.577,0.393,1.01,0.247l0.137,0.267
	l-1.833,1.01l-0.133-0.259c0.357-0.294,0.518-0.709,0.363-1.011c-0.185-0.36-0.748-0.422-1.258-0.138
	c-0.51,0.284-0.773,0.806-0.588,1.165c0.155,0.302,0.577,0.393,1.01,0.247l0.132,0.257l-1.833,1.01l-0.128-0.248
	c0.357-0.294,0.518-0.709,0.363-1.011c-0.185-0.36-0.748-0.422-1.258-0.138c-0.51,0.284-0.774,0.805-0.589,1.165
	c0.155,0.302,0.577,0.393,1.01,0.247l0.126,0.247l-1.833,1.01L8.232,13.53c0.357-0.294,0.518-0.709,0.363-1.011
	c-0.185-0.36-0.748-0.422-1.258-0.138c-0.51,0.284-0.773,0.806-0.589,1.165c0.155,0.302,0.577,0.393,1.01,0.248l0.121,0.236
	l-1.833,1.01l-0.117-0.227c0.357-0.294,0.518-0.709,0.363-1.011c-0.185-0.36-0.748-0.422-1.258-0.138
	c-0.51,0.284-0.773,0.806-0.589,1.166c0.155,0.302,0.577,0.393,1.01,0.247l0.116,0.225l-2.391,1.317c0,0,1.076,1.487-0.612,3.242
	L0,22.525l3.606,3.748l2.625-2.603c1.597-1.661,3.179-2.051,4.31-2.05c0.999,0,1.646,0.303,1.646,0.303s1.747-2.874,3.127-4.952
	C16.696,14.891,17.363,14.381,17.363,14.381z M5.803,17.754c-0.22-0.229-0.22-0.599,0-0.828c0.22-0.228,0.576-0.228,0.796,0
	c0.22,0.229,0.22,0.599,0,0.828C6.38,17.982,6.024,17.982,5.803,17.754z M8.111,16.397c-0.224-0.233-0.224-0.61,0-0.843
	c0.224-0.233,0.587-0.233,0.811,0c0.224,0.233,0.224,0.61,0,0.843C8.698,16.63,8.335,16.63,8.111,16.397z M10.453,15.164
	c-0.224-0.233-0.224-0.61,0-0.843c0.224-0.233,0.587-0.233,0.811,0c0.224,0.233,0.224,0.61,0,0.843
	C11.04,15.396,10.677,15.396,10.453,15.164z M12.802,13.937c-0.224-0.233-0.224-0.61,0-0.843c0.224-0.233,0.587-0.233,0.811,0
	c0.224,0.233,0.224,0.61,0,0.843C13.389,14.17,13.026,14.17,12.802,13.937z M15.127,12.613c-0.224-0.233-0.224-0.61,0-0.843
	c0.224-0.233,0.587-0.233,0.811,0c0.224,0.233,0.224,0.61,0,0.843C15.714,12.845,15.351,12.845,15.127,12.613z M17.458,11.364
	c-0.224-0.233-0.224-0.61,0-0.843c0.224-0.233,0.587-0.233,0.811,0c0.224,0.233,0.224,0.61,0,0.843
	C18.045,11.597,17.682,11.597,17.458,11.364z"/>
</svg>
