<svg width="16" height="16" viewBox="0 0 16 16" xmlns="http://www.w3.org/2000/svg"><title>headstock-45c</title><path d="M15.3 2.8a2.35 2.35 0 0 0-2.88-.53c.06-.14.12-.34.06-.47-.13-.27-.45-.27-.83-.07-.39.2-.51.54-.39.8.07.14.2.2.32.2l-.64.4a.44.44 0 0 0 0-.4c-.12-.26-.44-.26-.83-.06-.32.2-.51.53-.38.8.06.13.19.2.32.2L9.4 4a.44.44 0 0 0 0-.4c-.13-.27-.45-.27-.83-.07-.39.2-.52.54-.39.8.07.14.2.2.32.2l-.64.34a.44.44 0 0 0 0-.4c-.13-.27-.45-.27-.83-.07-.38.2-.51.53-.38.8.06.13.19.2.32.2l-.58.33a.44.44 0 0 0 0-.4c.06-.33-.32-.4-.64-.2s-.45.54-.38.8c.06.14.12.2.25.2l-.51.34c.06-.14.06-.27 0-.34-.13-.26-.45-.26-.83-.06-.32.2-.51.53-.39.8.07.13.13.2.26.2l-1.54.86.2.34s.5.8-.39 1.73L.58 12l2.75 3 1.92-2a3.37 3.37 0 0 1 2.56-1.27c.57 0 .9.2.9.2l.25.14.13-.27s1.15-1.93 1.98-3.27c.58-.93.96-1.33 1.15-1.53.32.07.64.13.96.13 1.22 0 1.86-.66 1.86-.73 1.4-1.53.77-3 .26-3.6zm-.64 3s-.45.53-1.41.53c-.32 0-.64-.06-.96-.13l-.13-.13-.13.13c-.06.07-.51.4-1.4 1.8-.71 1.07-1.54 2.53-1.86 3.07-.2-.07-.51-.14-.9-.14-.77 0-1.85.27-3 1.47l-1.48 1.47-1.85-2 1.4-1.54c.77-.86.77-1.73.58-2.26l9.02-5.2s.39-.27.96-.27c.52 0 .96.2 1.28.6.07.13 1.1 1.27-.12 2.6z"/><path d="M12.29 3.87c-.13.13-.13.4 0 .53s.38.13.51 0 .13-.4 0-.53c-.2-.14-.38-.14-.51 0zm-1.54.86a.42.42 0 0 0 0 .54c.13.13.39.13.51 0a.42.42 0 0 0 0-.54.37.37 0 0 0-.5 0zm-1.47.87c-.13.13-.13.4 0 .53.13.14.38.14.51 0 .13-.13.13-.4 0-.53a.37.37 0 0 0-.51 0zm-1.54.8c-.12.13-.12.4 0 .53.13.14.39.14.52 0 .12-.13.12-.4 0-.53-.13-.13-.32-.13-.52 0zm-1.47.87c-.13.13-.13.4 0 .53s.39.13.51 0c.13-.13.13-.4 0-.53a.28.28 0 0 0-.5 0zm-1.47.86a.42.42 0 0 0 0 .54c.13.13.38.13.51 0a.42.42 0 0 0 0-.54.37.37 0 0 0-.51 0z"/></svg>