<?xml version="1.0" encoding="utf-8"?>
<!-- Generator: Adobe Illustrator 19.2.1, SVG Export Plug-In . SVG Version: 6.00 Build 0)  -->
<svg version="1.1" id="Layer_1" xmlns="http://www.w3.org/2000/svg" xmlns:xlink="http://www.w3.org/1999/xlink" x="0px" y="0px"
	 width="11.779px" height="32px" viewBox="0 0 11.779 32" style="enable-background:new 0 0 11.779 32;" xml:space="preserve">
<path d="M9.284,10.317c0.567-0.304,1.005-0.64,1.344-0.979C11.829,8.136,11.779,6.9,11.779,6.9
	c-0.063-3.285-2.977-3.353-2.977-3.353c-1.151-0.022-1.93,0.42-2.445,0.935C5.663,5.177,5.448,6.002,5.448,6.002L5.412,6.128
	L5.113,6.032c0.045-0.46-0.135-0.868-0.458-0.972C4.269,4.937,3.827,5.292,3.667,5.853c-0.16,0.561,0.022,1.116,0.408,1.24
	c0.324,0.104,0.686-0.13,0.889-0.539L5.261,6.65L4.679,8.66L4.391,8.567C4.436,8.107,4.256,7.7,3.933,7.596
	C3.547,7.472,3.105,7.827,2.945,8.388s0.023,1.117,0.408,1.24c0.323,0.104,0.686-0.13,0.889-0.539l0.286,0.092l-0.582,2.01
	l-0.277-0.089c0.045-0.46-0.135-0.867-0.458-0.971c-0.385-0.124-0.828,0.231-0.988,0.792c-0.16,0.561,0.023,1.117,0.408,1.24
	c0.323,0.104,0.686-0.13,0.889-0.539l0.275,0.088l-0.582,2.01l-0.266-0.085c0.044-0.46-0.135-0.868-0.458-0.971
	c-0.385-0.124-0.827,0.231-0.987,0.792c-0.16,0.561,0.022,1.116,0.408,1.24c0.323,0.104,0.686-0.13,0.889-0.539l0.264,0.085
	l-0.582,2.01l-0.254-0.082c0.045-0.46-0.135-0.868-0.458-0.971c-0.385-0.124-0.827,0.231-0.987,0.792
	c-0.16,0.561,0.023,1.117,0.408,1.24c0.324,0.104,0.686-0.13,0.889-0.539l0.252,0.081l-0.582,2.01l-0.243-0.078
	c0.045-0.46-0.135-0.867-0.458-0.971c-0.385-0.124-0.827,0.231-0.987,0.792c-0.16,0.561,0.023,1.117,0.408,1.24
	c0.323,0.104,0.686-0.13,0.889-0.539l0.241,0.078l-0.759,2.623c0,0,1.812,0.29,1.86,2.725l0.069,3.699l5.2,0.1l0.016-3.697
	c-0.045-2.304,0.798-3.698,1.598-4.498c0.706-0.706,1.378-0.95,1.378-0.95s-0.797-3.268-1.29-5.713
	C9.173,11.149,9.284,10.317,9.284,10.317z M3.494,20.875c-0.317-0.006-0.579-0.268-0.585-0.585
	c-0.006-0.317,0.246-0.569,0.563-0.563c0.317,0.006,0.579,0.268,0.585,0.585C4.063,20.629,3.812,20.881,3.494,20.875z M4.167,18.284
	c-0.323-0.006-0.59-0.273-0.596-0.596c-0.006-0.323,0.251-0.58,0.573-0.573c0.323,0.006,0.59,0.273,0.596,0.596
	C4.747,18.034,4.49,18.291,4.167,18.284z M4.951,15.756c-0.323-0.006-0.59-0.273-0.596-0.596c-0.006-0.323,0.251-0.58,0.573-0.573
	c0.323,0.006,0.59,0.273,0.596,0.596C5.53,15.506,5.273,15.762,4.951,15.756z M5.744,13.228c-0.323-0.006-0.59-0.273-0.596-0.596
	c-0.006-0.323,0.251-0.58,0.573-0.573c0.323,0.007,0.59,0.273,0.596,0.596C6.324,12.978,6.067,13.234,5.744,13.228z M6.452,10.647
	c-0.323-0.006-0.59-0.273-0.596-0.596C5.85,9.728,6.106,9.471,6.429,9.478c0.323,0.006,0.59,0.273,0.596,0.596
	C7.032,10.397,6.775,10.654,6.452,10.647z M7.217,8.116C6.894,8.11,6.627,7.843,6.621,7.52C6.615,7.197,6.872,6.94,7.195,6.947
	c0.323,0.006,0.59,0.273,0.596,0.596C7.797,7.866,7.54,8.122,7.217,8.116z"/>
</svg>
