<?xml version="1.0" encoding="utf-8"?>
<!-- Generator: Adobe Illustrator 19.2.1, SVG Export Plug-In . SVG Version: 6.00 Build 0)  -->
<svg version="1.1" id="Layer_1" xmlns="http://www.w3.org/2000/svg" xmlns:xlink="http://www.w3.org/1999/xlink" x="0px" y="0px"
	 width="23.8px" height="32px" viewBox="0 0 23.8 32" style="enable-background:new 0 0 23.8 32;" xml:space="preserve">
<g>
	<path d="M22.9,8.7c-0.8-0.8-1.7-1.2-2.8-1.2c-0.7,0-1.3,0.2-1.7,0.4c0.1-0.2,0.2-0.5,0.1-0.7c-0.2-0.4-0.7-0.4-1.3-0.1
		s-0.8,0.8-0.6,1.2c0.1,0.2,0.3,0.3,0.5,0.3l-1,0.6c0.1-0.2,0.1-0.4,0-0.6c-0.2-0.4-0.7-0.4-1.3-0.1c-0.5,0.3-0.8,0.8-0.6,1.2
		c0.1,0.2,0.3,0.3,0.5,0.3l-1,0.5c0.1-0.2,0.1-0.4,0-0.6c-0.2-0.4-0.7-0.4-1.3-0.1s-0.8,0.8-0.6,1.2c0.1,0.2,0.3,0.3,0.5,0.3l-1,0.5
		c0.1-0.2,0.1-0.4,0-0.6c-0.2-0.4-0.7-0.4-1.3-0.1s-0.8,0.8-0.6,1.2c0.1,0.2,0.3,0.3,0.5,0.3l-0.9,0.5c0.1-0.2,0.1-0.4,0-0.6
		C9.1,12,8.5,11.9,8,12.2S7.3,13,7.4,13.4c0.1,0.2,0.2,0.3,0.4,0.3L7,14.2c0.1-0.2,0.1-0.4,0-0.5c-0.2-0.4-0.7-0.4-1.3-0.1
		c-0.5,0.3-0.8,0.8-0.6,1.2c0.1,0.2,0.2,0.3,0.4,0.3l-2.4,1.3l0.3,0.5c0,0,0.8,1.2-0.6,2.6l-2.9,3l4.3,4.5l3-3c1.5-1.6,3-1.9,4-1.9
		c0.9,0,1.4,0.3,1.4,0.3l0.4,0.2l0.2-0.4c0,0,1.8-2.9,3.1-4.9c0.9-1.4,1.5-2,1.8-2.3c0.5,0.1,1,0.2,1.5,0.2c1.9,0,2.9-1,2.9-1.1
		C24.7,11.8,23.7,9.6,22.9,8.7z M21.9,13.2c0,0-0.7,0.8-2.2,0.8c-0.5,0-1-0.1-1.5-0.2L18,13.6l-0.2,0.2c-0.1,0.1-0.8,0.6-2.2,2.7
		c-1.1,1.6-2.4,3.8-2.9,4.6c-0.3-0.1-0.8-0.2-1.4-0.2c-1.2,0-2.9,0.4-4.7,2.2l-2.3,2.2l-2.9-3L3.6,20c1.2-1.3,1.2-2.6,0.9-3.4
		l14.1-7.8l0,0c0,0,0.6-0.4,1.5-0.4c0.8,0,1.5,0.3,2,0.9C22.2,9.5,23.8,11.2,21.9,13.2z"/>
	<path d="M18.2,10.3c-0.2,0.2-0.2,0.6,0,0.8c0.2,0.2,0.6,0.2,0.8,0c0.2-0.2,0.2-0.6,0-0.8C18.7,10.1,18.4,10.1,18.2,10.3z"/>
	<path d="M15.8,11.6c-0.2,0.2-0.2,0.6,0,0.8c0.2,0.2,0.6,0.2,0.8,0c0.2-0.2,0.2-0.6,0-0.8C16.4,11.4,16,11.4,15.8,11.6z"/>
	<path d="M13.5,12.9c-0.2,0.2-0.2,0.6,0,0.8c0.2,0.2,0.6,0.2,0.8,0c0.2-0.2,0.2-0.6,0-0.8C14.1,12.7,13.7,12.7,13.5,12.9z"/>
	<path d="M11.1,14.1c-0.2,0.2-0.2,0.6,0,0.8c0.2,0.2,0.6,0.2,0.8,0c0.2-0.2,0.2-0.6,0-0.8C11.7,13.9,11.4,13.9,11.1,14.1z"/>
	<path d="M8.8,15.4c-0.2,0.2-0.2,0.6,0,0.8c0.2,0.2,0.6,0.2,0.8,0c0.2-0.2,0.2-0.6,0-0.8C9.4,15.1,9,15.1,8.8,15.4z"/>
	<path d="M6.5,16.7c-0.2,0.2-0.2,0.6,0,0.8c0.2,0.2,0.6,0.2,0.8,0c0.2-0.2,0.2-0.6,0-0.8C7.1,16.5,6.7,16.5,6.5,16.7z"/>
</g>
</svg>
