<?xml version="1.0" encoding="utf-8"?>
<!-- Generator: Adobe Illustrator 19.2.1, SVG Export Plug-In . SVG Version: 6.00 Build 0)  -->
<svg version="1.1" id="Layer_1" xmlns="http://www.w3.org/2000/svg" xmlns:xlink="http://www.w3.org/1999/xlink" x="0px" y="0px"
	 width="12.3px" height="32px" viewBox="0 0 12.3 32" style="enable-background:new 0 0 12.3 32;" xml:space="preserve">
<g>
	<path d="M10.2,13.5c-0.3-1.6-0.4-2.5-0.4-2.9c0.5-0.3,0.9-0.6,1.2-0.9c1.3-1.3,1.3-2.8,1.3-2.8C12.2,3.9,10,3.1,8.8,3
		C7.7,3,6.7,3.4,6,4.1C5.5,4.6,5.2,5.2,5.1,5.6C5,5.3,4.9,5.1,4.7,5.1c-0.4-0.1-0.8,0.2-1,0.8C3.5,6.4,3.7,7,4.1,7.1
		c0.2,0.1,0.4,0,0.6-0.2L4.3,8.1C4.3,7.8,4.1,7.7,3.9,7.6c-0.4-0.1-0.8,0.2-1,0.8C2.8,8.9,3,9.5,3.4,9.6c0.2,0.1,0.4,0,0.6-0.1
		l-0.3,1.1c-0.1-0.2-0.2-0.4-0.4-0.4c-0.4-0.1-0.8,0.2-1,0.8c-0.2,0.6,0,1.1,0.4,1.2c0.2,0.1,0.4,0,0.5-0.1l-0.3,1.1
		c-0.1-0.2-0.2-0.4-0.4-0.4c-0.4-0.1-0.8,0.2-1,0.8c-0.2,0.6,0,1.1,0.4,1.2c0.2,0.1,0.4,0,0.5-0.1l-0.3,1c-0.1-0.2-0.2-0.3-0.4-0.4
		c-0.4-0.1-0.8,0.2-1,0.8c-0.2,0.6,0,1.1,0.4,1.2c0.2,0.1,0.4,0,0.5-0.1l-0.3,1c-0.1-0.2-0.2-0.3-0.4-0.4c-0.4-0.1-0.8,0.2-1,0.8
		c-0.2,0.6,0,1.1,0.4,1.2c0.2,0.1,0.3,0,0.5-0.1l-0.8,2.7l0.6,0.1c0,0,1.4,0.2,1.4,2.2l0.1,4.2L8.5,29l0-4.2c0-2.2,0.8-3.4,1.5-4.1
		c0.6-0.6,1.2-0.8,1.2-0.8l0.4-0.2l-0.1-0.4C11.4,19.2,10.6,15.9,10.2,13.5z M9.2,19.9c-0.8,0.8-1.8,2.3-1.7,4.8l0,3.2l-4.2-0.1
		l-0.1-3.2c0-1.8-1-2.7-1.7-3L5.9,6.1l0,0c0,0,0.2-0.7,0.8-1.3C7.2,4.3,8,4,8.8,4c0.1,0,2.4,0.1,2.5,2.9c0,0,0,1.1-1,2.1
		C9.9,9.3,9.5,9.6,9,9.9L8.8,10l0,0.3c0,0.1-0.1,1,0.4,3.4c0.4,1.9,1,4.4,1.2,5.3C10.1,19.2,9.7,19.5,9.2,19.9z"/>
	<path d="M7.2,6.9c-0.3,0-0.6,0.3-0.6,0.6c0,0.3,0.3,0.6,0.6,0.6c0.3,0,0.6-0.2,0.6-0.6C7.8,7.2,7.5,6.9,7.2,6.9z"/>
	<path d="M6.4,9.5c-0.3,0-0.6,0.3-0.6,0.6c0,0.3,0.3,0.6,0.6,0.6c0.3,0,0.6-0.3,0.6-0.6C7,9.7,6.8,9.5,6.4,9.5z"/>
	<path d="M5.7,12.1c-0.3,0-0.6,0.3-0.6,0.6c0,0.3,0.3,0.6,0.6,0.6c0.3,0,0.6-0.3,0.6-0.6C6.3,12.3,6,12.1,5.7,12.1z"/>
	<path d="M4.9,14.6c-0.3,0-0.6,0.3-0.6,0.6c0,0.3,0.3,0.6,0.6,0.6s0.6-0.3,0.6-0.6C5.5,14.9,5.3,14.6,4.9,14.6z"/>
	<path d="M4.1,17.1c-0.3,0-0.6,0.3-0.6,0.6c0,0.3,0.3,0.6,0.6,0.6s0.6-0.3,0.6-0.6C4.7,17.4,4.5,17.1,4.1,17.1z"/>
	<path d="M3.5,19.7c-0.3,0-0.6,0.2-0.6,0.6c0,0.3,0.3,0.6,0.6,0.6c0.3,0,0.6-0.2,0.6-0.6S3.8,19.7,3.5,19.7z"/>
</g>
</svg>
