<svg width="16" height="16" viewBox="0 0 16 16" xmlns="http://www.w3.org/2000/svg"><title>headstock-fill</title><path d="M10.19 4.5c.38-.18.66-.39.9-.6.8-.74.76-1.5.76-1.5C11.81.38 9.87.34 9.87.34 9.27.3 8.67.52 8.24.9c-.47.43-.6.94-.6.94l-.03.08-.2-.07c.03-.28-.09-.53-.3-.6-.27-.07-.56.15-.67.5-.1.34.02.68.27.76.22.06.47-.08.6-.34l.2.07-.4 1.23-.18-.06c.03-.28-.09-.53-.31-.59-.25-.08-.55.14-.66.49-.1.34.02.68.27.76.22.06.46-.08.6-.33l.19.06-.39 1.23-.18-.06c.02-.28-.1-.52-.31-.6-.25-.07-.55.15-.66.5-.1.34.02.68.27.76.22.06.46-.08.6-.34l.18.07-.39 1.23-.17-.05c.02-.29-.1-.54-.31-.6-.26-.08-.55.14-.66.49-.1.34.01.68.27.76.22.06.46-.08.6-.33l.17.05-.39 1.23-.16-.05c.02-.28-.1-.53-.31-.6-.26-.07-.55.15-.66.5-.1.34.01.68.27.76.22.06.46-.08.6-.34l.16.05-.38 1.24L5 9.67c.02-.29-.1-.54-.31-.6-.26-.08-.55.14-.66.49-.1.34.01.68.27.76.22.06.46-.08.6-.33l.16.05-.51 1.6s1.2.19 1.24 1.68l.05 2.28 3.46.06.01-2.28a3.5 3.5 0 0 1 1.07-2.76c.46-.44.92-.58.92-.58s-.54-2.02-.86-3.52c-.34-1.5-.26-2.02-.26-2.02zM6.33 11c-.2 0-.38-.17-.38-.36 0-.2.16-.35.37-.34.21 0 .39.16.4.35 0 .2-.17.35-.39.35zm.46-1.6c-.22 0-.4-.16-.4-.37 0-.2.16-.35.38-.35s.4.18.4.37c0 .2-.17.36-.38.35zm.52-1.55c-.22 0-.4-.16-.4-.37 0-.2.17-.35.38-.35.22 0 .4.17.4.37 0 .2-.17.35-.38.35zm.53-1.55c-.22 0-.4-.17-.4-.37 0-.2.17-.36.38-.35.21 0 .4.16.4.36 0 .2-.17.36-.39.36h.01zm.47-1.6c-.22 0-.4-.16-.4-.36 0-.2.17-.36.38-.35.22 0 .4.16.4.37 0 .2-.16.35-.38.35zm.51-1.55c-.22 0-.4-.17-.4-.37 0-.2.17-.36.39-.35a.4.4 0 0 1 .4.37c0 .2-.18.35-.39.35z"/></svg>