<svg width="16" height="16" viewBox="0 0 16 16" xmlns="http://www.w3.org/2000/svg"><title>headstock</title><path d="M11.2 6.46c-.2-.98-.26-1.54-.26-1.78a4 4 0 0 0 .77-.56c.84-.8.84-1.72.84-1.72C12.49.55 11.07.06 10.3 0c-.7 0-1.35.25-1.8.68-.32.3-.51.67-.58.92-.06-.18-.13-.3-.26-.3-.25-.07-.51.12-.64.48-.13.31 0 .68.26.74.13.06.26 0 .38-.12l-.25.74c0-.19-.13-.25-.26-.3-.26-.07-.51.11-.64.48-.07.31.06.68.32.74.13.06.26 0 .38-.06l-.19.68c-.06-.13-.13-.25-.26-.25-.25-.06-.51.12-.64.5-.13.36 0 .67.26.73a.3.3 0 0 0 .32-.06l-.2.68c-.06-.13-.12-.25-.25-.25-.26-.06-.51.12-.64.5-.13.36 0 .67.25.73.13.06.26 0 .33-.06l-.2.62a.5.5 0 0 0-.25-.25c-.26-.06-.52.12-.65.5-.13.36 0 .67.26.73a.3.3 0 0 0 .32-.06l-.2.61a.5.5 0 0 0-.25-.24c-.26-.06-.51.12-.64.49s0 .68.26.74c.12.06.19 0 .32-.06l-.52 1.66.39.06s.9.12.9 1.35l.06 2.59 4.12.06v-2.58c0-1.36.51-2.1.96-2.53.39-.37.77-.49.77-.49l.26-.12-.06-.25a29.8 29.8 0 0 1-.84-3.57zm-.64 3.94a3.7 3.7 0 0 0-1.1 2.95v1.97l-2.7-.06-.06-1.97c0-1.1-.64-1.66-1.1-1.84L8.45 1.9s.12-.43.51-.8A2 2 0 0 1 10.3.6c.06 0 1.54.07 1.6 1.79 0 0 0 .68-.64 1.3-.25.18-.51.36-.83.55l-.13.06v.18c0 .06-.06.62.26 2.1.25 1.16.64 2.7.77 3.26-.2.12-.45.3-.77.55z"/><path d="M9.27 2.4a.4.4 0 0 0-.38.37c0 .18.19.37.38.37.2 0 .39-.12.39-.37 0-.19-.2-.37-.39-.37zM8.76 4c-.2 0-.39.18-.39.37 0 .18.2.37.39.37s.38-.19.38-.37c0-.25-.13-.37-.38-.37zM8.3 5.6c-.2 0-.39.18-.39.37 0 .18.2.37.39.37s.38-.19.38-.37c0-.25-.19-.37-.38-.37zm-.52 1.54c-.19 0-.38.18-.38.37 0 .18.19.37.38.37.2 0 .39-.19.39-.37 0-.19-.13-.37-.39-.37zm-.51 1.54c-.2 0-.39.18-.39.37 0 .18.2.37.39.37.2 0 .38-.19.38-.37 0-.19-.12-.37-.38-.37zm-.39 1.6c-.19 0-.38.12-.38.37 0 .18.19.37.38.37.2 0 .39-.13.39-.37 0-.25-.2-.37-.39-.37z"/></svg>