<?xml version="1.0" encoding="UTF-8"?>
<svg width="20px" height="18px" viewBox="0 0 20 18" version="1.1" xmlns="http://www.w3.org/2000/svg" xmlns:xlink="http://www.w3.org/1999/xlink">
    <!-- Generator: Sketch 59.1 (86144) - https://sketch.com -->
    <title>icons/24px/heart</title>
    <desc>Created with Sketch.</desc>
    <g id="native---sso" stroke="none" stroke-width="1" fill="none" fill-rule="evenodd">
        <g id="Artboard" transform="translate(-17.000000, -60.000000)" fill="#888888" fill-rule="nonzero">
            <g id="icons/24px/heart" transform="translate(15.000000, 57.000000)">
                <g id="icons/trimmed/heart" transform="translate(1.883539, 2.661160)">
                    <path d="M5.07740687,0 C6.29781063,0 7.51141952,0.459379956 8.47367822,1.3787176 L8.66270616,1.56871806 L9.99959743,2.98397458 L11.3278076,1.58576935 C13.3068067,-0.506393104 16.5367999,-0.506349453 18.5157684,1.58576935 C20.4365347,3.61634995 20.4930356,6.83430619 18.6852485,8.9346476 L18.5157684,9.12244476 L10.199263,17.9123677 C10.1466756,17.9682341 10.0727253,18 9.99525687,18 C9.93715552,18 9.88103316,17.9821317 9.834418,17.9496289 L9.79125073,17.9123677 L1.48342646,9.11390548 C-0.493397493,7.02007063 -0.495553187,3.66073319 1.48342646,1.56871806 C2.4729149,0.522672305 3.77564286,0 5.07740687,0 Z M17.7893071,8.43523734 C19.4035681,6.72876844 19.403566,3.97952629 17.7892891,2.2729577 C16.20483,0.597904975 13.6387475,0.597894223 12.052829,2.27449569 L9.99756225,4.43807251 L7.9362376,2.25591776 C7.16146578,1.43687292 6.14221649,1 5.07740687,1 C4.00996227,1 2.98301055,1.43861239 2.20988683,2.25592643 C0.596320055,3.96165701 0.59686499,6.71819763 2.21051528,8.42736207 L9.99578286,16.6724084 L17.7893071,8.43523734 Z" id="Shape"></path>
                </g>
            </g>
        </g>
    </g>
</svg>