<?xml version="1.0" encoding="utf-8"?>
<!-- Generator: Adobe Illustrator 23.0.2, SVG Export Plug-In . SVG Version: 6.00 Build 0)  -->
<svg version="1.1" id="Layer_1" xmlns="http://www.w3.org/2000/svg" xmlns:xlink="http://www.w3.org/1999/xlink" x="0px" y="0px"
	 viewBox="0 0 23 32" enable-background="new 0 0 23 32" xml:space="preserve">
<path fill-rule="evenodd" clip-rule="evenodd" d="M4.123,26c-0.277,0-0.5-0.223-0.5-0.499l-0.007-7.368l-3.115,0.005H0.5
	c-0.201,0-0.383-0.121-0.461-0.307c-0.078-0.186-0.037-0.401,0.105-0.545L11.133,6.149C11.226,6.054,11.354,6,11.487,6h0.001
	c0.134,0,0.262,0.054,0.356,0.149l11.011,11.114c0.142,0.142,0.184,0.357,0.107,0.544c-0.078,0.185-0.26,0.307-0.461,0.307
	l-3.115,0.005l0.007,7.368c0,0.133-0.052,0.261-0.146,0.355c-0.094,0.094-0.221,0.146-0.354,0.146l-4.849,0.002
	c-0.064,0.004-0.131-0.001-0.196-0.021c-0.042-0.013-0.081-0.031-0.118-0.054c-0.05-0.03-0.093-0.069-0.128-0.114
	c-0.052-0.065-0.089-0.146-0.102-0.232c-0.004-0.028-0.006-0.056-0.006-0.085l0.006-7.36h-4v7.372c0,0.277-0.224,0.5-0.5,0.5
	L4.123,26z M4.115,17.132c0.133,0,0.26,0.053,0.354,0.146c0.093,0.093,0.146,0.221,0.146,0.353L4.622,25L8.5,24.996v-7.372
	c0-0.276,0.223-0.5,0.5-0.5h5c0.133,0,0.26,0.053,0.353,0.147c0.094,0.093,0.147,0.221,0.147,0.353l-0.006,7.366l3.898-0.002
	l-0.007-7.367c0-0.276,0.222-0.501,0.499-0.501l2.418-0.004l-9.813-9.905l-9.792,9.925L4.115,17.132L4.115,17.132z"/>
</svg>
