<?xml version="1.0" encoding="utf-8"?>
<!-- Generator: Adobe Illustrator 23.0.2, SVG Export Plug-In . SVG Version: 6.00 Build 0)  -->
<svg version="1.1" id="Layer_1" xmlns="http://www.w3.org/2000/svg" xmlns:xlink="http://www.w3.org/1999/xlink" x="0px" y="0px"
	 viewBox="0 0 23.997 32" enable-background="new 0 0 23.997 32" xml:space="preserve">
<path fill-rule="evenodd" clip-rule="evenodd" d="M11.998,12.174c-0.859,0-1.535-0.677-1.535-1.537c0-0.859,0.676-1.537,1.535-1.537
	c0.859,0,1.535,0.678,1.535,1.537C13.533,11.497,12.858,12.174,11.998,12.174z M10.682,22.26h2.64V14.1h-2.64V22.26z M12,5
	c-6.076,0-11,4.925-11,11s4.924,11,11,11c6.075,0,11-4.925,11-11S18.074,5,12,5z M12,4c6.627,0,12,5.373,12,12s-5.373,12-12,12
	C5.372,28,0,22.627,0,16S5.372,4,12,4z"/>
</svg>
