<?xml version="1.0" encoding="utf-8"?>
<!-- Generator: Adobe Illustrator 19.2.1, SVG Export Plug-In . SVG Version: 6.00 Build 0)  -->
<svg version="1.1" id="Layer_1" xmlns="http://www.w3.org/2000/svg" xmlns:xlink="http://www.w3.org/1999/xlink" x="0px" y="0px"
	 width="18px" height="32px" viewBox="0 0 18 32" style="enable-background:new 0 0 18 32;" xml:space="preserve">
<style type="text/css">
	.st0{fill-rule:evenodd;clip-rule:evenodd;}
</style>
<path class="st0" d="M15.923,14.617h-1.567c0.113,0.444,0.179,0.906,0.179,1.383c0,3.058-2.478,5.541-5.541,5.541
	c-3.058,0-5.541-2.478-5.541-5.541c0-0.477,0.066-0.944,0.184-1.383H2.077v7.617c0,0.382,0.311,0.694,0.694,0.694H15.23
	c0.382,0,0.694-0.311,0.694-0.694V14.617z M15.923,9.77c0-0.382-0.311-0.694-0.694-0.694h-2.077c-0.382,0-0.694,0.311-0.694,0.694
	v2.077c0,0.382,0.311,0.694,0.694,0.694h2.077c0.382,0,0.694-0.311,0.694-0.694V9.77z M9,12.541c-1.911,0-3.464,1.548-3.464,3.459
	S7.084,19.464,9,19.464s3.464-1.553,3.464-3.464S10.911,12.541,9,12.541z M15.923,25H2.077C0.93,25,0,24.07,0,22.923V9.077
	C0,7.93,0.93,7,2.077,7h13.847C17.07,7,18,7.93,18,9.077v13.847C18,24.07,17.07,25,15.923,25z"/>
</svg>
