<?xml version="1.0" encoding="utf-8"?>
<!-- Generator: Adobe Illustrator 23.0.2, SVG Export Plug-In . SVG Version: 6.00 Build 0)  -->
<svg version="1.1" id="Layer_1" xmlns="http://www.w3.org/2000/svg" xmlns:xlink="http://www.w3.org/1999/xlink" x="0px" y="0px"
	 width="20px" height="32px" viewBox="0 0 20 32" style="enable-background:new 0 0 20 32;" xml:space="preserve">
<g>
	<path d="M19,7.54H1c-0.55,0-1,0.45-1,1v15.95c0,0.55,0.45,1,1,1h18c0.55,0,1-0.45,1-1V8.54C20,7.98,19.55,7.54,19,7.54z M19,24.48
		H1V8.54h18V24.48z"/>
	<path d="M4.04,21.16h4.17c0.26,0,0.46-0.21,0.46-0.46v-3.11c0-0.26-0.21-0.46-0.46-0.46H4.04c-0.26,0-0.46,0.21-0.46,0.46v3.11
		C3.57,20.95,3.78,21.16,4.04,21.16z"/>
	<path d="M16,17.75h-5c-0.28,0-0.5,0.22-0.5,0.5s0.22,0.5,0.5,0.5h5c0.28,0,0.5-0.22,0.5-0.5S16.28,17.75,16,17.75z"/>
	<path d="M16,19.75h-5c-0.28,0-0.5,0.22-0.5,0.5s0.22,0.5,0.5,0.5h5c0.28,0,0.5-0.22,0.5-0.5S16.28,19.75,16,19.75z"/>
	<path d="M4.04,15.01h12.07c0.26,0,0.46-0.21,0.46-0.46v-3.11c0-0.26-0.21-0.46-0.46-0.46H4.04c-0.26,0-0.46,0.21-0.46,0.46v3.11
		C3.57,14.8,3.78,15.01,4.04,15.01z"/>
</g>
</svg>
