<svg width="16" height="16" viewBox="0 0 16 16" xmlns="http://www.w3.org/2000/svg"><title>life-preserver</title><path d="M8.32 0a7.69 7.69 0 1 0-.01 15.37A7.69 7.69 0 0 0 8.32 0zm6.31 6.44h-1.74a4.74 4.74 0 0 0-3.46-3.36V1.34c2.61.46 4.7 2.5 5.2 5.1zm-6.31 4.73a3.5 3.5 0 0 1 0-7 3.5 3.5 0 0 1 0 7zM6.94 1.4v1.75a4.74 4.74 0 0 0-3.19 3.3H2.01A6.44 6.44 0 0 1 6.94 1.4zM2.01 8.93h1.75a4.77 4.77 0 0 0 3.18 3.29v1.75a6.44 6.44 0 0 1-4.93-5.04zm7.42 5.09v-1.73c1.68-.41 3-1.7 3.46-3.36h1.74a6.44 6.44 0 0 1-5.2 5.1v-.01z"/></svg>