<?xml version="1.0" encoding="utf-8"?>
<!-- Generator: Adobe Illustrator 21.1.0, SVG Export Plug-In . SVG Version: 6.00 Build 0)  -->
<svg version="1.1" id="Layer_1" xmlns="http://www.w3.org/2000/svg" xmlns:xlink="http://www.w3.org/1999/xlink" x="0px" y="0px"
	 width="16px" height="32px" viewBox="0 0 16 32" style="enable-background:new 0 0 16 32;" xml:space="preserve">
<style type="text/css">
	.st0{fill-rule:evenodd;clip-rule:evenodd;}
</style>
<path class="st0" d="M4,12h8c0-2.2091408-1.7908602-4-4-4S4,9.7908592,4,12z M8,6c3.3137102,0,6,2.6862907,6,6
	c1.1045704,0,2,0.8954296,2,2v10c0,1.1045704-0.8954296,2-2,2H2c-1.1045694,0-2-0.8954296-2-2V14c0-1.1045704,0.8954305-2,2-2
	C2,8.6862907,4.6862922,6,8,6z M7,19.2324371C6.4021988,18.8866253,6,18.2402821,6,17.5c0-1.1045685,0.895431-2,2-2s2,0.8954315,2,2
	c0,0.7402821-0.4021988,1.3866253-1,1.7324371V21.5c0,0.5522842-0.4477148,1-1,1s-1-0.4477158-1-1V19.2324371z"/>
</svg>
