<svg width="74" height="16" viewBox="0 0 74 16" xmlns="http://www.w3.org/2000/svg"><title>logo-tone-horizontal</title><path d="M41.78 10.63c-.22-.02-.82.73-1.3.2-.42-.46.55-1.38.74-1.72.28-.47-.8-.83-1.26-1.42-.29-.39.47-1.58-.48-1.9-.31-.1-1.28.47-.93 2.12-.44 1.64-3.76 4.5-4.2 3.35-.12-.28.17-.75.93-.9 1.26-.27 1.16-1.05.56-1.12-.95-.13-1.2-.13-2.33-.38-.44-.05-.43-.64.1-.63.21 0 .74.06 1.9.1 1.2.05 1.44-.88 1.4-1.46a9.29 9.29 0 0 1-2.59.33c-1.11 0-2.49.31-2.51 1.3-.03.96 1.24 1.18 1.9 1.36.2.05.26.2.14.29-.29.23-.92.52-1 1.06-.11.75.58 1.34 1.45 1.32 1.16-.03 2.44-.51 3.67-1.99.34-.41.74-1.12.97-1.43.06-.11.23-.16.3-.15.23.05.54.21.5.46-.07.36-1.06 1.49-.4 2.17.4.42 1.43.73 2.25.14.76-.56.5-1.06.19-1.1zm-16.71.89c-.66-.15.96-3.12.19-3.67-1.1-.78-2.1.6-2.85 1.6-.3.4-.52.22-.71-.34-.22-.62-1.5-.17-2.25.22-1.19.6-3.37 2.64-3.57 1.62-.04-.17.25-.57.78-.76.62-.22 1.32-.42 1.32-.8 0-.28-.17-.49-.35-.48-.87.05-1.88.28-3.04-.04-.27 0-.38-.66.4-.57.8.06 1.61.09 2.42.08 1.23.03 1.26-.89 1.1-1.38-1.03.3-1.55.27-2.63.27-1.14 0-2.67.16-2.61 1.25.06.92 1.35 1.17 2.02 1.25.2-.02.26.16.12.26-.3.3-.66.73-.7 1.07-.1.74.27 1.4 1.22 1.37 1.01-.01 1.34-.74 3.04-1.77.47-.28 1.06-.77 1.3-.8.1 0 .23.02.22.2-.14.67-.3 1.12-.13 1.7.12.4.66.65 1.05.36.65-.49.66-.77 1.5-1.86.13-.18.64-1.01.88-.9.2.09.14.35.1.57-.17 1.02-.62 2.65 1.42 2.4.48-.06.87-.39.5-.73-.22-.21-.47-.06-.74-.12z"/><path d="M15.1 5.88c.1-.46-.11-.69-.11-.69l-2.52.78c-.33.14-.3-.15-.3-.22l.17-.76c.7-3.01.3-3.82-.25-4.28-1.4-1.13-6.45 1.23-10.07 4.08C.82 5.83.12 6.07.91 6.9c.7.7 1.15.18 1.15.18.66-.52 2.1-1.99 3.04-2.68 1.34-1 3.2-2.42 4.84-2.8 1.3-.34 1.7.05 1.52 1.37-.1 1.14-.98 3.69-.98 3.69s-1.35.6-1.75.75c-.31.11-.65.03-.68.75-.02.76.45.48.76.36l1.02-.45c.16-.13.33-.02.25.2-.27.86-.6 1.7-.98 2.51-.68 1.62-1.9 3.83-2.06 4.39.02.36.42.41.95.42a.96.96 0 0 0 .7-.37s.64-1.36 1.61-3.74c.52-1.25.97-2.52 1.37-3.81.1-.38.33-.47.63-.54.44-.15 1.06-.34 1.44-.4.97-.24 1.24-.2 1.36-.85v-.01zm15.8 5.62c-1.23-.16.15-3.7.86-5.9.6-1.88 1.26-3.23 1.84-4.75.37-.98-.81-.94-1.24-.65-.41.27-1.93 4.97-2.56 7.38 0 0-.14.52-.32 1.67l-.17 1.14c-.15.86-.77 1.31-1.3 1.22-.65-.13-.74-1.1-.57-1.83.2-.8.85-1.7 1.6-1.47.38.08.56.03.58-.21.04-.31-.34-.5-.34-.5-1.45-.73-2.75.46-3.08 2.14-.2.99.01 1.87.51 2.36.5.5 1.3.6 2.3.05.61-.35.58.46 1.97.41 1.02-.1 1.59-.83 1.06-1.25-.34-.26-.57.26-1.14.2zm14.48-4.13h1.3v4.8h1.39v-4.8h1.3V6.21h-3.99v1.16zm8.58-1.3a3.22 3.22 0 0 0-2.34.88 3.32 3.32 0 0 0-.93 2.26c0 .88.36 1.68.93 2.22.63.59 1.47.9 2.34.88a3.1 3.1 0 0 0 3.24-3.12c0-.92-.36-1.7-.93-2.25a3.2 3.2 0 0 0-2.31-.87zm1.3 4.46c-.28.29-.71.5-1.32.5a1.79 1.79 0 0 1-1.84-1.82c0-.67.28-1.1.54-1.36a1.8 1.8 0 0 1 1.3-.5c.56 0 1.03.22 1.32.5.27.27.53.73.53 1.34 0 .69-.29 1.11-.52 1.34zm8.48-.47L60.5 6.2h-1.2v5.96h1.37V8.31l3.25 3.86h1.2V6.21h-1.37v3.85zm7.13-2.69V6.21H67.5v5.96h3.38v-1.16h-2V9.7h1.9V8.53h-1.9V7.37h2zm1-.99V7.4h-.15V6.38h-.28v-.13h.72v.13h-.29zm.4 1.02l.2-1.23.45.96.46-.96.19 1.23h-.14l-.12-.78-.39.84-.39-.84-.11.78h-.15z"/></svg>