<?xml version="1.0" encoding="utf-8"?>
<!-- Generator: Adobe Illustrator 21.0.0, SVG Export Plug-In . SVG Version: 6.00 Build 0)  -->
<svg version="1.1" id="Layer_1" xmlns="http://www.w3.org/2000/svg" xmlns:xlink="http://www.w3.org/1999/xlink" x="0px" y="0px"
	 width="127.3330002px" height="32px" viewBox="0 0 127.3330002 32" style="enable-background:new 0 0 127.3330002 32;"
	 xml:space="preserve">
<g>
	<path d="M71.8303833,18.6033936c-0.3778687-0.0462036-1.4310913,1.2786865-2.2834473,0.3341675
		c-0.708252-0.7838135,0.9740601-2.4055786,1.3088989-2.9833984c0.4823608-0.8336182-1.4005737-1.4616699-2.1924438-2.4970093
		c-0.5101318-0.6807861,0.8147583-2.7720337-0.8438721-3.3252563c-0.541687-0.1804199-2.2180176,0.8280029-1.6218262,3.7213135
		c-0.7615967,2.8621826-6.5588379,7.8687134-7.3318481,5.8504639c-0.1887207-0.491333,0.3081665-1.310791,1.6381836-1.5878296
		c2.1920166-0.456604,2.0198975-1.8131714,0.9749756-1.9483032c-1.6451416-0.2133789-2.1016846-0.2133789-4.0612793-0.6719971
		c-0.772583-0.0827026-0.7468262-1.1088257,0.1633911-1.0949707c0.37677-0.0145874,1.3078003,0.1082764,3.3187256,0.1831665
		c2.104187,0.0788574,2.5219727-1.5502319,2.4376831-2.5609131c-2.1480713,0.463562-2.6555176,0.5814209-4.5082397,0.5814209
		c-1.9440918,0-4.340332,0.5426636-4.3840332,2.2529297c-0.0439453,1.7001343,2.1785889,2.0805054,3.3339844,2.4060059
		c0.319397,0.0761719,0.4408569,0.335083,0.2279663,0.5025024c-0.4940186,0.3942871-1.6066284,0.9147949-1.7401733,1.8441162
		c-0.1878662,1.3161621,1.0090332,2.3468018,2.5268555,2.3156738c2.0212402-0.0421753,4.2545166-0.9008789,6.3985596-3.4747925
		c0.6060791-0.7271118,1.2865601-1.9556885,1.7054443-2.496521c0.100647-0.1948242,0.3901978-0.288269,0.5170898-0.274353
		c0.3833008,0.0856323,0.9256592,0.375,0.852356,0.7910156c-0.1115723,0.6376953-1.8443604,2.6227417-0.6898804,3.8183594
		c0.7091675,0.7344971,2.494873,1.267334,3.9176636,0.2321777C72.8269043,19.5530396,72.3577881,18.6668091,71.8303833,18.6033936z"
		/>
	<path d="M42.6912842,20.1560059c-1.1405029-0.2631226,1.6804199-5.4604492,0.3344116-6.4247437
		c-1.8913574-1.355835-3.6469116,1.0469971-4.9626465,2.8009644c-0.5192261,0.6921387-0.9033203,0.3882446-1.2402344-0.5859375
		c-0.375061-1.083252-2.6255493-0.2909546-3.9169312,0.3756714c-2.0612793,1.0629272-5.8676147,4.6207886-6.22229,2.8464966
		c-0.0614014-0.3066406,0.4352417-0.9901123,1.3618164-1.3262939c1.0863647-0.3953857,2.3139038-0.7475586,2.3139038-1.4011841
		c0-0.5047607-0.3061523-0.8598022-0.6312866-0.8423462c-1.5162964,0.0845337-3.2774048,0.4857178-5.2952881-0.0699463
		c-0.4594116-0.00354-0.6555176-1.1604004,0.7064209-1.0088501c0.3602905,0.0396729,1.1640625,0.0945435,4.2154541,0.1550903
		c2.1491699,0.0430298,2.1962891-1.5650024,1.90802-2.4203491c-1.786438,0.5323486-2.6959229,0.4718628-4.5871582,0.4718628
		c-1.9851685,0-4.6586304,0.274353-4.5447388,2.1865234c0.0958252,1.6087036,2.3544312,2.0505371,3.5247192,2.1828003
		c0.3345337-0.0302734,0.4413452,0.2891235,0.1976929,0.456543c-0.52771,0.5352783-1.1366577,1.2747803-1.2181396,1.8729858
		c-0.1765137,1.2946777,0.4868774,2.4333496,2.1316528,2.4050903c1.7660522-0.0302124,2.3446045-1.309021,5.2980957-3.1057739
		c0.824707-0.5011597,1.8487549-1.3504639,2.2709351-1.4179688c0.1621704,0,0.3987427,0.0495605,0.383667,0.361145
		c-0.2493896,1.1785278-0.5237427,1.9702148-0.218689,2.9760132c0.2141724,0.7071533,1.1519165,1.1494141,1.8267212,0.6387939
		c1.1271973-0.8522339,1.1415405-1.3377075,2.6022339-3.258667c0.2418213-0.3180542,1.1287842-1.7766113,1.5385742-1.5829468
		c0.3415527,0.161438,0.246521,0.6334839,0.1831055,1.0043945c-0.3071289,1.7984009-1.0871582,4.6410522,2.4658203,4.2023315
		c0.84552-0.1044312,1.5255737-0.6740112,0.883606-1.2787476C43.6124878,20.003418,43.1781006,20.2683105,42.6912842,20.1560059z"/>
	<path d="M25.3348389,10.2904053c0.1518555-0.8094482-0.1994019-1.196106-0.1994019-1.196106
		s-3.6635742,1.1465454-4.3977051,1.3485107c-0.5667114,0.2426758-0.5359497-0.2531738-0.5215454-0.369873
		c-0.0108643,0.0422363,0.0036011-0.0257568,0.0036011-0.0257568s-0.00177,0.0107422-0.0036011,0.0257568
		c0.0149536-0.0579834,0.0792236-0.3308105,0.3086548-1.3352661c1.1997681-5.2804565,0.4967041-6.6877441-0.4573975-7.4902954
		C17.6532593-0.7487793,8.8357544,3.3942261,2.5292358,8.3725586c-2.1010742,1.8265991-3.3187256,2.2531128-1.9483032,3.7141113
		C1.7982788,13.3045044,2.59021,12.3912964,2.59021,12.3912964c1.1571655-0.9133911,3.6536865-3.4708862,5.2980347-4.6891479
		c2.3413696-1.7340088,5.5720215-4.2321777,8.4342651-4.9020996c2.2713013-0.5753174,2.9537964,0.0913086,2.6491699,2.4055176
		c-0.1792603,1.9859619-1.7053833,6.4552612-1.7053833,6.4552612s-2.3442383,1.0483398-3.0448608,1.3092651
		c-0.5469971,0.2034912-1.1264648,0.0604858-1.1893921,1.3094482c-0.0282593,1.3397217,0.7832642,0.8365479,1.3270264,0.6292114
		c0.4197388-0.1600952,1.4118042-0.62854,1.781189-0.7816162c0.2739258-0.2125244,0.578186-0.0302734,0.4257812,0.3653564
		c-0.274231,0.8826904-0.7681274,2.3134155-1.7050171,4.3847656c-1.1873779,2.8314209-3.3190308,6.6981812-3.5930786,7.6730347
		c0.0307007,0.6387939,0.7305298,0.730957,1.6526489,0.7437134c0.8483887-0.0656738,1.2403564-0.65271,1.2403564-0.65271
		s1.1038208-2.3676758,2.8002319-6.5446777c1.2329712-3.0331421,2.0367432-5.5396118,2.3757935-6.670166
		c0.1825562-0.6697998,0.5784912-0.8222046,1.0960693-0.9432373c0.774292-0.2543945,1.8586426-0.5926514,2.5227661-0.7125854
		C24.6350098,11.3557739,25.1178589,11.4536743,25.3348389,10.2904053z"/>
	<path d="M52.8608398,20.1253052c-2.1311646-0.2734375,0.2577515-6.4646606,1.4919434-10.3222046
		c1.0532837-3.2896118,2.2177124-5.6521606,3.2180786-8.3190308c0.6433105-1.715332-1.4119263-1.6309204-2.1591797-1.1338501
		c-0.7202148,0.4803467-3.3613281,8.6983643-4.463501,12.9244385c0,0-0.2375488,0.8869629-0.5540771,2.9103394
		c-0.0499878,0.3292847-0.2203369,1.6035767-0.2927246,2.0023193c-0.2745972,1.4916992-1.3431396,2.2959595-2.2643433,2.1206665
		c-1.1505737-0.2189941-1.3119507-1.9265137-1.0048828-3.1970215c0.3375854-1.3921509,1.4921875-2.9575806,2.8117065-2.5756836
		c0.6361694,0.1479492,0.9537964,0.0632324,0.9968262-0.361084c0.0544434-0.5466919-0.5942383-0.8688354-0.5942383-0.8688354
		c-2.5297241-1.2731323-4.7958984,0.803833-5.3761597,3.744873c-0.338501,1.7160645,0.0231323,3.2583008,0.9002075,4.1269531
		s2.2696533,1.0636597,3.9931641,0.0852051c1.0786133-0.6121216,1.0252075,0.8087158,3.4498291,0.7207031
		c1.7624512-0.1724243,2.7610474-1.4641724,1.8467407-2.1807861C54.2615356,19.3338623,53.8591919,20.2539673,52.8608398,20.1253052
		z"/>
	<polygon points="78.1121216,12.8978882 80.3811035,12.8978882 80.3811035,21.3010864 82.7907715,21.3010864 82.7907715,12.8978882 
		85.0596313,12.8978882 85.0596313,10.8636475 78.1121216,10.8636475 	"/>
	<path d="M93.0598755,10.6289062c-2.0812378,0-3.3800659,0.8294067-4.0842285,1.5335693
		c-0.9389038,0.9389038-1.6116943,2.4567261-1.6116943,3.9589844c0,1.5335693,0.6259155,2.9418945,1.6273804,3.8807983
		c0.7824097,0.7511597,2.1126099,1.5335693,4.0685425,1.5335693c1.7526855,0,3.0670776-0.5946655,4.0373535-1.5335693
		c1.1266479-1.0953979,1.6273804-2.5194092,1.6273804-3.9120483c0-1.6118164-0.6416016-2.9888306-1.6273804-3.9434204
		C96.0487061,11.1296387,94.6873169,10.6289062,93.0598755,10.6289062z M95.3445435,18.4217529
		c-0.5007324,0.5007324-1.2518311,0.8920288-2.3158569,0.8920288c-0.8137817,0-1.5648193-0.2191162-2.2377319-0.8606567
		c-0.6416016-0.6259155-0.9545898-1.3927612-0.9545898-2.347229c0-1.15802,0.4694824-1.9247437,0.9232178-2.362915
		c0.5632935-0.5633545,1.3770752-0.8920288,2.284668-0.8920288c0.9545898,0,1.7838745,0.3912964,2.300293,0.8920288
		c0.4695435,0.4694214,0.9077148,1.2674561,0.9077148,2.347229C96.2522583,17.295105,95.7514648,18.0306396,95.3445435,18.4217529z"
		/>
	<polygon points="110.1207886,17.5924683 104.4560547,10.8636475 102.3591919,10.8636475 102.3591919,21.3010864 
		104.7689819,21.3010864 104.7689819,14.5410767 110.4336548,21.3010864 112.5305786,21.3010864 112.5305786,10.8636475 
		110.1207886,10.8636475 	"/>
	<polygon points="122.5494385,12.8978882 122.5494385,10.8636475 116.6499634,10.8636475 116.6499634,21.3010864 
		122.5494385,21.3010864 122.5494385,19.2667236 119.0598145,19.2667236 119.0598145,16.9508667 122.3772583,16.9508667 
		122.3772583,14.9165649 119.0598145,14.9165649 119.0598145,12.8978882 	"/>
</g>
<g>
	<path d="M124.2988892,11.1712456v1.7789774h-0.2724075v-1.7789774h-0.4901428v-0.2449131h1.2523804v0.2449131H124.2988892z
		 M124.9847107,12.950223l0.3539429-2.151783l0.778862,1.6779432l0.8006058-1.6779432L127.25,12.950223h-0.250351
		l-0.1905594-1.3690844l-0.6915741,1.4701185l-0.6807022-1.4701185l-0.2014313,1.3690844H124.9847107z"/>
</g>
</svg>
