<svg width="43" height="16" viewBox="0 0 43 16" xmlns="http://www.w3.org/2000/svg"><title>logo</title><path d="M33.03 8.66c.22-.01.75.06 1.9.1 1.21.05 1.45-.88 1.4-1.45-1.23.26-1.51.33-2.58.33-1.11 0-2.5.3-2.52 1.28-.02.97 1.25 1.18 1.92 1.37.18.05.25.2.13.29-.28.22-.93.52-1 1.05-.1.74.58 1.33 1.45 1.32 1.16-.03 2.44-.52 3.67-1.98.35-.42.74-1.12.98-1.42a.35.35 0 0 1 .3-.16c.22.05.53.21.48.45-.06.36-1.05 1.5-.39 2.17.63.56 1.56.62 2.25.14.76-.56.49-1.06.2-1.1-.23-.02-.83.73-1.32.2-.4-.45.56-1.37.75-1.7.28-.48-.8-.84-1.26-1.42-.29-.4.47-1.58-.48-1.9-.31-.1-1.28.48-.93 2.12-.44 1.63-3.77 4.48-4.2 3.33-.12-.28.17-.75.93-.9 1.26-.26 1.16-1.03.56-1.12-.94-.11-1.2-.11-2.33-.38-.44-.04-.43-.63.1-.62zm-18.2 1.8c-.3.3-.65.72-.7 1.06-.1.74.28 1.39 1.22 1.37 1.02-.02 1.35-.74 3.05-1.77.47-.28 1.06-.77 1.3-.8.1 0 .23.02.22.2-.14.67-.3 1.12-.13 1.7.13.4.66.65 1.05.36.65-.49.66-.76 1.5-1.86.13-.18.64-1 .88-.9.2.1.14.36.1.58-.17 1.01-.62 2.64 1.42 2.39.48-.06.87-.4.5-.73-.22-.21-.47-.06-.75-.12-.65-.15.97-3.11.2-3.66-1.1-.77-2.1.6-2.85 1.6-.3.38-.52.21-.72-.34-.21-.61-1.5-.16-2.24.22-1.19.6-3.37 2.62-3.57 1.61-.04-.17.25-.56.78-.75.62-.22 1.32-.42 1.32-.8 0-.29-.17-.49-.36-.48-.87.05-1.87.28-3.03-.04-.26 0-.38-.66.4-.57.21.02.67.06 2.42.09 1.23.02 1.26-.9 1.1-1.38-1.03.3-1.55.27-2.64.27-1.13 0-2.67.15-2.6 1.25.05.91 1.35 1.16 2.02 1.24.2-.02.25.16.11.25z"/><path d="M11.1 8.1c.1-.38.32-.46.62-.53a12.8 12.8 0 0 1 1.45-.4c.96-.25 1.24-.19 1.37-.85.08-.46-.12-.68-.12-.68l-2.52.77c-.37.15-.3-.23-.3-.23l.18-.74c.68-3.01.28-3.81-.27-4.27C10.13.04 5.07 2.4 1.45 5.23.25 6.27-.45 6.51.34 7.35c.7.69 1.15.17 1.15.17.66-.52 2.1-1.98 3.04-2.67 1.34-1 3.2-2.41 4.84-2.8 1.3-.32 1.7.06 1.52 1.38-.1 1.13-.98 3.67-.98 3.67s-1.34.6-1.74.74c-.32.12-.65.04-.69.75-.01.76.45.48.76.36l1.02-.45c.16-.12.34-.01.25.21-.27.85-.6 1.69-.98 2.5-.68 1.6-1.9 3.81-2.06 4.36.02.37.42.42.95.43a.98.98 0 0 0 .71-.37s.64-1.35 1.6-3.73a41.02 41.02 0 0 0 1.37-3.8zm17.38.64c-.75-.22-1.42.67-1.61 1.46-.18.73-.09 1.7.57 1.82.53.1 1.15-.35 1.3-1.2.05-.23.14-.96.17-1.14.18-1.16.32-1.66.32-1.66.63-2.4 2.15-7.08 2.56-7.36.43-.28 1.6-.33 1.24.65-.57 1.52-1.24 2.86-1.85 4.74-.7 2.2-2.08 5.72-.86 5.87.58.08.81-.45 1.15-.18.53.4-.05 1.14-1.06 1.24-1.39.05-1.36-.76-1.98-.41-1.98 1.11-3.2-.45-2.8-2.4.33-1.68 1.63-2.86 3.08-2.14 0 0 .37.2.34.5-.03.25-.2.3-.57.2zm13.06-2.21c.14 0 .23.01.3.03.1.05.17.15.17.28 0 .1-.04.17-.1.21a.4.4 0 0 1-.17.06c.09.01.15.05.19.1a.3.3 0 0 1 .06.17v.08l.01.14v.01h-.17V7.6l-.01-.04v-.08c0-.13-.04-.21-.1-.25a.47.47 0 0 0-.22-.03h-.15v.42h-.2V6.53h.38zm.2.17a.48.48 0 0 0-.23-.04h-.16v.39h.17c.09 0 .15 0 .19-.02a.18.18 0 0 0 .11-.17c0-.08-.02-.14-.07-.16zm.52 1.07c-.2.2-.42.3-.7.3a.92.92 0 0 1-.7-.3.94.94 0 0 1-.3-.7c0-.27.1-.5.3-.7.2-.19.42-.29.7-.29.28 0 .51.1.7.3.2.19.3.42.3.7 0 .27-.1.5-.3.7zm-1.3-1.3a.8.8 0 0 0-.25.6c0 .23.08.45.24.61a.86.86 0 0 0 1.21 0 .83.83 0 0 0 .25-.6.83.83 0 0 0-.24-.6.82.82 0 0 0-.61-.26.82.82 0 0 0-.6.25z"/></svg>