<svg width="151" height="16" viewBox="0 0 151 16" xmlns="http://www.w3.org/2000/svg"><title>logo-riffstation-horizontal</title><path d="M0 1.06h22.78v2.52H7.7a1.55 1.55 0 0 0-3.08 0H0v.39h4.63a1.55 1.55 0 0 0 3.08 0h15.07v2.51h-8.9a1.55 1.55 0 0 0-3.08 0H0v.38h10.8a1.55 1.55 0 0 0 3.09 0h8.89v2.51H0v.38h22.78v2.51h-2.75a1.55 1.55 0 0 0-3.07 0H0v.4h16.96a1.55 1.55 0 0 0 3.09 0h2.73v2.5H0v.38h24.69V.7H0v.37zM35.74 8.3c.77-.76.93-1.7.93-2.44a3.6 3.6 0 0 0-1.04-2.67 4.27 4.27 0 0 0-3.05-1.04h-4.2V14.1h2.77V9.4l3.23 4.7h3.37l-3.68-4.9a3.75 3.75 0 0 0 1.67-.91zm-2.31-1.24c-.46.46-1.14.52-1.65.52h-.63V4.29h.64c.37 0 1.08.03 1.54.37.22.19.54.54.54 1.23 0 .59-.25.96-.44 1.16zm8-4.91h2.75V14.1h-2.75V2.14zm7.26 11.95h2.74V9.11h3.6V6.78h-3.6V4.47h3.87V2.14h-6.63l.02 11.95zm10.74 0h2.76V9.11h3.6V6.78h-3.6V4.47h3.88V2.14h-6.64v11.95zm16.11-7.04l-.89-.34c-.8-.31-1.21-.41-1.5-.69a.83.83 0 0 1-.27-.66c0-.3.13-.57.3-.75.33-.35.8-.42 1.17-.42.35 0 1.11.06 2 .87l1.25-2a5.78 5.78 0 0 0-3.54-1.19c-1.12 0-2.13.23-2.97 1.09a3.7 3.7 0 0 0-1.03 2.69c0 .57.08 1.41.7 2.08.46.5 1.11.75 1.67.94l.99.35c.34.12 1.07.4 1.4.66.24.22.41.47.41.86 0 .45-.2.77-.43.97-.4.34-.9.41-1.26.41-.55 0-1.03-.14-1.5-.42-.4-.27-.78-.58-1.11-.92l-1.43 1.97c.44.46 1.14 1 1.75 1.31.75.38 1.5.5 2.36.5.8 0 2.33-.1 3.4-1.22a4.28 4.28 0 0 0 1.05-2.96 2.97 2.97 0 0 0-.87-2.21 4.8 4.8 0 0 0-1.64-.92zm5.44-2.6h2.6v9.64h2.76V4.47h2.6V2.14h-7.96v2.32zM95.3 2.15L90.48 14.1h2.87l.91-2.26h4.52l.9 2.26h2.86l-4.7-11.95H95.3zm-.23 7.57l1.49-4 1.46 4h-2.95zm9-5.25h2.6v9.63h2.76V4.47h2.6V2.14h-7.96v2.32zm11.56-2.32h2.77V14.1h-2.77V2.14zm13.5-.27c-2.38 0-3.86.95-4.67 1.75a6.67 6.67 0 0 0-1.84 4.54c0 1.76.7 3.37 1.86 4.45a6.58 6.58 0 0 0 4.65 1.74c2.01 0 3.52-.68 4.63-1.74a6.17 6.17 0 0 0 1.86-4.48 6.2 6.2 0 0 0-1.86-4.52 6.39 6.39 0 0 0-4.63-1.74zm2.63 8.92a3.65 3.65 0 0 1-2.66 1.03 3.57 3.57 0 0 1-3.66-3.67 3.6 3.6 0 0 1 1.06-2.71 3.64 3.64 0 0 1 2.62-1.03c1.08 0 2.04.46 2.63 1.03a3.77 3.77 0 0 1 1.04 2.69 3.6 3.6 0 0 1-1.03 2.66zm16.4-8.65v7.7l-6.5-7.7h-2.4V14.1h2.77V6.35l6.48 7.74h2.4V2.14h-2.75z"/></svg>