<?xml version="1.0" encoding="utf-8"?>
<!-- Generator: Adobe Illustrator 19.2.1, SVG Export Plug-In . SVG Version: 6.00 Build 0)  -->
<svg version="1.1" id="Layer_1" xmlns="http://www.w3.org/2000/svg" xmlns:xlink="http://www.w3.org/1999/xlink" x="0px" y="0px"
	 width="24px" height="32px" viewBox="0 0 24 32" style="enable-background:new 0 0 24 32;" xml:space="preserve">
<style type="text/css">
	.st0{enable-background:new    ;}
</style>
<g class="st0">
	<g>
	</g>
</g>
<g>
	<path d="M11.986,4.011c-4.982,0-9.566,3.198-11.274,7.882c-1.727,4.738-0.238,10.185,3.653,13.388
		c3.857,3.175,9.458,3.605,13.752,1.047c4.319-2.572,6.61-7.703,5.644-12.636C22.673,8.132,17.647,4.011,11.986,4.011z M2.084,17.33
		l0.794,0.802l-0.524,0.529c-0.168-0.61-0.279-1.238-0.328-1.869C2.041,16.971,2.061,17.151,2.084,17.33z M2.084,14.691
		C2.061,14.87,2.041,15.05,2.026,15.23c0.078-1.004,0.308-1.997,0.683-2.931c-0.139,0.346-0.256,0.703-0.355,1.062l0.524,0.529
		L2.084,14.691z M2.184,16.01L3.581,14.6l1.398,1.411l-1.397,1.411L2.184,16.01z M11.986,14.6l1.398,1.411l-1.397,1.411
		l-1.398-1.411L11.986,14.6z M9.886,15.3l-1.398-1.411l1.397-1.411l1.398,1.411L9.886,15.3z M12.69,13.889l1.398-1.411l1.398,1.411
		L14.088,15.3L12.69,13.889z M12.69,9.647l1.397-1.411l1.398,1.411l-1.398,1.411L12.69,9.647z M13.384,11.768l-1.398,1.411
		l-1.398-1.411l1.398-1.411L13.384,11.768z M9.886,11.058L8.488,9.647l1.398-1.411l1.398,1.411L9.886,11.058z M9.182,11.768
		l-1.398,1.411l-1.398-1.411l1.397-1.411L9.182,11.768z M9.182,16.011l-1.398,1.411l-1.398-1.411L7.784,14.6L9.182,16.011z
		 M9.885,16.721l1.398,1.411l-1.398,1.411l-1.398-1.411L9.885,16.721z M11.283,22.375l-1.397,1.411l-1.398-1.411l1.397-1.411
		L11.283,22.375z M10.589,20.253l1.398-1.411l1.398,1.411l-1.398,1.411L10.589,20.253z M14.088,20.963l1.398,1.411l-1.398,1.411
		l-1.398-1.411L14.088,20.963z M12.69,18.132l1.397-1.411l1.398,1.411l-1.397,1.411L12.69,18.132z M14.792,16.011l1.398-1.411
		l1.398,1.411l-1.398,1.411L14.792,16.011z M16.893,13.889l1.397-1.411l1.398,1.411L18.291,15.3L16.893,13.889z M16.189,13.179
		l-1.398-1.411l1.397-1.411l1.398,1.411L16.189,13.179z M14.791,7.526L15.609,6.7c-0.346-0.135-0.701-0.249-1.065-0.346
		l-0.457,0.461l-0.686-0.693c-0.207-0.029-0.415-0.053-0.624-0.072c1.666,0.131,3.287,0.684,4.684,1.602l-1.272,1.284L14.791,7.526z
		 M11.987,8.937l-1.398-1.411l1.398-1.411l1.398,1.411L11.987,8.937z M10.572,6.123c0.206-0.029,0.413-0.055,0.624-0.072
		C10.986,6.07,10.778,6.093,10.572,6.123z M9.885,6.815L9.429,6.354c0.373-0.099,0.754-0.176,1.143-0.232L9.885,6.815z M9.182,7.526
		L7.784,8.936L6.512,7.652c0.893-0.587,1.884-1.024,2.917-1.298C9.068,6.45,8.711,6.565,8.364,6.7L9.182,7.526z M7.08,9.647
		l-1.397,1.411L4.297,9.659c-0.214,0.258-0.433,0.516-0.62,0.795c0.242-0.361,0.514-0.7,0.8-1.027
		c-0.03,0.038-0.06,0.077-0.09,0.115l1.173-1.184c0.044-0.037,0.089-0.075,0.134-0.111L7.08,9.647z M5.695,8.248
		c0.261-0.212,0.535-0.41,0.817-0.595C6.229,7.838,5.956,8.035,5.695,8.248z M7.081,13.889L5.683,15.3l-1.398-1.411l1.398-1.411
		L7.081,13.889z M5.683,16.721l1.398,1.411l-1.397,1.411l-1.398-1.411L5.683,16.721z M7.784,18.842l1.398,1.411l-1.397,1.411
		l-1.398-1.411L7.784,18.842z M9.182,24.496l-0.818,0.826c-0.653-0.255-1.274-0.572-1.852-0.952l1.272-1.284L9.182,24.496z
		 M9.429,25.667l0.456-0.461l0.686,0.693c-0.754-0.108-1.497-0.3-2.207-0.577C8.712,25.457,9.069,25.571,9.429,25.667z
		 M11.195,25.97c-0.21-0.017-0.417-0.043-0.623-0.072C10.778,25.928,10.986,25.951,11.195,25.97z M11.986,23.085l1.398,1.411
		l-1.397,1.411l-1.398-1.411L11.986,23.085z M13.402,25.898l0.686-0.692l0.456,0.461c0.36-0.095,0.718-0.21,1.065-0.345
		c-0.906,0.354-1.862,0.573-2.831,0.649C12.986,25.952,13.194,25.928,13.402,25.898z M14.791,24.496l1.398-1.411l1.272,1.284
		c-0.578,0.38-1.199,0.697-1.852,0.952L14.791,24.496z M14.792,20.253l1.397-1.411l1.398,1.411l-1.397,1.411L14.792,20.253z
		 M16.893,18.132l1.398-1.411l1.398,1.411l-1.398,1.411L16.893,18.132z M18.994,16.01l1.397-1.411l1.398,1.411l-1.397,1.411
		L18.994,16.01z M21.095,13.889l0.523-0.528c-0.099-0.359-0.216-0.716-0.354-1.062c0.308,0.766,0.516,1.573,0.625,2.391
		L21.095,13.889z M21.889,17.331c-0.06,0.454-0.151,0.897-0.27,1.329l-0.523-0.528L21.889,17.331z M21.947,16.792
		c-0.014,0.181-0.034,0.36-0.058,0.539C21.913,17.152,21.931,16.972,21.947,16.792z M21.889,14.691
		c0.024,0.178,0.044,0.357,0.058,0.539C21.931,15.049,21.913,14.869,21.889,14.691z M21.264,12.298l-0.872,0.881l-1.398-1.411
		l1.301-1.314C20.681,11.029,21.003,11.648,21.264,12.298z M19.333,9.249c-0.29-0.314-0.593-0.615-0.92-0.89l1.172,1.184
		c-0.03-0.038-0.06-0.077-0.09-0.115c0.286,0.326,0.558,0.666,0.8,1.027c-0.187-0.279-0.405-0.537-0.62-0.795l-1.385,1.398
		l-1.398-1.411l1.386-1.399C18.655,8.554,19.004,8.892,19.333,9.249C19.043,8.935,19.004,8.892,19.333,9.249z M17.461,7.652
		c0.282,0.185,0.554,0.382,0.815,0.594C18.016,8.035,17.743,7.837,17.461,7.652z M5.561,8.359C5.234,8.634,4.93,8.935,4.64,9.249
		C4.93,8.935,5.233,8.634,5.561,8.359z M3.678,10.454l1.301,1.314l-1.398,1.411l-0.873-0.881C2.97,11.648,3.292,11.029,3.678,10.454
		z M4.643,22.775c0.29,0.314,0.594,0.615,0.922,0.89l-1.177-1.188c0.03,0.039,0.061,0.078,0.091,0.117
		c-0.992-1.13-1.724-2.483-2.124-3.933c0.099,0.359,0.216,0.716,0.355,1.062l0.873-0.881l1.398,1.411l-1.301,1.314
		c0.188,0.28,0.405,0.536,0.62,0.795l1.385-1.398l1.398,1.411l-1.386,1.399c0.261,0.212,0.536,0.411,0.817,0.595
		C5.826,23.918,5.199,23.378,4.643,22.775C4.933,23.089,5.199,23.378,4.643,22.775z M18.42,23.655
		c0.326-0.275,0.629-0.575,0.918-0.888C19.049,23.08,18.746,23.38,18.42,23.655z M19.496,22.592
		c0.031-0.035,0.056-0.075,0.086-0.111l-1.163,1.174c-0.305,0.257-0.625,0.495-0.958,0.713c0.281-0.185,0.556-0.383,0.817-0.596
		l-1.385-1.399l1.397-1.411l1.385,1.398c0.215-0.259,0.432-0.515,0.62-0.795l-1.301-1.313l1.398-1.411l0.872,0.88
		C20.839,20.781,20.237,21.747,19.496,22.592C19.527,22.557,20.237,21.747,19.496,22.592z M21.619,18.66
		c-0.1,0.362-0.216,0.718-0.355,1.063C21.403,19.378,21.519,19.023,21.619,18.66z"/>
	<path d="M4.285,22.374l0.102,0.103c-0.032-0.037-0.059-0.078-0.09-0.115L4.285,22.374z"/>
	<path d="M4.285,9.647l0.012,0.012c0.031-0.038,0.059-0.079,0.09-0.116L4.285,9.647z"/>
	<path d="M19.676,22.362c-0.032,0.039-0.06,0.081-0.093,0.119l0.105-0.106L19.676,22.362z"/>
	<path d="M19.688,9.647l-0.103-0.104c0.032,0.038,0.06,0.079,0.091,0.117L19.688,9.647z"/>
</g>
</svg>
