<svg width="16" height="16" viewBox="0 0 16 16" xmlns="http://www.w3.org/2000/svg"><title>mesh-circle</title><path d="M8.3 0a7.77 7.77 0 0 0-7.25 5.07 7.77 7.77 0 0 0 2.35 8.6 7.77 7.77 0 0 0 8.82.67 7.77 7.77 0 0 0 3.62-8.11A7.77 7.77 0 0 0 8.3 0zM1.94 8.56l.5.52-.33.34a6.4 6.4 0 0 1-.17-.86zm0-1.69l-.04.35a7 7 0 0 1 .2-1.2l.35.34-.51.51zm.07.85l.9-.9.89.9-.9.9-.9-.9zm6.29-.9l.9.9-.9.9-.9-.9.9-.9zm-1.35.44l-.9-.9.9-.9.9.9-.9.9zm1.8-.9l.9-.9.9.9-.9.9-.9-.9zm0-2.72l.9-.9.9.89-.9.91-.9-.9zM9.19 5l-.9.9-.9-.9.9-.9.9.89zm-2.24-.46l-.9-.9.9-.9.9.89-.9.91zm-.45.45l-.9.91-.9-.9.9-.9.9.89zm0 2.73l-.9.9-.9-.9.9-.9.9.9zm.45.45l.9.9-.9.91-.9-.9.9-.9zm.9 3.64l-.9.9-.9-.9.9-.92.9.91zm-.45-1.37l.9-.9.9.9-.9.9-.9-.9zm2.24.45l.9.91-.9.91-.9-.91.9-.9zm-.9-1.81l.9-.9.9.9-.9.9-.9-.9zM10.1 7.7l.9-.9.9.9-.9.9-.9-.9zm1.35-1.36l.9-.9.9.9-.9.9-.9-.9zM11 5.89l-.9-.9.9-.9.9.89-.9.91zm-.9-3.62l.53-.54a6.13 6.13 0 0 0-.69-.22l-.29.3-.44-.45-.4-.04a6.4 6.4 0 0 1 3 1.02l-.8.83-.9-.9zm-1.79.9l-.9-.9.9-.92.9.92-.9.9zM6.95 1.8l-.3-.3c.25-.07.49-.11.74-.15l-.44.45zm-.45.45l-.9.91-.81-.83a6.4 6.4 0 0 1 1.18-.6l.53.53v-.01zM5.15 3.63l-.9.9-.88-.9c-.14.17-.29.34-.4.5.15-.22.33-.44.51-.65l-.06.08.76-.76.08-.07.9.9zm0 2.72l-.9.9-.9-.9.9-.9.9.9zm-.9 1.81l.9.9-.9.91-.9-.9.9-.9zm1.34 1.36l.9.9-.9.91-.9-.9.9-.9zm.9 3.64l-.52.52a6.4 6.4 0 0 1-1.2-.6l.82-.83.9.9zm.16.75l.3-.3.43.45a6.4 6.4 0 0 1-.73-.15zm1.65-1.66l.9.9-.9.91-.9-.9.9-.9zm.9 1.8l.44-.44.3.3c-.25.03-.5.08-.74.15v-.01zm.9-.9l.9-.9.8.82c-.37.25-.76.45-1.18.61l-.53-.52v-.01zm0-2.72l.9-.9.89.9-.9.9-.9-.9zm1.35-1.36l.9-.9.89.9-.9.9-.9-.9zm1.34-1.36l.9-.9.89.9-.9.9-.9-.9h.01zm1.35-1.36l.34-.34c.03.28.1.57.17.85l-.51-.51zm.51 2.2c-.04.3-.1.58-.17.86l-.34-.34.51-.52zm-.4-3.23l-.56.57-.9-.9.83-.85c.26.37.46.77.63 1.19v-.01zM13 3.37c-.19-.2-.38-.4-.6-.58l.76.77-.06-.08c.2.21.36.43.51.66a3.65 3.65 0 0 0-.4-.5l-.88.9-.9-.91.9-.9c.23.2.46.4.67.64-.19-.2-.22-.23 0 0zm-10.05.77l.84.85-.9.9-.56-.56c.17-.42.37-.82.62-1.2zm.62 7.9c.2.21.38.4.6.58l-.76-.77.06.08a6.43 6.43 0 0 1-1.14-1.84l.56-.57.9.9-.84.86c.12.18.26.34.4.51l.9-.9.9.9-.9.9a6.8 6.8 0 0 0-.68-.64c.2.2.36.38 0 0zm9.54-.1l.05-.07-.75.74-.09.08-.89-.9.9-.9.88.9c.15-.17.29-.34.4-.52l-.83-.83.9-.92.56.57c-.27.67-.66 1.3-1.13 1.84.01-.02.47-.54 0 0zm-9.77-.15l.07.06-.07-.06zm0-8.16l.07-.07-.07.07z"/><path d="M12.4 11.02l-.05.07.06-.06v-.01zm.01-7.63l-.06-.06.06.07v-.01z"/></svg>