<?xml version="1.0" encoding="utf-8"?>
<!-- Generator: Adobe Illustrator 23.0.3, SVG Export Plug-In . SVG Version: 6.00 Build 0)  -->
<svg version="1.1" id="Layer_1" xmlns="http://www.w3.org/2000/svg" xmlns:xlink="http://www.w3.org/1999/xlink" x="0px" y="0px"
	 viewBox="0 0 16.728 32" style="enable-background:new 0 0 16.728 32;" xml:space="preserve">
<style type="text/css">
	.st0{fill:#231F20;}
</style>
<path id="Combined-Shape" class="st0" d="M11.536,17.607L14,25H0L6,7h2l3.142,9.426l2.066-2.95
	c-0.579-0.677-0.652-1.684-0.118-2.447c0.634-0.905,1.881-1.125,2.785-0.491c0.905,0.634,1.125,1.881,0.491,2.785
	c-0.535,0.763-1.506,1.039-2.34,0.726L11.536,17.607z M10.813,18.639L7.059,24h5.528L10.813,18.639z M5.838,24l4.583-6.545L8.616,12
	H5.384L1.413,24H5.838z M8.285,11L7.292,8H6.708l-0.993,3H8.285z"/>
</svg>
