<?xml version="1.0" encoding="utf-8"?>
<!-- Generator: Adobe Illustrator 23.0.2, SVG Export Plug-In . SVG Version: 6.00 Build 0)  -->
<svg version="1.1" id="Layer_1" xmlns="http://www.w3.org/2000/svg" xmlns:xlink="http://www.w3.org/1999/xlink" x="0px" y="0px"
	 viewBox="0 0 20.173 32" enable-background="new 0 0 20.173 32" xml:space="preserve">
<path fill-rule="evenodd" clip-rule="evenodd" d="M16.012,25.617c-0.08,0-0.159-0.018-0.233-0.057l-5.692-2.993L4.395,25.56
	c-0.168,0.089-0.372,0.074-0.527-0.038c-0.154-0.112-0.231-0.302-0.199-0.49l1.088-6.337l-4.606-4.489
	c-0.136-0.133-0.185-0.332-0.127-0.513c0.059-0.181,0.216-0.313,0.404-0.34l6.364-0.924l2.847-5.768
	c0.084-0.17,0.258-0.278,0.448-0.278c0.19,0,0.364,0.108,0.448,0.278l2.846,5.768l6.364,0.924c0.188,0.027,0.345,0.159,0.404,0.34
	c0.058,0.181,0.009,0.38-0.127,0.513l-4.605,4.489l1.088,6.337c0.032,0.188-0.045,0.378-0.199,0.49
	C16.219,25.585,16.115,25.617,16.012,25.617 M10.087,21.503c0.08,0,0.16,0.02,0.232,0.058l5.029,2.642l-0.961-5.597
	c-0.028-0.164,0.026-0.329,0.144-0.444l4.068-3.965l-5.622-0.816c-0.162-0.024-0.304-0.126-0.376-0.274l-2.514-5.094l-2.515,5.094
	c-0.072,0.148-0.214,0.25-0.376,0.274l-5.622,0.816l4.069,3.965c0.118,0.115,0.172,0.28,0.144,0.444l-0.961,5.597l5.029-2.642
	C9.927,21.523,10.007,21.503,10.087,21.503"/>
</svg>
