<?xml version="1.0" encoding="utf-8"?>
<!-- Generator: Adobe Illustrator 23.0.2, SVG Export Plug-In . SVG Version: 6.00 Build 0)  -->
<svg version="1.1" id="Layer_1" xmlns="http://www.w3.org/2000/svg" xmlns:xlink="http://www.w3.org/1999/xlink" x="0px" y="0px"
	 viewBox="0 0 21.96 32" style="enable-background:new 0 0 21.96 32;" xml:space="preserve">
<style type="text/css">
	.st0{fill:#231F20;}
</style>
<path class="st0" d="M9.14,19.72c0.13,0,0.26-0.05,0.35-0.15l5.77-5.78c0.19-0.19,0.19-0.51,0-0.71c-0.2-0.19-0.51-0.19-0.71,0
	l-5.42,5.42L6.9,16.27c-0.19-0.2-0.51-0.2-0.71,0C6,16.47,6,16.78,6.19,16.98l2.59,2.59C8.88,19.67,9.01,19.72,9.14,19.72z
	 M10.98,5.01c6.07,0,10.99,4.92,10.99,10.99s-4.92,10.99-10.99,10.99S-0.01,22.07-0.01,16S4.91,5.01,10.98,5.01z"/>
</svg>
