<?xml version="1.0" encoding="utf-8"?>
<!-- Generator: Adobe Illustrator 23.0.2, SVG Export Plug-In . SVG Version: 6.00 Build 0)  -->
<svg version="1.1" id="Layer_1" xmlns="http://www.w3.org/2000/svg" xmlns:xlink="http://www.w3.org/1999/xlink" x="0px" y="0px"
	 viewBox="0 0 22 32" enable-background="new 0 0 22 32" xml:space="preserve">
<path fill-rule="evenodd" clip-rule="evenodd" d="M9.158,19.724c-0.128,0-0.256-0.049-0.354-0.146l-2.597-2.597
	c-0.195-0.195-0.195-0.512,0-0.707c0.195-0.196,0.512-0.196,0.707,0l2.244,2.243l5.427-5.427c0.195-0.195,0.511-0.195,0.707,0
	c0.195,0.196,0.195,0.512,0,0.707l-5.78,5.781C9.414,19.675,9.286,19.724,9.158,19.724z M11,6C5.485,6,1,10.486,1,16s4.485,10,10,10
	c5.514,0,10-4.486,10-10S16.514,6,11,6z M11,5c6.075,0,11,4.925,11,11s-4.925,11-11,11S0,22.075,0,16S4.925,5,11,5z"/>
</svg>
