<svg width="16" height="16" viewBox="0 0 16 16" xmlns="http://www.w3.org/2000/svg"><title>neck-circle-45c</title><path d="M15.23 4.6l-.02-.04A8.03 8.03 0 0 0 11.62.87l-.03-.01a8 8 0 1 0-6.16 14.7 8 8 0 0 0 9.8-10.97v.01zm-.95 1.17l-1.7 1.7-3.77-3.78 1.82-1.81a6.7 6.7 0 0 1 3.65 3.9zm-7.75.2l1.81-1.8 3.77 3.77-1.8 1.8-3.78-3.77zm3.3 4.25l-2.26 2.27L3.8 8.7l2.27-2.26 3.76 3.77zM1.33 8a6.67 6.67 0 0 1 8.61-6.37L1.63 9.95c-.2-.63-.3-1.29-.3-1.95zm.55 2.63L3.33 9.2l3.76 3.76-1.32 1.33a6.7 6.7 0 0 1-3.89-3.65zM8 14.67c-.51 0-1.01-.07-1.5-.18l8-7.98A6.63 6.63 0 0 1 8 14.67z"/><circle transform="rotate(-45 11.82 4.47)" cx="11.82" cy="4.47" r="1"/><circle transform="rotate(-45 6.8 9.48)" cx="6.8" cy="9.48" r="1"/></svg>