<svg width="16" height="16" viewBox="0 0 16 16" xmlns="http://www.w3.org/2000/svg"><title>neck-45c</title><path d="M11.71.12L0 11.83l4.04 4.05L15.75 4.17 11.72.12zM1.01 11.63l1.93-1.92 3.23 3.24-1.93 1.92-3.23-3.23zM3.36 9.3L4.9 7.75l3.23 3.23-1.55 1.56L3.35 9.3zM5.3 7.35L7.25 5.4l3.23 3.23-1.94 1.94L5.3 7.35zM7.65 5L9.2 3.45l3.23 3.24-1.55 1.54L7.65 5zM9.6 3.05l1.91-1.92 3.23 3.24-1.91 1.91L9.6 3.05z"/><circle transform="rotate(-45 12.17 3.7)" cx="12.17" cy="3.7" r="1"/><circle transform="rotate(-45 7.87 8)" cx="7.87" cy="8.01" r="1"/><circle transform="rotate(-45 3.57 12.3)" cx="3.57" cy="12.31" r="1"/></svg>