<?xml version="1.0" encoding="utf-8"?>
<!-- Generator: Adobe Illustrator 21.0.0, SVG Export Plug-In . SVG Version: 6.00 Build 0)  -->
<svg version="1.1" id="Layer_1" xmlns="http://www.w3.org/2000/svg" xmlns:xlink="http://www.w3.org/1999/xlink" x="0px" y="0px"
	 width="17.05px" height="32px" viewBox="0 0 17.05 32" style="enable-background:new 0 0 17.05 32;" xml:space="preserve">
<style type="text/css">
	.st0{fill-rule:evenodd;clip-rule:evenodd;fill:#666666;}
</style>
<path class="st0" d="M4.065,8.372v10.485c-0.393-0.218-0.839-0.353-1.319-0.353C1.232,18.504,0,19.737,0,21.25
	c0,1.514,1.232,2.747,2.746,2.747c1.489,0,2.697-1.193,2.739-2.671l0.001,0.001v-0.013c0.001-0.021,0.007-0.042,0.007-0.063
	s-0.006-0.042-0.007-0.063V9.556L15.63,7.704v9.262c-0.395-0.22-0.843-0.356-1.326-0.356c-1.514,0-2.746,1.233-2.746,2.746
	c0,1.514,1.232,2.747,2.746,2.747s2.746-1.233,2.746-2.747V6L4.065,8.372z"/>
</svg>
