<?xml version="1.0" encoding="utf-8"?>
<!-- Generator: Adobe Illustrator 20.0.0, SVG Export Plug-In . SVG Version: 6.00 Build 0)  -->
<svg version="1.1" id="Layer_1" xmlns="http://www.w3.org/2000/svg" xmlns:xlink="http://www.w3.org/1999/xlink" x="0px" y="0px"
	 viewBox="0 0 4.9 32" style="enable-background:new 0 0 4.9 32;" xml:space="preserve">
<path id="Fill-1" d="M1.8,10.1V8.6l1.2-0.7v1.5L1.8,10.1z M4.5,8.5L3.6,9V7.5l1.1-0.7c0.1-0.1,0.2-0.2,0.1-0.4
	C4.8,6.4,4.6,6.3,4.5,6.4L3.6,6.9V5.3C3.6,5.1,3.5,5,3.3,5C3.2,5,3.1,5.1,3.1,5.3v1.9L1.8,8V6.7c0-0.2-0.1-0.3-0.3-0.3
	c-0.2,0-0.3,0.1-0.3,0.3v1.6L0.1,9C0,9.1,0,9.2,0,9.4c0.1,0.1,0.1,0.1,0.2,0.1c0,0,0.1,0,0.1,0l0.8-0.5v1.5l-1.1,0.7
	C0,11.2,0,11.4,0,11.5c0.1,0.1,0.1,0.1,0.2,0.1c0,0,0.1,0,0.1,0l0.8-0.5v1.6c0,0.2,0.1,0.3,0.3,0.3c0.2,0,0.3-0.1,0.3-0.3v-1.9
	L3.1,10v2c0,0.2,0.1,0.3,0.3,0.3c0.2,0,0.3-0.1,0.3-0.3V9.7L4.8,9c0.1-0.1,0.2-0.2,0.1-0.4C4.8,8.5,4.6,8.4,4.5,8.5L4.5,8.5z"/>
</svg>
