<?xml version="1.0" encoding="utf-8"?>
<!-- Generator: Adobe Illustrator 20.0.0, SVG Export Plug-In . SVG Version: 6.00 Build 0)  -->
<svg version="1.1" id="Layer_1" xmlns="http://www.w3.org/2000/svg" xmlns:xlink="http://www.w3.org/1999/xlink" x="0px" y="0px"
	 viewBox="0 0 3.4 32" style="enable-background:new 0 0 3.4 32;" xml:space="preserve">
<title>note-flat</title>
<path id="Fill-1" d="M1.8,11.6l-1.2,0.6V9.9C1.1,9.3,1.6,9,2.1,9.2C2.5,9.3,2.8,9.6,2.8,10C2.8,10.7,2.4,11.3,1.8,11.6 M3.3,10
	c0-0.6-0.5-1.2-1.1-1.4C1.6,8.5,1,8.7,0.6,9.1V5.3C0.6,5.1,0.4,5,0.3,5C0.1,5,0,5.1,0,5.3v7.4h0v0.1l0,0l0,0l0,0l0,0l0,0l0,0l0,0
	l0,0h0.4l0,0l0,0c0,0,0.6-0.1,1.6-0.7C2.9,11.8,3.4,10.9,3.3,10"/>
</svg>
