<svg width="16" height="16" viewBox="0 0 16 16" xmlns="http://www.w3.org/2000/svg"><title>phone</title><path d="M3.45 0c-.07 0-.16 0-.24.03-.13.03-.26.08-.39.16-.37.25-1.29.92-1.7 1.8-.27.55-.38 5.54 3.17 9.76C7.35 15.4 11.04 16 12.35 16c.2 0 .33-.01.41-.03h.02l.06-.02c.76-.36 1.4-.9 1.9-1.58.51-.67.14-1.47-.05-1.9l-.08-.18c-.24-.58-3.13-1.48-3.37-1.5h-.04l-.16.02c-.4.08-.83.48-1.74 1.33a12.08 12.08 0 0 1-3.1-2.63c-.84-1-1.49-2.14-1.93-3.36 1.04-.97 1.47-1.4 1.5-1.86.02-.26-.48-3.4-1-3.71l-.16-.1C4.32.28 3.91 0 3.45 0"/></svg>