<?xml version="1.0" encoding="utf-8"?>
<!-- Generator: Adobe Illustrator 19.2.1, SVG Export Plug-In . SVG Version: 6.00 Build 0)  -->
<svg version="1.1" id="Layer_1" xmlns="http://www.w3.org/2000/svg" xmlns:xlink="http://www.w3.org/1999/xlink" x="0px" y="0px"
	 width="14px" height="32px" viewBox="0 0 14 32" style="enable-background:new 0 0 14 32;" xml:space="preserve">
<style type="text/css">
	.st0{fill-rule:evenodd;clip-rule:evenodd;}
</style>
<path class="st0" d="M2.453,8C2.376,8,2.295,8.009,2.215,8.025C2.079,8.056,1.949,8.109,1.824,8.191
	c-0.377,0.25-1.293,0.923-1.711,1.802c-0.258,0.548-0.377,5.541,3.173,9.761C6.349,23.399,10.038,24,11.351,24
	c0.19,0,0.329-0.013,0.412-0.031l0.018-0.003l0.056-0.016c0.875-0.332,1.619-1.211,1.898-1.577c0.519-0.676,0.148-1.474-0.05-1.902
	c-0.03-0.069-0.059-0.125-0.08-0.181c-0.237-0.585-3.128-1.48-3.366-1.496h-0.039c-0.05,0-0.104,0.006-0.157,0.016
	c-0.394,0.084-0.83,0.479-1.741,1.33c-1.029-0.501-2.437-1.837-3.099-2.628c-0.718-0.851-1.613-2.29-1.933-3.36
	c1.041-0.973,1.474-1.395,1.5-1.865c0.015-0.253-0.483-3.388-1.002-3.707C3.722,8.551,3.668,8.513,3.612,8.476
	C3.324,8.278,2.915,8,2.453,8"/>
</svg>
