<?xml version="1.0" encoding="utf-8"?>
<!-- Generator: Adobe Illustrator 19.2.1, SVG Export Plug-In . SVG Version: 6.00 Build 0)  -->
<svg version="1.1" id="Layer_1" xmlns="http://www.w3.org/2000/svg" xmlns:xlink="http://www.w3.org/1999/xlink" x="0px" y="0px"
	 width="31px" height="32px" viewBox="0 0 31 32" style="enable-background:new 0 0 31 32;" xml:space="preserve">
<style type="text/css">
	.st0{fill-rule:evenodd;clip-rule:evenodd;}
</style>
<g>
	<path class="st0" d="M25.501,10.5H5.5C2.467,10.5,0,12.967,0,16c0,3.032,2.467,5.5,5.5,5.5h20.001C28.533,21.5,31,19.032,31,16
		C31,12.967,28.533,10.5,25.501,10.5z M25.501,19.5H5.5C3.57,19.5,2,17.93,2,16s1.57-3.5,3.5-3.5h20.001C27.431,12.5,29,14.07,29,16
		S27.431,19.5,25.501,19.5z"/>
	<circle class="st0" cx="5.5" cy="16" r="1"/>
	<circle class="st0" cx="9.5" cy="16" r="1"/>
	<circle class="st0" cx="13.5" cy="16" r="1"/>
	<circle class="st0" cx="17.5" cy="16" r="1"/>
	<circle class="st0" cx="21.5" cy="16" r="1"/>
	<circle class="st0" cx="25.5" cy="16" r="1"/>
</g>
</svg>
