<svg width="16" height="16" viewBox="0 0 16 16" xmlns="http://www.w3.org/2000/svg"><title>picks</title><path d="M14.32 4c-1.22-1.35-3.4-1.84-5.05-1.84h-.15c-.13 0-.48 0-.96.05l-.61-.13c-2.5-1.3-4.88-.77-6.07 1.38C.36 5.48-.13 8.06.03 11.15v.09c.2 1.4 1.21 2.23 2.67 2.15l.08-.02c.2-.02.37-.05.53-.08.66 1.1 1.83 1.5 3.08 1l.08-.02.27-.14.61.7.06.05c.54.5 1.16.75 1.79.75.62 0 1.24-.25 1.79-.75l.06-.07c2.57-2.8 3.98-5.5 4.17-8.01a3.62 3.62 0 0 0-.9-2.8zm-.86 5.23a16.78 16.78 0 0 1-3.21 4.85c-.7.62-1.4.62-2.1 0-.76-.82-1.45-1.7-2.05-2.64-1.86-2.92-1.86-4.95-1.86-4.95 0-2.12 2.11-2.96 3.84-3.17.37-.05.74-.08 1.12-.08 1.97-.01 4.96.7 4.96 3.26a8.05 8.05 0 0 1-.69 2.73zm-8.55 4.16c-.33-.13-.58-.49-.73-.8-.91-2.32-1.67-5.4-.79-7.87.46-1.2 1.64-1.69 2.8-1.69-4.75 1.79-1.95 7.25.2 10.06l-.4.2c-.32.12-.74.23-1.08.1zm-3.8-2.3c-.13-2.52.12-5.68 1.72-7.73a2.61 2.61 0 0 1 2.35-.93c-4.14.86-2.9 6.97-1.91 9.77l-.64.11c-.82.04-1.37-.35-1.53-1.22h.01z"/></svg>