<svg width="16" height="16" viewBox="0 0 16 16" xmlns="http://www.w3.org/2000/svg"><title>pickup</title><g transform="translate(0 5)"><path d="M13.16.25H2.84A2.8 2.8 0 0 0 0 3a2.8 2.8 0 0 0 2.84 2.75h10.32A2.8 2.8 0 0 0 16 3 2.8 2.8 0 0 0 13.16.25zm0 4.5H2.84c-1 0-1.8-.78-1.8-1.75s.8-1.75 1.8-1.75h10.32c1 0 1.8.78 1.8 1.75s-.8 1.75-1.8 1.75z"/><ellipse cx="2.84" cy="3" rx="1" ry="1"/><ellipse cx="4.9" cy="3" rx="1" ry="1"/><ellipse cx="6.97" cy="3" rx="1" ry="1"/><ellipse cx="9.03" cy="3" rx="1" ry="1"/><ellipse cx="11.1" cy="3" rx="1" ry="1"/><ellipse cx="13.16" cy="3" rx="1" ry="1"/></g></svg>