<?xml version="1.0" encoding="utf-8"?>
<!-- Generator: Adobe Illustrator 19.2.1, SVG Export Plug-In . SVG Version: 6.00 Build 0)  -->
<svg version="1.1" id="Layer_1" xmlns="http://www.w3.org/2000/svg" xmlns:xlink="http://www.w3.org/1999/xlink" x="0px" y="0px"
	 width="20px" height="32px" viewBox="0 0 20 32" style="enable-background:new 0 0 20 32;" xml:space="preserve">
<path d="M18.803,10.009c-1.595-1.814-4.474-2.461-6.636-2.461h-0.191c-0.175,0-0.638,0.007-1.264,0.073
	c-0.245-0.063-0.515-0.124-0.802-0.178C6.634,5.69,3.507,6.407,1.936,9.281c-1.469,2.688-2.107,6.135-1.897,10.247l0.012,0.123
	c0.253,1.867,1.582,2.98,3.498,2.866l0.11-0.012c0.239-0.037,0.469-0.077,0.697-0.12c0.853,1.47,2.403,1.999,4.037,1.35l0.105-0.048
	c0.122-0.062,0.239-0.122,0.353-0.185c0.251,0.303,0.516,0.61,0.802,0.928l0.075,0.075c0.712,0.666,1.527,0.999,2.343,0.999
	c0.816,0,1.632-0.333,2.346-1.001l0.082-0.083c3.382-3.74,5.226-7.336,5.484-10.686C20.093,12.28,19.697,11.027,18.803,10.009z
	 M17.672,16.97c-0.987,2.421-2.506,4.577-4.22,6.474c-0.915,0.822-1.845,0.822-2.761,0c-0.985-1.089-1.893-2.265-2.682-3.521
	c-2.441-3.888-2.449-6.594-2.449-6.594c0-2.832,2.783-3.954,5.039-4.242h0.001c0.001,0,0.001,0,0.002,0
	c0.487-0.062,0.978-0.097,1.469-0.093c2.587-0.019,6.511,0.912,6.511,4.335C18.542,14.579,18.136,15.833,17.672,16.97z
	 M6.444,22.517C6.444,22.517,6.444,22.517,6.444,22.517c-0.43-0.168-0.761-0.642-0.967-1.057c-1.182-3.108-2.183-7.211-1.03-10.495
	c0.608-1.591,2.15-2.257,3.686-2.257c-6.239,2.386-2.575,9.669,0.244,13.415c-0.17,0.089-0.33,0.18-0.508,0.269
	C7.441,22.553,6.887,22.689,6.444,22.517z M1.459,19.454C1.287,16.093,1.618,11.88,3.705,9.151c0.775-0.969,1.922-1.373,3.093-1.248
	c-5.433,1.144-3.788,9.293-2.51,13.025c-0.277,0.051-0.55,0.105-0.841,0.149C2.365,21.129,1.646,20.616,1.459,19.454z"/>
</svg>
