<?xml version="1.0" encoding="utf-8"?>
<!-- Generator: Adobe Illustrator 23.0.2, SVG Export Plug-In . SVG Version: 6.00 Build 0)  -->
<svg version="1.1" id="Layer_1" xmlns="http://www.w3.org/2000/svg" xmlns:xlink="http://www.w3.org/1999/xlink" x="0px" y="0px"
	 viewBox="0 0 20 32" enable-background="new 0 0 20 32" xml:space="preserve">
<path fill-rule="evenodd" clip-rule="evenodd" d="M19,10.366c0-0.276,0.224-0.5,0.5-0.5s0.5,0.224,0.5,0.5v15
	c0,0.276-0.224,0.5-0.5,0.5h-15c-0.276,0-0.5-0.224-0.5-0.5s0.224-0.5,0.5-0.5H19V10.366z M17,8.366c0-0.276,0.224-0.5,0.5-0.5
	S18,8.09,18,8.366v15c0,0.276-0.224,0.5-0.5,0.5h-15c-0.276,0-0.5-0.224-0.5-0.5s0.224-0.5,0.5-0.5H17V8.366z M1,5.866h14
	c0.552,0,1,0.448,1,1v14c0,0.552-0.448,1-1,1H1c-0.552,0-1-0.448-1-1v-14C0,6.314,0.448,5.866,1,5.866z M1,6.866v14h14v-14H1z"/>
</svg>
