<?xml version="1.0" encoding="utf-8"?>
<!-- Generator: Adobe Illustrator 21.0.0, SVG Export Plug-In . SVG Version: 6.00 Build 0)  -->
<svg version="1.1" id="Layer_1" xmlns="http://www.w3.org/2000/svg" xmlns:xlink="http://www.w3.org/1999/xlink" x="0px" y="0px"
	 width="20.4909992px" height="32px" viewBox="0 0 20.4909992 32" style="enable-background:new 0 0 20.4909992 32;"
	 xml:space="preserve">
<style type="text/css">
	.st0{fill:#000002;}
</style>
<g>
	<path class="st0" d="M19.1130905,6.9346089c-1.2313633-1.5731416-4.8073063-2.8951364-8.804862-2.9337401
		c-3.9975567-0.0386035-7.5983171,1.2140875-8.8598757,2.763155C0.7078432,7.6734962-0.8406376,9.1026859,0.577358,13.8379116
		C1.9953983,18.5731392,5.9038172,24.56007,7.2597756,25.9424591c1.3559604,1.3822098,1.7255445,2.0468788,2.8166986,2.0574169
		c1.0912437,0.0105381,1.4735508-0.6468716,2.8559065-2.0026379c1.3824463-1.3559456,5.405756-7.2662811,6.9149323-11.9732399
		S19.8359432,7.8582125,19.1130905,6.9346089z M14.6651592,13.592742l-6.8619356,4.1369028
		c-0.09342,0.0563755-0.199749,0.0839882-0.3053379,0.0829697c-0.0965233-0.0009327-0.1932306-0.0255604-0.2802215-0.0748196
		c-0.1821771-0.1033363-0.2942066-0.2962399-0.2921953-0.5045242l0.0811768-8.406167
		c0.0020094-0.2080784,0.117743-0.3987818,0.3018842-0.498786c0.1845508-0.0997944,0.4089103-0.0918589,0.5852904,0.0196629
		l6.7807593,4.2692652c0.1689577,0.1067104,0.2707567,0.2920971,0.2688408,0.4904928S14.8361359,13.490344,14.6651592,13.592742z"/>
</g>
</svg>
