<?xml version="1.0" encoding="utf-8"?>
<!-- Generator: Adobe Illustrator 19.2.1, SVG Export Plug-In . SVG Version: 6.00 Build 0)  -->
<svg version="1.1" id="Layer_1" xmlns="http://www.w3.org/2000/svg" xmlns:xlink="http://www.w3.org/1999/xlink" x="0px" y="0px"
	 width="19px" height="32px" viewBox="0 0 19 32" style="enable-background:new 0 0 19 32;" xml:space="preserve">
<style type="text/css">
	.st0{fill-rule:evenodd;clip-rule:evenodd;}
</style>
<path class="st0" d="M5.845,19.093h7.307V17.63H5.845V19.093z M5.845,22.021h7.307v-1.462H5.845V22.021z M18.313,10.873h-2.234
	V7.002H2.924v3.871H0v7.741h2.924v6.346h13.155v-6.346H19v-7.741H18.313z M17.453,13.292c0,0.382-0.308,0.69-0.69,0.69
	s-0.69-0.308-0.69-0.69c0-0.382,0.308-0.69,0.69-0.69C17.141,12.602,17.453,12.914,17.453,13.292z M4.386,10.873h10.231V8.464H4.386
	V10.873z M14.614,23.494H4.386v-7.322h10.231v7.322H14.614z"/>
</svg>
