<?xml version="1.0" encoding="utf-8"?>
<!-- Generator: Adobe Illustrator 23.0.2, SVG Export Plug-In . SVG Version: 6.00 Build 0)  -->
<svg version="1.1" id="Layer_1" xmlns="http://www.w3.org/2000/svg" xmlns:xlink="http://www.w3.org/1999/xlink" x="0px" y="0px"
	 viewBox="0 0 22 32" enable-background="new 0 0 22 32" xml:space="preserve">
<path fill-rule="evenodd" clip-rule="evenodd" d="M0,16c0,6.075,4.925,11,11,11c6.076,0,11-4.925,11-11c0-6.076-4.924-11-11-11
	C4.925,5,0,9.924,0,16z M5.493,20.963c0.261-1.496,1.867-2.293,3.342-2.421c0.599-0.053,1.046-0.391,1.197-0.906
	c0.15-0.515-0.03-1.093-0.435-1.405c-1.126-0.868-1.301-1.808-1.391-2.776c-0.068-0.722,0.107-2.098,0.867-2.932
	c0.46-0.506,1.064-0.751,1.846-0.751h0.161c0.783,0,1.387,0.245,1.847,0.751c0.76,0.834,0.935,2.21,0.866,2.932
	c-0.09,0.968-0.264,1.908-1.389,2.775c-0.407,0.314-0.585,0.892-0.435,1.407c0.151,0.514,0.598,0.852,1.196,0.905
	c1.475,0.128,3.08,0.925,3.343,2.421c0.198,1.139,0.485,2.396,0.609,2.93C15.424,25.208,13.305,26,11,26s-4.424-0.792-6.117-2.107
	C5.007,23.359,5.293,22.102,5.493,20.963z M17.493,20.791c-0.306-1.748-2.011-3.052-4.241-3.245
	c-0.274-0.025-0.311-0.149-0.323-0.19c-0.036-0.125,0.015-0.279,0.085-0.334c1.442-1.111,1.673-2.376,1.775-3.473
	c0.073-0.774-0.069-2.542-1.123-3.7c-0.651-0.715-1.52-1.077-2.586-1.077h-0.161c-1.065,0-1.934,0.362-2.586,1.077
	c-1.053,1.158-1.195,2.926-1.123,3.7c0.103,1.097,0.333,2.362,1.777,3.474c0.07,0.054,0.121,0.208,0.085,0.333
	c-0.012,0.041-0.049,0.165-0.324,0.19c-2.231,0.193-3.935,1.497-4.24,3.245c-0.147,0.839-0.342,1.739-0.482,2.361
	C2.162,21.336,1,18.802,1,16C1,10.486,5.486,6,11,6s10,4.486,10,10c0,2.802-1.163,5.336-3.026,7.153
	C17.833,22.53,17.64,21.63,17.493,20.791z"/>
</svg>
