<?xml version="1.0" encoding="utf-8"?>
<!-- Generator: Adobe Illustrator 19.2.1, SVG Export Plug-In . SVG Version: 6.00 Build 0)  -->
<svg version="1.1" id="Layer_1" xmlns="http://www.w3.org/2000/svg" xmlns:xlink="http://www.w3.org/1999/xlink" x="0px" y="0px"
	 width="24px" height="32px" viewBox="0 0 24 32" style="enable-background:new 0 0 24 32;" xml:space="preserve">
<path d="M12,4C5.373,4,0,9.373,0,16c0,6.627,5.373,12,12,12s12-5.373,12-12C24,9.373,18.627,4,12,4z M11.689,22.5
	c-0.905,0-1.615-0.709-1.615-1.613c0-0.904,0.71-1.613,1.615-1.613c0.905,0,1.615,0.709,1.615,1.613
	C13.304,21.791,12.594,22.5,11.689,22.5z M14.93,15.26c-0.354,0.39-1.01,0.904-2.02,1.046v1.489h-2.588v-3.261
	c0.78,0.177,1.737,0.089,2.269-0.372c0.319-0.284,0.532-0.727,0.532-1.223c0-0.354-0.124-0.673-0.337-0.904
	c-0.266-0.284-0.603-0.337-0.851-0.337c-0.461,0-0.744,0.177-0.904,0.337c-0.195,0.213-0.319,0.638-0.301,0.992H8
	c0.018-1.081,0.479-1.932,0.975-2.446C9.418,10.12,10.286,9.5,11.899,9.5c1.382,0,2.322,0.479,2.924,1.063
	c0.709,0.691,0.992,1.595,0.992,2.446C15.816,13.984,15.408,14.746,14.93,15.26z"/>
</svg>
