<svg width="16" height="16" viewBox="0 0 16 16" xmlns="http://www.w3.org/2000/svg"><title>question-mark-circle-fill</title><path d="M8 0a8 8 0 1 0 0 16A8 8 0 0 0 8 0zm-.2 12.33a1.08 1.08 0 0 1-.01-2.15c.6 0 1.08.47 1.08 1.08 0 .6-.47 1.07-1.08 1.07zm2.15-4.82c-.23.26-.67.6-1.34.7v.99H6.88V7.02c.52.12 1.16.07 1.51-.25.22-.18.36-.48.36-.81a.89.89 0 0 0-.22-.6.73.73 0 0 0-.57-.23c-.31 0-.5.12-.6.23a.93.93 0 0 0-.2.66H5.32c.02-.72.32-1.29.65-1.63.52-.5 1.23-.77 1.95-.72.92 0 1.55.32 1.95.7.86.86.9 2.24.07 3.14z"/></svg>