<svg width="16" height="16" viewBox="0 0 16 16" xmlns="http://www.w3.org/2000/svg"><title>question-mark</title><path d="M5.69 13.91c0 1.17.91 2.09 2.09 2.09 1.18 0 2.08-.92 2.08-2.09s-.91-2.09-2.08-2.09-2.1.92-2.1 2.1l.01-.01zm3.67-3.17V8.82a4.32 4.32 0 0 0 3.76-4.27c0-1.1-.36-2.28-1.28-3.17C11.06.62 9.84 0 8.05 0 5.96 0 4.84.8 4.26 1.4c-.8.86-1.25 2-1.26 3.17h3.54c-.03-.46.1-.92.39-1.29.2-.2.57-.43 1.17-.43.32 0 .75.07 1.1.43.27.3.43.71.43 1.17 0 .65-.27 1.22-.68 1.59-.7.6-1.93.7-2.94.48v4.22h3.35z"/></svg>