<?xml version="1.0" encoding="utf-8"?>
<!-- Generator: Adobe Illustrator 19.2.1, SVG Export Plug-In . SVG Version: 6.00 Build 0)  -->
<svg version="1.1" id="Layer_1" xmlns="http://www.w3.org/2000/svg" xmlns:xlink="http://www.w3.org/1999/xlink" x="0px" y="0px"
	 width="24px" height="32px" viewBox="0 0 24 32" style="enable-background:new 0 0 24 32;" xml:space="preserve">
<style type="text/css">
	.st0{fill:#010101;}
</style>
<path class="st0" d="M16.94,3.979L0,20.921l7.058,7.059l16.94-16.943L16.94,3.979z M19.764,13.156l-0.706,0.706l-1.059-1.059
	l-0.706,0.706l1.059,1.059l-0.706,0.706l-2.471-2.471l-0.706,0.706l2.47,2.471l-0.706,0.706l-1.059-1.059l-0.706,0.706l1.059,1.059
	l-0.706,0.706l-2.471-2.471l-0.706,0.706l2.471,2.471l-0.706,0.706l-1.059-1.059l-0.706,0.706l1.059,1.059L12,20.92l-2.471-2.471
	l-0.706,0.706l2.471,2.471l-0.706,0.706l-1.059-1.059l-0.706,0.707l1.059,1.059l-0.706,0.706l-2.472-2.471l-0.706,0.706L8.47,24.45
	l-0.706,0.706l-1.059-1.058l-0.706,0.706l-3.882-3.882L16.94,6.097l3.882,3.882l-0.706,0.706l1.059,1.059l-0.706,0.706L17.999,9.98
	l-0.706,0.706L19.764,13.156z"/>
</svg>
