<svg width="16" height="16" viewBox="0 0 16 16" xmlns="http://www.w3.org/2000/svg"><title>ruler-45c</title><path d="M11.3.63L0 11.47l4.7 4.52L16 5.15 11.3.63zm1.87 5.87l-.46.45-.71-.68-.47.45.7.68-.46.45-1.65-1.58-.47.45 1.64 1.59-.46.45-.72-.68-.46.45.7.68-.46.45-1.66-1.58-.46.45 1.64 1.58-.47.46-.7-.68-.47.45.7.68-.47.45-1.65-1.58-.46.45 1.64 1.58-.47.45-.7-.68-.47.46.7.68-.47.44-1.65-1.58-.47.46 1.65 1.58-.47.45-.71-.68-.48.45-2.58-2.48 9.88-9.49 2.59 2.49-.47.45.71.67-.47.46L12 4.47l-.47.45 1.64 1.58z"/></svg>