<?xml version="1.0" encoding="utf-8"?>
<!-- Generator: Adobe Illustrator 23.0.2, SVG Export Plug-In . SVG Version: 6.00 Build 0)  -->
<svg version="1.1" id="Layer_1" xmlns="http://www.w3.org/2000/svg" xmlns:xlink="http://www.w3.org/1999/xlink" x="0px" y="0px"
	 viewBox="0 0 16.88 32" style="enable-background:new 0 0 16.88 32;" xml:space="preserve">
<style type="text/css">
	.st0{fill:#231F20;}
</style>
<path class="st0" d="M1.869,9.427c-2.492,2.493-2.492,6.546-0.001,9.038c2.372,2.372,6.157,2.48,8.665,0.335l5.494,5.494
	c0.195,0.195,0.512,0.195,0.707,0c0.195-0.196,0.195-0.512,0-0.707l-5.493-5.494c0.991-1.155,1.536-2.608,1.536-4.147
	c-0.001-1.706-0.665-3.312-1.872-4.519C8.413,6.937,4.36,6.937,1.869,9.427 M11.777,13.946c0,1.439-0.561,2.792-1.578,3.81
	l-0.001,0.001c-2.103,2.102-5.522,2.102-7.623,0.001c-2.102-2.102-2.102-5.521,0.001-7.624c2.1-2.1,5.52-2.1,7.622,0
	C11.215,11.153,11.776,12.507,11.777,13.946"/>
</svg>
