<?xml version="1.0" encoding="utf-8"?>
<!-- Generator: Adobe Illustrator 23.0.2, SVG Export Plug-In . SVG Version: 6.00 Build 0)  -->
<svg version="1.1" id="Layer_1" xmlns="http://www.w3.org/2000/svg" xmlns:xlink="http://www.w3.org/1999/xlink" x="0px" y="0px"
	 viewBox="0 0 21.521 32" enable-background="new 0 0 21.521 32" xml:space="preserve">
<path fill-rule="evenodd" clip-rule="evenodd" d="M13.729,25.726c-0.16,0-0.312-0.076-0.408-0.21l-1.209-1.699H9.474l-1.209,1.699
	c-0.125,0.174-0.348,0.247-0.55,0.189c-1.608-0.478-3.107-1.346-4.336-2.511c-0.155-0.148-0.2-0.377-0.111-0.572l0.864-1.89
	l-1.319-2.285L0.742,18.25c-0.213-0.02-0.388-0.174-0.438-0.382C0.103,17.021,0,16.178,0,15.363c0-0.815,0.103-1.658,0.304-2.505
	c0.05-0.209,0.225-0.363,0.438-0.383l2.071-0.197l1.319-2.284l-0.864-1.89C3.179,7.909,3.224,7.68,3.379,7.532
	c1.229-1.165,2.728-2.033,4.336-2.511c0.203-0.059,0.426,0.015,0.55,0.189l1.209,1.699h2.638l1.209-1.699
	c0.124-0.174,0.346-0.25,0.55-0.189c1.607,0.478,3.107,1.346,4.337,2.511c0.155,0.148,0.2,0.377,0.111,0.572l-0.865,1.89
	l1.319,2.284l2.071,0.197c0.213,0.02,0.388,0.174,0.438,0.382c0.202,0.846,0.305,1.689,0.305,2.506s-0.103,1.66-0.305,2.505
	c-0.05,0.208-0.226,0.362-0.438,0.382l-2.071,0.197l-1.319,2.285l0.865,1.89c0.089,0.195,0.044,0.424-0.111,0.572
	c-1.23,1.165-2.73,2.033-4.337,2.511C13.824,25.719,13.776,25.726,13.729,25.726z M4.329,22.707c0.974,0.858,2.114,1.52,3.332,1.932
	l1.148-1.612c0.093-0.132,0.245-0.21,0.407-0.21h3.154c0.162,0,0.314,0.078,0.407,0.21l1.148,1.612
	c1.218-0.412,2.358-1.073,3.333-1.932l-0.82-1.794c-0.068-0.147-0.059-0.318,0.022-0.458l1.577-2.731
	c0.08-0.14,0.225-0.233,0.385-0.248l1.965-0.187c0.133-0.652,0.2-1.299,0.2-1.926c0-0.627-0.067-1.274-0.2-1.927l-1.965-0.187
	c-0.16-0.015-0.305-0.108-0.385-0.248l-1.577-2.73c-0.081-0.14-0.09-0.311-0.022-0.458l0.82-1.794
	c-0.975-0.859-2.115-1.52-3.333-1.932l-1.148,1.612c-0.093,0.132-0.245,0.21-0.407,0.21H9.216c-0.162,0-0.314-0.078-0.407-0.21
	L7.661,6.087C6.443,6.499,5.303,7.161,4.329,8.019l0.819,1.794c0.068,0.147,0.059,0.318-0.022,0.458l-1.577,2.73
	c-0.08,0.14-0.225,0.233-0.385,0.248L1.2,13.436C1.067,14.09,1,14.737,1,15.363c0,0.626,0.067,1.273,0.2,1.926l1.964,0.187
	c0.16,0.015,0.305,0.108,0.385,0.248l1.577,2.731c0.081,0.14,0.09,0.311,0.022,0.458L4.329,22.707z M10.793,20.425
	c-2.791,0-5.062-2.271-5.062-5.062s2.271-5.062,5.062-5.062s5.062,2.271,5.062,5.062S13.584,20.425,10.793,20.425z M10.793,11.301
	c-2.239,0-4.062,1.822-4.062,4.062s1.823,4.062,4.062,4.062s4.062-1.822,4.062-4.062S13.032,11.301,10.793,11.301z"/>
</svg>
