<svg width="16" height="16" viewBox="0 0 16 16" xmlns="http://www.w3.org/2000/svg"><title>share</title><path d="M12.96 10.16a2.8 2.8 0 0 0-2.24 1.12L5.76 8.72c.08-.24.08-.48.08-.72 0-.32-.08-.56-.16-.8l4.96-2.56A2.87 2.87 0 1 0 12.96.08a2.87 2.87 0 0 0-2.88 2.88c0 .24.08.48.08.72L5.2 6.24a3.09 3.09 0 0 0-2.32-1.12 2.87 2.87 0 0 0-.9 5.61A2.87 2.87 0 0 0 5.2 9.68l4.96 2.56c-.08.24-.16.56-.16.8 0 1.6 1.28 2.88 2.88 2.88 1.6 0 2.88-1.28 2.88-2.88a2.75 2.75 0 0 0-2.8-2.88"/><path d="M12.96 10.16a2.8 2.8 0 0 0-2.24 1.12L5.76 8.72c.08-.24.08-.48.08-.72 0-.32-.08-.56-.16-.8l4.96-2.56A2.87 2.87 0 1 0 12.96.08a2.87 2.87 0 0 0-2.88 2.88c0 .24.08.48.08.72L5.2 6.24a3.09 3.09 0 0 0-2.32-1.12 2.87 2.87 0 0 0-.9 5.61A2.87 2.87 0 0 0 5.2 9.68l4.96 2.56c-.08.24-.16.56-.16.8 0 1.6 1.28 2.88 2.88 2.88 1.6 0 2.88-1.28 2.88-2.88a2.75 2.75 0 0 0-2.8-2.88"/></svg>