<?xml version="1.0" encoding="utf-8"?>
<!-- Generator: Adobe Illustrator 23.0.2, SVG Export Plug-In . SVG Version: 6.00 Build 0)  -->
<svg version="1.1" id="Layer_1" xmlns="http://www.w3.org/2000/svg" xmlns:xlink="http://www.w3.org/1999/xlink" x="0px" y="0px"
	 viewBox="0 0 21 32" style="enable-background:new 0 0 21 32;" xml:space="preserve">
<style type="text/css">
	.st0{fill:#231F20;}
</style>
<path class="st0" d="M5.535,15.75h14.929c0.714,0,0.714,1,0,1H5.535C4.822,16.75,4.822,15.75,5.535,15.75z M19.795,16.25
	l-3.641-3.641c-0.47-0.47,0.235-1.174,0.705-0.705l3.986,3.986c0.113,0.113,0.158,0.239,0.155,0.359
	c0.003,0.12-0.042,0.247-0.155,0.359l-3.986,3.986c-0.47,0.47-1.174-0.235-0.705-0.705L19.795,16.25z M1,24.75h10v-3h1v4H0V6.25h12
	v4h-1v-3H1V24.75z"/>
</svg>
