<?xml version="1.0" encoding="utf-8"?>
<!-- Generator: Adobe Illustrator 23.0.2, SVG Export Plug-In . SVG Version: 6.00 Build 0)  -->
<svg version="1.1" id="Layer_1" xmlns="http://www.w3.org/2000/svg" xmlns:xlink="http://www.w3.org/1999/xlink" x="0px" y="0px"
	 viewBox="0 0 18.101 32" enable-background="new 0 0 18.101 32" xml:space="preserve">
<path fill-rule="evenodd" clip-rule="evenodd" d="M9.051,26c-1.932,0-5.573-5.033-8.019-9.77c-1.3-2.517-1.374-4.956-0.211-6.866
	C2.124,7.227,4.865,6,8.343,6H9.76c3.476,0,6.218,1.227,7.52,3.364c1.163,1.91,1.089,4.349-0.211,6.866
	C14.623,20.967,10.981,26,9.051,26z M8.343,7c-3.12,0-5.551,1.052-6.667,2.885c-0.976,1.6-0.888,3.691,0.245,5.887
	C4.873,21.489,8.063,25,9.051,25c0.986,0,4.177-3.511,7.13-9.228c1.132-2.196,1.22-4.287,0.245-5.887C15.31,8.052,12.88,7,9.76,7
	H8.343z"/>
</svg>
