<svg width="16" height="16" viewBox="0 0 16 16" xmlns="http://www.w3.org/2000/svg"><title>sliders</title><path d="M12.72 2.94a1.96 1.96 0 0 0-3.84 0H0v.78h8.88a1.96 1.96 0 0 0 3.84 0H16v-.78h-3.28zM10.8 4.5c-.64 0-1.2-.54-1.2-1.17 0-.62.56-1.16 1.2-1.16.64 0 1.2.54 1.2 1.16 0 .63-.56 1.17-1.2 1.17zm0 6.22c-.96 0-1.76.7-1.92 1.56H0v.78h8.88a1.96 1.96 0 0 0 3.84 0H16v-.78h-3.28a1.96 1.96 0 0 0-1.92-1.56zm0 3.11a1.2 1.2 0 0 1-1.2-1.16c0-.63.56-1.17 1.2-1.17.64 0 1.2.54 1.2 1.17a1.2 1.2 0 0 1-1.2 1.16zM5.2 6.06c-.96 0-1.76.7-1.92 1.55H0v.78h3.28a1.96 1.96 0 0 0 3.84 0H16V7.6H7.12A1.96 1.96 0 0 0 5.2 6.06zm0 3.1A1.2 1.2 0 0 1 4 8c0-.62.56-1.17 1.2-1.17.64 0 1.2.55 1.2 1.17 0 .62-.56 1.17-1.2 1.17z"/></svg>