<svg width="16" height="16" viewBox="0 0 16 16" xmlns="http://www.w3.org/2000/svg"><title>snapchat</title><path d="M7.91 1.07a4 4 0 0 1 3.7 2.34c.33.72.24 2.02.18 3.06l-.03.55.04.05c.02.02.19.2.56.2h.02c.25 0 .53-.08.83-.22a.41.41 0 0 1 .17-.03c.07 0 .15.02.21.04h.01c.16.06.28.16.28.25 0 .06-.04.25-.6.47l-.23.07c-.36.11-.92.29-1.1.72-.11.24-.08.54.08.86.07.15 1.12 2.48 3.49 2.86l-.01.04c-.04.1-.3.41-1.88.66-.26.03-.31.3-.39.62l-.08.35c-.01.03-.02.04-.05.04h-.02c-.41 0-.81-.14-1.24-.14-.21 0-.43.03-.66.06-.5.07-.88.36-1.3.64a3.33 3.33 0 0 1-2.23.79c-.89 0-1.47-.4-2.03-.79-.42-.28-.82-.57-1.3-.64a4.19 4.19 0 0 0-.67-.06c-.42 0-.82.15-1.23.15-.06 0-.06 0-.07-.05l-.1-.35c-.06-.31-.12-.59-.37-.62-1.58-.25-1.84-.57-1.88-.66a.1.1 0 0 1-.01-.04c2.36-.38 3.42-2.71 3.5-2.86.15-.32.18-.62.07-.86-.19-.43-.74-.6-1.11-.72l-.22-.07c-.47-.19-.62-.37-.6-.49.03-.13.26-.26.46-.26.05 0 .08 0 .11.02.33.15.63.23.89.23.41 0 .6-.2.62-.22l.04-.05-.03-.54c-.07-1.04-.15-2.34.18-3.06A3.98 3.98 0 0 1 7.6 1.07h.31"/></svg>