<?xml version="1.0" encoding="utf-8"?>
<!-- Generator: Adobe Illustrator 23.0.2, SVG Export Plug-In . SVG Version: 6.00 Build 0)  -->
<svg version="1.1" id="Layer_1" xmlns="http://www.w3.org/2000/svg" xmlns:xlink="http://www.w3.org/1999/xlink" x="0px" y="0px"
	 viewBox="0 0 21 32" enable-background="new 0 0 21 32" xml:space="preserve">
<path fill-rule="evenodd" clip-rule="evenodd" d="M20.823,6.119c-0.112-0.096-0.26-0.136-0.405-0.112l-12,2
	C8.177,8.047,8,8.256,8,8.5v1v3v7.663c-0.825-0.827-2.079-1.367-3.5-1.367c-2.481,0-4.5,1.617-4.5,3.603S2.019,26,4.5,26
	c2.365,0,4.289-1.472,4.466-3.33C8.985,22.618,9,22.561,9,22.5v-9.576l11-1.834v7.3c-0.825-0.826-2.079-1.366-3.5-1.366
	c-2.481,0-4.5,1.616-4.5,3.602c0,1.987,2.019,3.602,4.5,3.602s4.5-1.615,4.5-3.602c0-0.026-0.009-0.05-0.01-0.077
	C20.992,20.533,21,20.518,21,20.5v-10v-3v-1C21,6.353,20.936,6.214,20.823,6.119z M4.5,25C2.57,25,1,23.833,1,22.399
	c0-1.435,1.57-2.603,3.5-2.603S8,20.964,8,22.399C8,23.833,6.43,25,4.5,25z M9,11.911V9.5V8.924L20,7.09V7.5v2.577L9,11.911z
	 M16.5,23.228c-1.93,0-3.5-1.167-3.5-2.602c0-1.434,1.57-2.602,3.5-2.602s3.5,1.168,3.5,2.602C20,22.061,18.43,23.228,16.5,23.228z"
	/>
</svg>
