<?xml version="1.0" encoding="utf-8"?>
<!-- Generator: Adobe Illustrator 23.0.2, SVG Export Plug-In . SVG Version: 6.00 Build 0)  -->
<svg version="1.1" id="Layer_1" xmlns="http://www.w3.org/2000/svg" xmlns:xlink="http://www.w3.org/1999/xlink" x="0px" y="0px"
	 viewBox="0 0 21 32" style="enable-background:new 0 0 21 32;" xml:space="preserve">
<style type="text/css">
	.st0{fill:#231F20;}
</style>
<path class="st0" d="M20.418,5.007l-12,2C8.177,7.047,8,7.256,8,7.5v1v3v9.663c-0.825-0.827-2.079-1.367-3.5-1.367
	c-2.481,0-4.5,1.617-4.5,3.603S2.019,27,4.5,27c2.365,0,4.289-1.472,4.466-3.33C8.985,23.618,9,23.561,9,23.5V11.924l11-1.834v9.3
	c-0.825-0.826-2.079-1.366-3.5-1.366c-2.481,0-4.5,1.616-4.5,3.602c0,1.987,2.019,3.602,4.5,3.602s4.5-1.615,4.5-3.602
	c0-0.026-0.009-0.05-0.01-0.077C20.992,21.533,21,21.518,21,21.5v-12v-3v-1c0-0.147-0.064-0.286-0.177-0.381
	C20.711,5.023,20.563,4.983,20.418,5.007z"/>
</svg>
