<svg width="16" height="16" viewBox="0 0 16 16" xmlns="http://www.w3.org/2000/svg"><title>speaker</title><circle cx="8" cy="8" r="2.4"/><path d="M8 3.2a4.8 4.8 0 1 0 0 9.6 4.8 4.8 0 0 0 0-9.6zm0 8.55a3.75 3.75 0 1 1 0-7.5 3.75 3.75 0 0 1 0 7.5z"/><path d="M8 0a8 8 0 1 0 0 16A8 8 0 0 0 8 0zm3.87 2.5a.25.25 0 1 1 .09.5.25.25 0 0 1-.09-.5zm-7.74 0a.25.25 0 1 1 .08.5.25.25 0 0 1-.08-.5zm0 11a.25.25 0 1 1-.09-.5.25.25 0 0 1 .09.5zm7.74 0a.25.25 0 1 1-.08-.5.25.25 0 0 1 .08.5zM8 13.52A5.52 5.52 0 1 1 8 2.48a5.52 5.52 0 0 1 0 11.04z"/></svg>