<svg height="32" viewBox="0 0 36 32" width="36" xmlns="http://www.w3.org/2000/svg"><path d="m32.0363115 26.4207934 3.0008754-.8363332-.2680752-1.0406191-3.0535712.8510789c-.1886431-.5353583-.4001383-1.0398784-.6243866-1.5082412l2.7520918-1.6526015-.5178946-.9329549-2.7304697 1.6396063c-.2997315-.5222285-.6078788-.9795488-.9041145-1.360043l2.1665473-2.2534067-.7324325-.7617292-2.1330135 2.2185286c-.4469431-.4622355-.8702571-.8298693-1.2167286-1.1037094l1.4664185-2.6417114-.8969287-.5386576-1.429648 2.5753892-.5149814.9221818c.040331.0205364 4.1474293 2.2122667 4.9645375 8.1239664l.0638305.4784626h3.771632v-.9426508h-2.8812418c-.0773605-.4242602-.1729768-.8368045-.2824467-1.2365558zm-17.7363115-2.2207934 7.7 4.4-.0456096-2.4745467zm-5.5 4.4h3.3v-1.1h-3.3zm1.5870849-7.7 2.8129151 2.1718819-.4870849 1.1281181-2.8129151-2.1718819zm3.9129151-3.9129151 1.1280903-.4870849 2.1719097 2.8129151-1.1280903.4870849zm6.6 2.8129151h1.1v-4.4h-1.1zm-16.5 8.8h2.61614375c0-3.9181072 1.5585625-7.7834918 4.38865625-10.6131213 2.8300937-2.8296295 6.59285-4.4018903 10.5952-4.4018903s7.7651062 1.5751478 10.5952 4.4047773c2.8300937 2.8295608 4.3886562 6.6921271 4.3886562 10.6102343h2.6161438c0-9.7608986-7.8797813-17.6-17.6-17.6-9.7202188 0-17.6 7.8391014-17.6 17.6z" transform="translate(-4 -7)"/></svg>