<?xml version="1.0" encoding="utf-8"?>
<!-- Generator: Adobe Illustrator 23.0.2, SVG Export Plug-In . SVG Version: 6.00 Build 0)  -->
<svg version="1.1" id="Layer_1" xmlns="http://www.w3.org/2000/svg" xmlns:xlink="http://www.w3.org/1999/xlink" x="0px" y="0px"
	 viewBox="0 0 21.989 32" enable-background="new 0 0 21.989 32" xml:space="preserve">
<path fill-rule="evenodd" clip-rule="evenodd" d="M11.001,5C4.925,5,0,9.925,0,16s4.925,11,11.001,11c6.075,0,11-4.925,11-11
	S17.076,5,11.001,5 M20.905,14.687h-3.452c-0.523-2.582-2.557-4.616-5.14-5.138V6.096C16.777,6.685,20.315,10.223,20.905,14.687
	 M11.001,21.584c-3.079,0-5.584-2.505-5.584-5.584c0-3.078,2.505-5.583,5.584-5.583s5.583,2.505,5.583,5.583
	C16.584,19.079,14.08,21.584,11.001,21.584 M9.688,6.096v3.453c-2.582,0.522-4.616,2.556-5.139,5.138H1.097
	C1.687,10.224,5.224,6.685,9.688,6.096 M1.097,17.312h3.452c0.523,2.583,2.557,4.617,5.139,5.14v3.452
	C5.224,25.314,1.687,21.776,1.097,17.312 M12.313,25.904v-3.452c2.583-0.523,4.617-2.557,5.14-5.14h3.452
	C20.315,21.776,16.777,25.314,12.313,25.904"/>
</svg>
