<?xml version="1.0" encoding="utf-8"?>
<!-- Generator: Adobe Illustrator 23.0.2, SVG Export Plug-In . SVG Version: 6.00 Build 0)  -->
<svg version="1.1" id="Layer_1" xmlns="http://www.w3.org/2000/svg" xmlns:xlink="http://www.w3.org/1999/xlink" x="0px" y="0px"
	 viewBox="0 0 27.61 32" enable-background="new 0 0 27.61 32" xml:space="preserve">
<path fill-rule="evenodd" clip-rule="evenodd" d="M4.151,22.783c0-0.185-0.037-0.33-0.112-0.434s-0.186-0.184-0.335-0.237
	c-0.09-0.035-0.215-0.054-0.373-0.058s-0.37-0.006-0.636-0.006H2.421v1.5h0.08c0.388,0,0.656-0.003,0.805-0.008
	c0.149-0.005,0.3-0.042,0.454-0.109c0.136-0.059,0.235-0.145,0.297-0.259C4.12,23.057,4.151,22.927,4.151,22.783z M4.429,25.662
	c0-0.202-0.043-0.36-0.13-0.475c-0.086-0.114-0.216-0.201-0.389-0.259c-0.105-0.038-0.249-0.059-0.433-0.064
	c-0.184-0.004-0.43-0.007-0.738-0.007H2.421v1.639h0.093c0.45,0,0.762-0.003,0.935-0.009c0.173-0.006,0.349-0.045,0.527-0.119
	c0.157-0.064,0.272-0.159,0.345-0.283C4.393,25.962,4.429,25.82,4.429,25.662z M6.21,25.693c0,0.325-0.065,0.611-0.194,0.857
	c-0.13,0.246-0.304,0.45-0.523,0.611c-0.259,0.193-0.544,0.331-0.854,0.413c-0.31,0.082-0.704,0.123-1.182,0.123H0.9
	c-0.11,0-0.2-0.09-0.2-0.2v-6.44c0-0.11,0.09-0.2,0.2-0.2h2.234c0.318,0,0.71,0,1.177,0c1.323,0,1.56,1.095,1.56,1.817
	c0,1.156-0.77,1.285-1.066,1.402v0.035c0.426,0.085,0.767,0.259,1.023,0.521C6.082,24.894,6.21,25.248,6.21,25.693z M3.756,16.321
	l-0.668-2.158L2.42,16.321H3.756z M0.003,19.003l2.21-6.7h1.793l2.21,6.7H4.525l-0.409-1.44H2.06l-0.409,1.44H0.003z M2.241,10.847
	v-5H0V4.303h6.12v1.543H3.885v5H2.241z M12.61,26.697h-2v-21h2h15v1h-15v3h15v1h-15v3h15v1h-15v3h15v1h-15v3h15v1h-15v3h15v1H12.61z
	"/>
</svg>
