<?xml version="1.0" encoding="utf-8"?>
<!-- Generator: Adobe Illustrator 21.0.0, SVG Export Plug-In . SVG Version: 6.00 Build 0)  -->
<svg version="1.1" id="Layer_1" xmlns="http://www.w3.org/2000/svg" xmlns:xlink="http://www.w3.org/1999/xlink" x="0px" y="0px"
	 width="15px" height="32px" viewBox="0 0 15 32" style="enable-background:new 0 0 15 32;" xml:space="preserve">
<style type="text/css">
	.st0{fill-rule:evenodd;clip-rule:evenodd;fill:#666666;}
</style>
<path class="st0" d="M13.903,15.372c0.329-0.312,0.532-0.739,0.532-1.21c0-0.954-0.83-1.727-1.854-1.727H6.73V7.582
	C6.73,6.712,5.965,6,5.031,6H4.834C3.899,6,3.135,6.712,3.135,7.582v2.312l-2.683,3.824c-0.074,0.106-0.139,0.216-0.195,0.329
	c-0.056,0.114-0.103,0.231-0.142,0.35C0.039,14.637,0,14.886,0,15.138v5.407v1.488v0.707C0,22.741,0.479,24,1.722,24h7.425h1.515
	c1.024,0,1.854-0.773,1.854-1.727c0-0.369-0.125-0.711-0.337-0.991c0.913-0.107,1.62-0.832,1.62-1.712
	c0-0.387-0.138-0.743-0.369-1.031c0.803-0.189,1.399-0.865,1.399-1.673C14.828,16.227,14.456,15.671,13.903,15.372z"/>
</svg>
