<?xml version="1.0" encoding="utf-8"?>
<!-- Generator: Adobe Illustrator 23.0.2, SVG Export Plug-In . SVG Version: 6.00 Build 0)  -->
<svg version="1.1" id="Layer_1" xmlns="http://www.w3.org/2000/svg" xmlns:xlink="http://www.w3.org/1999/xlink" x="0px" y="0px"
	 viewBox="0 0 19.684 32" enable-background="new 0 0 19.684 32" xml:space="preserve">
<path fill-rule="evenodd" clip-rule="evenodd" d="M4.833,25.83l-0.314-0.158c-1.006-0.506-1.915-1.16-2.699-1.945
	c-0.614-0.614-1.163-1.332-1.631-2.132L0,21.271l0.259-0.272c3.663-3.851,3.961-4.841,3.983-5.001
	c0.041-0.296,0.056-0.569,0.047-0.889C3.91,12.711,4.727,10.194,6.48,8.443c1.437-1.437,3.357-2.244,5.407-2.272l0.07-0.001
	l0.068,0.018c0.622,0.17,1.241,0.404,1.835,0.695l0.629,0.307l-4.462,4.461l0.906,3.38l3.379,0.905l4.344-4.342l0.286,0.691
	c0.38,0.919,0.627,1.895,0.735,2.899l0.007,0.071l-0.012,0.069c-0.28,1.595-1.025,3.033-2.151,4.16
	c-1.753,1.752-4.265,2.569-6.73,2.185c-0.135,0-0.442-0.001-0.825,0.053c-0.157,0.022-1.126,0.311-4.878,3.868L4.833,25.83z
	 M1.247,21.41c0.379,0.599,0.809,1.14,1.28,1.611c0.628,0.628,1.345,1.164,2.133,1.597c3.954-3.717,4.863-3.844,5.166-3.886
	c0.347-0.05,0.683-0.069,1.056-0.057c2.209,0.343,4.403-0.37,5.932-1.898c0.964-0.965,1.607-2.193,1.861-3.557
	c-0.072-0.628-0.204-1.244-0.395-1.836l-3.669,3.668l-4.495-1.204l-1.204-4.496l3.86-3.859c-0.31-0.125-0.626-0.232-0.942-0.321
	c-1.761,0.042-3.407,0.743-4.643,1.978c-1.527,1.528-2.239,3.721-1.904,5.868c0.016,0.435-0.002,0.771-0.051,1.12
	C5.189,16.445,5.059,17.368,1.247,21.41z"/>
</svg>
