<svg width="16" height="16" viewBox="0 0 16 16" xmlns="http://www.w3.org/2000/svg"><title>tube</title><path d="M9.57 4.86l-1.47.28 1-2.92-3.07 3.35 1.46-.3-1 2.93z"/><path d="M11.66 9.21l-.29-.01V4.02a4.4 4.4 0 0 0-.75-2.52l-.1-.14a3.58 3.58 0 0 0-.79-.75 3.06 3.06 0 0 0-4.16.66 4.13 4.13 0 0 0-.82 1.78c-.07.32-.1.64-.1.97v5.17l-.3.02a1.4 1.4 0 0 0-.35 1v2.59h.89v2.27a.29.29 0 1 0 .57 0V12.8h.85v1.7a.29.29 0 1 0 .58 0v-1.7h.85v2.85a.29.29 0 0 0 .57 0V12.8h.86v1.7a.29.29 0 1 0 .57 0v-1.7h.86v2.27a.29.29 0 1 0 .57 0V12.8H12v-2.58c0-.45-.13-.77-.34-1zm-6.44-.36V4.02A3.58 3.58 0 0 1 6 1.64c.31-.4.73-.7 1.21-.87a2.4 2.4 0 0 1 2.45.52c.14.12.27.26.4.42l.03.04.05.07c.44.65.67 1.42.66 2.2v5.17H5.2v-.34z"/></svg>