<?xml version="1.0" encoding="utf-8"?>
<!-- Generator: Adobe Illustrator 23.0.2, SVG Export Plug-In . SVG Version: 6.00 Build 0)  -->
<svg version="1.1" id="Layer_1" xmlns="http://www.w3.org/2000/svg" xmlns:xlink="http://www.w3.org/1999/xlink" x="0px" y="0px"
	 viewBox="0 0 22 32" enable-background="new 0 0 22 32" xml:space="preserve">
<path fill-rule="evenodd" clip-rule="evenodd" d="M9.588,19.586c-0.709,0.804-1.481,0.599-2.016,0.126
	c-0.536-0.472-0.835-1.213-0.126-2.016L18.787,4.843l-1.071-0.945L6.375,16.751c-1.048,1.188-0.919,2.535-0.23,3.499l-4.433,5.024
	c-0.484-0.097-1.004,0.059-1.354,0.455c-0.522,0.591-0.465,1.494,0.126,2.016c0.592,0.522,1.494,0.465,2.016-0.126
	c0.35-0.396,0.44-0.933,0.283-1.401l4.434-5.024c1.042,0.564,2.395,0.524,3.443-0.663c0,0,3.78-4.285,5.671-6.427L22,7.678
	l-1.071-0.945L9.588,19.586z"/>
</svg>
