<svg width="16" height="16" viewBox="0 0 16 16" xmlns="http://www.w3.org/2000/svg"><title>twitter</title><path d="M15.76 2.39c-.58.26-1.2.43-1.86.52a3.33 3.33 0 0 0 1.43-1.85c-.63.39-1.31.66-2.05.82-1-1.12-2.6-1.4-3.9-.68a3.36 3.36 0 0 0-1.62 3.7A9.11 9.11 0 0 1 1.1 1.44a3.36 3.36 0 0 0 1 4.45 3.17 3.17 0 0 1-1.47-.41v.03a3.3 3.3 0 0 0 2.6 3.26c-.48.14-.98.16-1.47.06a3.24 3.24 0 0 0 3.02 2.3A6.35 6.35 0 0 1 0 12.53 8.96 8.96 0 0 0 4.96 14c5.95 0 9.2-5.07 9.2-9.47V4.1a6.66 6.66 0 0 0 1.6-1.72z"/></svg>