<?xml version="1.0" encoding="utf-8"?>
<!-- Generator: Adobe Illustrator 21.0.0, SVG Export Plug-In . SVG Version: 6.00 Build 0)  -->
<svg version="1.1" id="Layer_1" xmlns="http://www.w3.org/2000/svg" xmlns:xlink="http://www.w3.org/1999/xlink" x="0px" y="0px"
	 width="24px" height="32px" viewBox="0 0 24 32" style="enable-background:new 0 0 24 32;" xml:space="preserve">
<style type="text/css">
	.st0{fill:#666666;}
</style>
<g>
	<path class="st0" d="M9.715,22.158L12,24.443l2.285-2.285c0,0-0.925-0.963-2.285-0.963S9.715,22.158,9.715,22.158z"/>
	<path class="st0" d="M6.547,19.111l1.612,1.598c2.121-2.122,5.565-2.122,7.668,0l1.593-1.598C14.43,16.12,9.537,16.12,6.547,19.111
		z"/>
	<path class="st0" d="M3.285,15.831l1.593,1.593c3.935-3.935,10.313-3.935,14.248,0l1.593-1.593
		C15.916,11.008,8.084,11.008,3.285,15.831z"/>
	<path class="st0" d="M0,12.55l1.598,1.593c5.748-5.729,15.079-5.729,20.808,0L24,12.55C17.383,5.915,6.617,5.915,0,12.55z"/>
</g>
</svg>
