<?xml version="1.0" encoding="utf-8"?>
<!-- Generator: Adobe Illustrator 23.0.2, SVG Export Plug-In . SVG Version: 6.00 Build 0)  -->
<svg version="1.1" id="Layer_1" xmlns="http://www.w3.org/2000/svg" xmlns:xlink="http://www.w3.org/1999/xlink" x="0px" y="0px"
	 width="22px" height="32px" viewBox="0 0 22 32" style="enable-background:new 0 0 22 32;" xml:space="preserve">
<path d="M11.24,15.54l-3.89-3.89c-0.2-0.2-0.51-0.2-0.71,0s-0.2,0.51,0,0.71l3.89,3.89l-3.89,3.89c-0.2,0.2-0.2,0.51,0,0.71
	c0.2,0.2,0.51,0.2,0.71,0l3.89-3.89l3.89,3.89c0.2,0.2,0.51,0.2,0.71,0c0.2-0.2,0.2-0.51,0-0.71l-3.89-3.89l3.89-3.89
	c0.2-0.2,0.2-0.51,0-0.71c-0.2-0.2-0.51-0.2-0.71,0L11.24,15.54z M11,5c6.07,0,11,4.93,11,11s-4.93,11-11,11S0,22.08,0,16
	S4.92,5,11,5z"/>
</svg>
