<svg width="16" height="16" viewBox="0 0 16 16" xmlns="http://www.w3.org/2000/svg"><title>youtube</title><path d="M12.8 7.13C11.93 7 11 7 8 7c-2.07 0-3.07.07-3.2.07-1.33.06-2.2-.14-2.53 1.46-.14.87-.2 2-.2 2.87.06 1.87-.07 4.13 1.53 4.33.87.07 3 .14 4.47.14 1.93 0 4.06-.07 4.8-.2.33-.07.6-.47.66-.6.4-.67.47-1.6.47-3.67-.07-1.8.07-4.07-1.2-4.27zM5.53 9.2h-.86v4.87h-.74V9.2h-.8v-.87h2.4v.87zm2.14 4.93H7v-.46s-.33.53-.73.53c-.4 0-.54-.27-.54-.8V9.87h.67v3.46s0 .14.2.14.47-.27.47-.34v-3.2h.66v4.2h-.06zm2.66-.8s-.06.8-.53.8c-.47 0-.67-.26-.87-.46v.46h-.66V8.4h.66v1.87s.34-.47.67-.47.67.27.67.8v2.73h.06zm2.6 0c-.13.74-.93.8-.93.8-1.13 0-1.13-1.2-1.13-1.2v-2c0-.13.06-.4.06-.4.07-.26.14-.73 1-.73 1 0 1 1.13 1 1.13v1.2h-1.4V13c0 .27.14.47.4.47.27 0 .27-.47.27-.47v-.33h.67c.13-.07.13.13.06.66z"/><path d="M12.27 10.93s-.07-.46-.34-.46c-.26 0-.33.33-.33.46v.54h.67v-.54zm-2.94-.46c-.2 0-.33.13-.33.13v2.6c.13.13.33.13.33.13.27 0 .27-.33.27-.33v-2.13c.07-.27-.07-.4-.27-.4zm.6-4.54c.4 0 .87-.53.87-.53v.47h.8v-4.2h-.8v3.26c-.13.27-.47.34-.47.34-.26 0-.26-.2-.26-.2v-3.4h-.74v3.66c0 .34.2.6.6.6zm-5.4-.06h.8V3.6L6.4.2h-.87l-.6 2.2-.6-2.2H3.4l1.13 3.4v2.27zm2.87.06h.27c.4-.06.6-.26.73-.46.2-.34.2-.67.2-.67v-2c.07-.13.07-.4.07-.4-.2-.6-.67-.73-.94-.8h-.4c-.26.07-.73.27-.86.8 0 0-.07.27-.07.4v2s0 .33.2.67c.13.2.4.4.8.46zM7.13 2.8c0-.53.4-.53.4-.53.4 0 .34.53.34.53v2c0 .47-.34.47-.34.47-.06 0-.4 0-.4-.47v-2z"/></svg>