<?xml version="1.0" encoding="utf-8"?>
<!-- Generator: Adobe Illustrator 19.2.1, SVG Export Plug-In . SVG Version: 6.00 Build 0)  -->
<svg version="1.1" id="Layer_1" xmlns="http://www.w3.org/2000/svg" xmlns:xlink="http://www.w3.org/1999/xlink" x="0px" y="0px"
	 width="18px" height="32px" viewBox="0 0 18 32" style="enable-background:new 0 0 18 32;" xml:space="preserve">
<g>
	<path d="M16.2,14.7c-1.3-0.2-2.7-0.2-7.2-0.2c-3.1,0-4.6,0.1-4.8,0.1c-2,0.1-3.3-0.2-3.8,2.2c-0.2,1.3-0.3,3-0.3,4.3
		c0.1,2.8-0.1,6.2,2.3,6.5c1.3,0.1,4.5,0.2,6.7,0.2c2.9,0,6.1-0.1,7.2-0.3c0.5-0.1,0.9-0.7,1-0.9c0.6-1,0.7-2.4,0.7-5.5
		C17.9,18.4,18.1,15,16.2,14.7z M5.3,17.8H4v7.3H2.9v-7.3H1.7l0-1.3h3.6C5.3,16.5,5.3,17.8,5.3,17.8z M8.5,25.2h-1v-0.7
		c0,0-0.5,0.8-1.1,0.8c-0.6,0-0.8-0.4-0.8-1.2v-5.3h1v5.2c0,0,0,0.2,0.3,0.2c0.3,0,0.7-0.4,0.7-0.5v-4.8h1V25.2z M12.5,24
		c0,0-0.1,1.2-0.8,1.2c-0.7,0-1-0.4-1.3-0.7v0.7h-1v-8.6h1v2.8c0,0,0.5-0.7,1-0.7c0.5,0,1,0.4,1,1.2V24z M16.4,24
		c-0.2,1.1-1.4,1.2-1.4,1.2c-1.7,0-1.7-1.8-1.7-1.8v-3c0-0.2,0.1-0.6,0.1-0.6c0.1-0.4,0.2-1.1,1.5-1.1c1.5,0,1.5,1.7,1.5,1.7v1.8
		h-2.1v1.3c0,0.4,0.2,0.7,0.6,0.7s0.4-0.7,0.4-0.7v-0.5h1C16.5,22.9,16.5,23.2,16.4,24z"/>
	<path d="M15.4,20.4c0,0-0.1-0.7-0.5-0.7c-0.4,0-0.5,0.5-0.5,0.7v0.8h1V20.4z"/>
	<path d="M11,19.7c-0.3,0-0.5,0.2-0.5,0.2v3.9c0.2,0.2,0.5,0.2,0.5,0.2c0.4,0,0.4-0.5,0.4-0.5v-3.2C11.5,19.9,11.3,19.7,11,19.7z"/>
	<path d="M11.9,12.9c0.6,0,1.3-0.8,1.3-0.8v0.7h1.2V6.5h-1.2v4.9c-0.2,0.4-0.7,0.5-0.7,0.5c-0.4,0-0.4-0.3-0.4-0.3V6.5H11v5.5
		C11,12.5,11.3,12.9,11.9,12.9z"/>
	<polygon points="3.8,12.8 5,12.8 5,9.4 6.6,4.3 5.3,4.3 4.4,7.6 3.5,4.3 2.1,4.3 3.8,9.4 	"/>
	<path d="M8.1,12.9c0.1,0,0.3,0,0.4,0c0.6-0.1,0.9-0.4,1.1-0.7c0.3-0.5,0.3-1,0.3-1v-3C10,8,10,7.6,10,7.6C9.7,6.7,9,6.5,8.6,6.4
		c-0.1,0-0.2,0-0.3,0c-0.1,0-0.2,0-0.3,0C7.6,6.5,6.9,6.8,6.7,7.6c0,0-0.1,0.4-0.1,0.6v3c0,0,0,0.5,0.3,1
		C7.1,12.5,7.5,12.8,8.1,12.9z M7.7,8.2c0-0.8,0.6-0.8,0.6-0.8c0.6,0,0.5,0.8,0.5,0.8v3c0,0.7-0.5,0.7-0.5,0.7s0,0,0,0
		c-0.1,0-0.6,0-0.6-0.7V8.2z"/>
</g>
</svg>
