<?xml version="1.0" encoding="utf-8"?>
<!-- Generator: Adobe Illustrator 19.2.1, SVG Export Plug-In . SVG Version: 6.00 Build 0)  -->
<svg version="1.1" id="Layer_1" xmlns="http://www.w3.org/2000/svg" xmlns:xlink="http://www.w3.org/1999/xlink" x="0px" y="0px"
	 width="19.118px" height="32px" viewBox="0 0 19.118 32" style="enable-background:new 0 0 19.118 32;" xml:space="preserve">
<style type="text/css">
	.st0{fill:#010101;}
</style>
<path class="st0" d="M18.752,11.58l-5.657-5.657c-0.488-0.488-1.28-0.488-1.768,0L9.914,7.337c-0.488,0.488-0.488,1.28,0,1.768
	l0.884,0.884L9.49,11.296c-0.396-0.104-0.803-0.056-1.137,0.138l-0.156,0.092c-0.351,0.204-0.595,0.536-0.687,0.936
	c-0.014,0.06-0.02,0.119-0.021,0.18c-0.19,0.025-0.359,0.081-0.511,0.17L6.82,12.903c-0.351,0.204-0.595,0.536-0.686,0.935
	c-0.015,0.061-0.021,0.12-0.022,0.181c-0.19,0.026-0.361,0.082-0.511,0.17l-0.158,0.092c-0.351,0.204-0.595,0.536-0.687,0.936
	c-0.014,0.06-0.02,0.118-0.021,0.179c-0.191,0.025-0.359,0.081-0.512,0.171l-0.158,0.092c-0.351,0.204-0.595,0.536-0.687,0.936
	c-0.014,0.06-0.02,0.118-0.021,0.179c-0.191,0.025-0.359,0.081-0.511,0.17l-0.159,0.093c-0.351,0.204-0.595,0.536-0.687,0.936
	c-0.014,0.06-0.02,0.118-0.021,0.179c-0.19,0.026-0.361,0.082-0.511,0.17l-0.158,0.092c-0.351,0.204-0.595,0.536-0.687,0.935
	c-0.056,0.237-0.04,0.495,0.046,0.769L0.366,20.42c-0.488,0.488-0.488,1.28,0,1.768l2.121,2.121
	c0.383,0.383,0.962,0.463,1.445,0.212c0.423,0.137,0.862,0.096,1.223-0.115l0.159-0.093c0.351-0.203,0.595-0.535,0.687-0.934
	c0.014-0.061,0.019-0.119,0.021-0.18c0.19-0.026,0.361-0.082,0.51-0.17l0.159-0.093c0.351-0.203,0.595-0.535,0.687-0.936
	c0.014-0.059,0.019-0.117,0.021-0.178c0.191-0.025,0.359-0.081,0.51-0.171l0.159-0.093c0.351-0.203,0.595-0.535,0.687-0.936
	c0.014-0.059,0.019-0.117,0.021-0.178c0.191-0.025,0.359-0.081,0.511-0.17l0.157-0.093c0.351-0.203,0.595-0.535,0.687-0.934
	c0.014-0.061,0.02-0.119,0.021-0.18c0.19-0.026,0.361-0.082,0.51-0.17l0.159-0.093c0.351-0.203,0.595-0.535,0.687-0.935
	c0.014-0.059,0.02-0.118,0.021-0.179c0.19-0.025,0.359-0.081,0.51-0.171l0.158-0.092c0.351-0.203,0.595-0.536,0.687-0.935
	c0.055-0.238,0.039-0.496-0.047-0.768l1.849-1.849l0.883,0.883c0.488,0.488,1.28,0.488,1.768,0l1.414-1.414
	C19.24,12.86,19.24,12.067,18.752,11.58z M16.454,13.878l-0.53-0.53l1.414-1.414l0.53,0.53L16.454,13.878z M4.401,23.551
	c-0.04,0-0.08-0.002-0.12-0.012c-0.023-0.006-0.043-0.015-0.066-0.023c-0.036-0.013-0.071-0.03-0.105-0.052
	c-0.02-0.013-0.041-0.028-0.06-0.045c-0.043-0.036-0.086-0.074-0.118-0.124l-1.871-2.803l-0.333-0.499
	c-0.161-0.241-0.112-0.544,0.11-0.672l0.158-0.092c0.052-0.03,0.11-0.046,0.168-0.053c0.019-0.002,0.038,0.001,0.058,0.001
	c0.04,0.001,0.08,0.002,0.12,0.013c0.023,0.006,0.044,0.016,0.066,0.023c0.036,0.013,0.071,0.03,0.104,0.052
	c0.021,0.013,0.041,0.028,0.061,0.045c0.042,0.035,0.081,0.071,0.112,0.118l1.959,2.934c0.003,0.004,0.006,0.006,0.009,0.011
	l0.241,0.361c0.161,0.241,0.112,0.544-0.11,0.672l-0.158,0.091c-0.052,0.03-0.11,0.046-0.168,0.054
	C4.44,23.554,4.42,23.552,4.401,23.551z M2.432,22.488l-1.183-1.183l0.236-0.236L2.432,22.488z M12.212,6.807l0.53,0.53
	l-1.414,1.414l-0.53-0.53L12.212,6.807z M7.541,20.652l-0.158,0.092c-0.052,0.03-0.11,0.046-0.168,0.053
	c-0.019,0.002-0.039-0.001-0.058-0.001c-0.04,0-0.08-0.002-0.12-0.012c-0.023-0.006-0.045-0.015-0.066-0.023
	c-0.036-0.013-0.07-0.03-0.104-0.052c-0.021-0.013-0.041-0.028-0.061-0.045c-0.042-0.035-0.081-0.071-0.112-0.118L4.736,17.61
	c-0.003-0.004-0.006-0.006-0.009-0.011l-0.241-0.361c-0.161-0.241-0.112-0.545,0.11-0.672l0.158-0.092
	c0.052-0.03,0.11-0.046,0.168-0.053c0.019-0.002,0.038,0.001,0.058,0.001c0.04,0.001,0.08,0.002,0.12,0.013
	c0.023,0.006,0.043,0.015,0.066,0.023c0.036,0.013,0.071,0.03,0.104,0.052c0.021,0.013,0.041,0.028,0.06,0.045
	c0.042,0.035,0.081,0.071,0.113,0.117l1.959,2.935c0.003,0.004,0.006,0.006,0.009,0.011l0.241,0.361
	C7.81,20.22,7.761,20.523,7.541,20.652z M6.163,22.029l-0.158,0.092c-0.052,0.03-0.11,0.046-0.168,0.053
	c-0.019,0.002-0.039-0.001-0.058-0.001c-0.04,0-0.08-0.002-0.12-0.012c-0.023-0.006-0.043-0.015-0.066-0.023
	c-0.036-0.013-0.071-0.03-0.105-0.052c-0.021-0.013-0.041-0.028-0.06-0.045c-0.042-0.035-0.081-0.071-0.113-0.117l-1.959-2.935
	c-0.003-0.004-0.006-0.006-0.009-0.011l-0.241-0.361c-0.161-0.241-0.112-0.544,0.11-0.672l0.158-0.092
	c0.052-0.03,0.11-0.046,0.168-0.053C3.561,17.796,3.58,17.8,3.6,17.8c0.04,0.001,0.08,0.002,0.12,0.013
	c0.023,0.006,0.043,0.015,0.066,0.023c0.036,0.013,0.071,0.03,0.104,0.052c0.021,0.013,0.041,0.028,0.06,0.045
	c0.042,0.035,0.081,0.071,0.113,0.117l1.959,2.935c0.003,0.004,0.006,0.006,0.009,0.011l0.241,0.361
	C6.433,21.597,6.384,21.9,6.163,22.029z M5.971,15.189l0.158-0.092c0.052-0.03,0.11-0.046,0.168-0.053
	c0.019-0.002,0.039,0.001,0.058,0.001c0.04,0,0.08,0.002,0.12,0.012c0.023,0.006,0.045,0.015,0.066,0.023
	c0.036,0.013,0.07,0.03,0.104,0.052c0.021,0.013,0.041,0.028,0.061,0.045c0.041,0.034,0.081,0.071,0.113,0.117l1.959,2.935
	c0.003,0.004,0.006,0.007,0.009,0.011l0.241,0.361c0.16,0.24,0.111,0.544-0.11,0.673l-0.158,0.092
	c-0.052,0.03-0.11,0.046-0.168,0.053c-0.019,0.002-0.038-0.001-0.058-0.001c-0.04-0.001-0.08-0.002-0.12-0.013
	c-0.023-0.006-0.045-0.015-0.066-0.023c-0.036-0.013-0.071-0.03-0.104-0.052c-0.021-0.013-0.041-0.028-0.061-0.045
	c-0.042-0.035-0.081-0.071-0.112-0.118l-1.959-2.935c-0.003-0.004-0.006-0.006-0.009-0.011l-0.241-0.361
	C5.701,15.62,5.75,15.317,5.971,15.189z M7.216,13.938c0.033-0.05,0.078-0.093,0.133-0.126l0.158-0.092
	c0.052-0.03,0.11-0.046,0.168-0.053c0.019-0.002,0.039,0.001,0.058,0.001c0.04,0,0.08,0.002,0.12,0.012
	c0.023,0.006,0.045,0.015,0.066,0.023c0.036,0.013,0.07,0.03,0.104,0.052c0.021,0.013,0.041,0.028,0.061,0.045
	c0.041,0.034,0.081,0.071,0.113,0.117l1.959,2.935c0.003,0.004,0.006,0.006,0.009,0.011l0.241,0.361
	c0.159,0.24,0.11,0.543-0.111,0.672l-0.158,0.092c-0.052,0.03-0.11,0.046-0.168,0.053C9.95,18.045,9.93,18.042,9.91,18.042
	c-0.04,0-0.08-0.002-0.12-0.012c-0.023-0.006-0.045-0.015-0.066-0.023c-0.036-0.013-0.071-0.03-0.104-0.052
	C9.6,17.941,9.58,17.927,9.56,17.91c-0.042-0.035-0.081-0.071-0.112-0.118l-1.959-2.934c-0.003-0.004-0.006-0.006-0.009-0.011
	l-0.241-0.361c-0.04-0.06-0.068-0.125-0.081-0.189C7.128,14.167,7.15,14.038,7.216,13.938z M11.672,16.52l-0.158,0.092
	c-0.052,0.03-0.11,0.046-0.168,0.053c-0.019,0.002-0.039-0.001-0.058-0.001c-0.04,0-0.08-0.002-0.12-0.012
	c-0.023-0.006-0.045-0.015-0.066-0.023c-0.036-0.013-0.071-0.03-0.104-0.052c-0.021-0.013-0.041-0.028-0.061-0.045
	c-0.042-0.035-0.081-0.071-0.112-0.118l-1.959-2.934c-0.003-0.004-0.006-0.006-0.009-0.011l-0.242-0.362
	c-0.161-0.241-0.112-0.544,0.11-0.672l0.158-0.092c0.052-0.03,0.11-0.046,0.168-0.053c0.019-0.002,0.039,0.001,0.058,0.001
	c0.04,0,0.08,0.002,0.119,0.012c0.023,0.006,0.045,0.015,0.066,0.023c0.036,0.013,0.071,0.03,0.104,0.052
	c0.021,0.013,0.041,0.028,0.061,0.045c0.043,0.036,0.086,0.074,0.118,0.124l1.871,2.802l0.333,0.498
	C11.942,16.087,11.894,16.391,11.672,16.52z M10.328,12.226l1.528-1.528l2.121,2.121l-1.952,1.952L10.328,12.226z M11.681,9.105
	l1.414-1.414l3.889,3.889l-1.414,1.414L11.681,9.105z"/>
</svg>
