<?xml version="1.0" encoding="utf-8"?>
<!-- Generator: Adobe Illustrator 19.2.1, SVG Export Plug-In . SVG Version: 6.00 Build 0)  -->
<svg version="1.1" id="Layer_1" xmlns="http://www.w3.org/2000/svg" xmlns:xlink="http://www.w3.org/1999/xlink" x="0px" y="0px"
	 width="10.5px" height="32px" viewBox="0 0 10.5 32" style="enable-background:new 0 0 10.5 32;" xml:space="preserve">
<style type="text/css">
	.st0{fill:#010101;}
</style>
<path class="st0" d="M9.25,5.749h-8C0.561,5.749,0,6.309,0,6.999v2c0,0.689,0.561,1.25,1.25,1.25H2.5v1.849
	c-0.354,0.207-0.607,0.528-0.706,0.901l-0.045,0.175c-0.104,0.392-0.042,0.799,0.176,1.147c0.033,0.052,0.07,0.098,0.112,0.142
	c-0.117,0.152-0.196,0.311-0.241,0.481l-0.047,0.177c-0.104,0.393-0.042,0.8,0.176,1.146c0.033,0.054,0.07,0.1,0.112,0.144
	c-0.116,0.152-0.197,0.313-0.241,0.481L1.749,17.07c-0.104,0.393-0.042,0.8,0.176,1.147c0.033,0.053,0.07,0.098,0.112,0.142
	c-0.117,0.152-0.197,0.312-0.241,0.482l-0.047,0.177c-0.104,0.393-0.042,0.8,0.176,1.147c0.033,0.053,0.07,0.098,0.112,0.142
	c-0.117,0.152-0.197,0.312-0.241,0.481l-0.047,0.178c-0.104,0.393-0.042,0.8,0.176,1.147c0.033,0.053,0.07,0.098,0.112,0.142
	c-0.116,0.152-0.197,0.313-0.241,0.481l-0.047,0.177c-0.104,0.393-0.042,0.8,0.175,1.146c0.128,0.207,0.322,0.379,0.576,0.511v0.431
	c0,0.689,0.561,1.25,1.25,1.25h3c0.542,0,1.008-0.353,1.172-0.872c0.396-0.202,0.678-0.542,0.783-0.946l0.047-0.178
	c0.104-0.392,0.042-0.799-0.175-1.146c-0.033-0.053-0.07-0.098-0.112-0.143c0.116-0.152,0.197-0.313,0.24-0.48l0.047-0.178
	c0.104-0.392,0.042-0.799-0.176-1.147c-0.032-0.052-0.069-0.097-0.111-0.141c0.117-0.152,0.196-0.312,0.24-0.481l0.047-0.178
	c0.104-0.392,0.042-0.799-0.176-1.147c-0.032-0.052-0.069-0.097-0.111-0.141c0.117-0.152,0.196-0.312,0.241-0.481l0.046-0.177
	c0.104-0.392,0.042-0.799-0.175-1.146c-0.033-0.053-0.07-0.099-0.112-0.143c0.116-0.152,0.197-0.313,0.24-0.48l0.047-0.178
	c0.104-0.392,0.042-0.799-0.176-1.147c-0.032-0.052-0.069-0.098-0.111-0.142c0.117-0.152,0.196-0.311,0.24-0.481l0.047-0.177
	c0.104-0.392,0.042-0.799-0.175-1.147c-0.13-0.207-0.323-0.378-0.576-0.51v-2.615H9.25c0.689,0,1.25-0.561,1.25-1.25v-2
	C10.5,6.309,9.939,5.749,9.25,5.749z M9.25,8.998H8.5v-2h0.75V8.998z M7.567,24.362c-0.028,0.028-0.058,0.055-0.093,0.076
	c-0.02,0.012-0.041,0.02-0.063,0.03c-0.035,0.016-0.072,0.029-0.111,0.037c-0.024,0.005-0.049,0.009-0.074,0.011
	c-0.056,0.005-0.113,0.008-0.171-0.004L3.75,23.852l-0.588-0.117c-0.284-0.057-0.464-0.306-0.398-0.553l0.047-0.177
	c0.015-0.058,0.045-0.11,0.081-0.156c0.012-0.015,0.028-0.026,0.042-0.04c0.029-0.028,0.058-0.055,0.094-0.076
	c0.02-0.012,0.042-0.02,0.063-0.03c0.035-0.016,0.072-0.029,0.11-0.037c0.024-0.005,0.049-0.009,0.075-0.011
	c0.054-0.005,0.108-0.007,0.163,0.004l3.46,0.69c0.005,0.001,0.009,0,0.014,0.001l0.426,0.085c0.284,0.057,0.464,0.306,0.398,0.553
	L7.69,24.164c-0.015,0.058-0.045,0.11-0.081,0.157C7.597,24.336,7.581,24.349,7.567,24.362z M5.423,25.003H3.75v-0.334L5.423,25.003
	z M1.25,6.998H2v2H1.25V6.998z M7.737,20.091L7.69,20.268c-0.015,0.058-0.045,0.11-0.081,0.156c-0.012,0.015-0.028,0.027-0.042,0.04
	c-0.028,0.028-0.058,0.055-0.093,0.076c-0.02,0.012-0.042,0.021-0.063,0.03c-0.035,0.016-0.071,0.028-0.11,0.037
	c-0.024,0.005-0.049,0.009-0.075,0.011c-0.054,0.005-0.108,0.007-0.163-0.004l-3.46-0.69c-0.005-0.001-0.009,0-0.014-0.001
	l-0.426-0.085c-0.284-0.057-0.464-0.306-0.398-0.553l0.047-0.177c0.015-0.058,0.045-0.11,0.081-0.156
	c0.012-0.015,0.028-0.026,0.042-0.04c0.029-0.028,0.058-0.055,0.094-0.076c0.02-0.012,0.041-0.02,0.063-0.03
	c0.035-0.016,0.072-0.029,0.11-0.037c0.024-0.005,0.049-0.009,0.074-0.011c0.054-0.005,0.108-0.007,0.163,0.003l3.461,0.69
	c0.005,0.001,0.009,0,0.014,0.001l0.426,0.085C7.622,19.595,7.802,19.844,7.737,20.091z M7.737,22.039L7.69,22.216
	c-0.015,0.058-0.045,0.11-0.081,0.156c-0.012,0.015-0.028,0.027-0.042,0.04c-0.028,0.028-0.058,0.055-0.093,0.076
	c-0.02,0.012-0.041,0.02-0.063,0.03c-0.035,0.016-0.072,0.029-0.111,0.037c-0.024,0.005-0.049,0.009-0.074,0.011
	c-0.054,0.005-0.108,0.007-0.163-0.003l-3.461-0.69c-0.005-0.001-0.009,0-0.014-0.001l-0.426-0.085
	c-0.284-0.057-0.464-0.306-0.398-0.553l0.047-0.177c0.015-0.058,0.045-0.11,0.081-0.156c0.012-0.015,0.028-0.026,0.042-0.04
	c0.029-0.028,0.058-0.055,0.094-0.076c0.02-0.012,0.041-0.02,0.063-0.03c0.035-0.016,0.072-0.029,0.11-0.037
	c0.024-0.005,0.049-0.009,0.074-0.011c0.054-0.005,0.108-0.007,0.163,0.003l3.461,0.69c0.005,0.001,0.009,0,0.014,0.001l0.426,0.085
	C7.622,21.543,7.802,21.792,7.737,22.039z M2.764,17.339l0.047-0.177c0.015-0.058,0.045-0.11,0.081-0.156
	c0.012-0.015,0.028-0.027,0.042-0.04c0.028-0.028,0.058-0.055,0.093-0.076c0.02-0.012,0.042-0.021,0.063-0.03
	c0.035-0.016,0.071-0.028,0.11-0.037c0.024-0.005,0.049-0.009,0.075-0.011c0.053-0.005,0.108-0.007,0.163,0.003l3.461,0.69
	c0.005,0.001,0.009,0.001,0.014,0.001l0.426,0.085c0.283,0.057,0.463,0.306,0.398,0.554L7.69,18.321
	c-0.015,0.058-0.045,0.11-0.081,0.156c-0.012,0.015-0.028,0.026-0.042,0.04c-0.029,0.028-0.058,0.055-0.094,0.076
	c-0.02,0.012-0.042,0.021-0.063,0.03c-0.035,0.016-0.072,0.029-0.11,0.037c-0.024,0.005-0.049,0.009-0.075,0.011
	c-0.054,0.005-0.108,0.007-0.163-0.004l-3.46-0.69c-0.005-0.001-0.009,0-0.014-0.001l-0.426-0.085
	C2.878,17.834,2.698,17.586,2.764,17.339z M2.76,15.573c-0.012-0.059-0.011-0.121,0.005-0.183l0.047-0.177
	c0.015-0.058,0.045-0.11,0.081-0.156c0.012-0.015,0.028-0.027,0.042-0.04c0.028-0.028,0.058-0.055,0.093-0.076
	c0.02-0.012,0.042-0.021,0.063-0.03c0.035-0.016,0.071-0.028,0.11-0.037c0.024-0.005,0.049-0.009,0.075-0.011
	c0.053-0.005,0.108-0.007,0.163,0.003l3.461,0.69c0.005,0.001,0.009,0,0.014,0.001l0.426,0.085c0.282,0.057,0.462,0.306,0.397,0.554
	L7.69,16.373c-0.015,0.058-0.045,0.11-0.081,0.156c-0.012,0.015-0.028,0.027-0.042,0.041c-0.028,0.028-0.058,0.055-0.093,0.076
	c-0.02,0.012-0.042,0.021-0.063,0.03c-0.035,0.016-0.072,0.029-0.11,0.037c-0.024,0.005-0.049,0.009-0.075,0.011
	c-0.054,0.005-0.108,0.007-0.163-0.004l-3.46-0.69c-0.005-0.001-0.009,0-0.014-0.001l-0.426-0.085
	c-0.071-0.014-0.136-0.04-0.191-0.076C2.86,15.798,2.784,15.691,2.76,15.573z M7.737,14.248L7.69,14.425
	c-0.015,0.058-0.045,0.11-0.081,0.156c-0.012,0.015-0.028,0.027-0.042,0.04c-0.028,0.028-0.058,0.055-0.093,0.076
	c-0.02,0.012-0.042,0.021-0.063,0.03c-0.035,0.016-0.072,0.029-0.11,0.037c-0.024,0.005-0.049,0.009-0.075,0.011
	c-0.054,0.005-0.108,0.007-0.163-0.004l-3.46-0.69c-0.005-0.001-0.009,0-0.014-0.001l-0.427-0.085
	c-0.284-0.057-0.464-0.306-0.398-0.553l0.047-0.177c0.015-0.058,0.045-0.11,0.081-0.156c0.012-0.015,0.028-0.027,0.042-0.04
	c0.028-0.028,0.058-0.055,0.093-0.076c0.02-0.012,0.042-0.021,0.063-0.03c0.035-0.016,0.072-0.029,0.11-0.037
	c0.024-0.005,0.049-0.009,0.075-0.011c0.056-0.005,0.113-0.008,0.171,0.004l3.304,0.658l0.588,0.117
	C7.622,13.751,7.802,14,7.737,14.248z M3.75,12.162v-2.161h3v2.76L3.75,12.162z M2.5,8.998v-2H8v2H2.5z"/>
</svg>
