<?xml version="1.0" encoding="utf-8"?>
<!-- Generator: Adobe Illustrator 19.2.1, SVG Export Plug-In . SVG Version: 6.00 Build 0)  -->
<svg version="1.1" id="Layer_1" xmlns="http://www.w3.org/2000/svg" xmlns:xlink="http://www.w3.org/1999/xlink" x="0px" y="0px"
	 width="38.884px" height="32px" viewBox="0 0 38.884 32" style="enable-background:new 0 0 38.884 32;" xml:space="preserve">
<path d="M29.373,2.512l-0.287,0.81L28.29,3.533L18.272,13.551l-0.312-0.312L9.223,22.07c-0.821,0.821-1.236,1.823-0.73,2.931
	L8.402,24.91l-0.119,0.119l-0.467-0.467l-0.825,0.825l0.467,0.467l-0.589,0.589l-0.467-0.467l-0.825,0.825l0.467,0.467l-0.589,0.589
	L4.988,27.39l-0.825,0.825l0.467,0.467l2.131,2.131l0.467,0.467l0.825-0.825l-0.467-0.467l0.589-0.589l0.467,0.467l0.825-0.825
	l-0.467-0.467l0.589-0.589l0.467,0.467l0.825-0.825l-0.467-0.467l0.12-0.12l-0.091-0.091c1.108,0.506,2.109,0.091,2.931-0.73
	l8.83-8.736l-0.46-0.46L31.761,7.004l0.211-0.812l0.829-0.312c0.854-1.81,0.953-3.062,0.294-3.721
	C32.224,1.287,30.591,1.87,29.373,2.512z M29.047,8.303l-8.012,8.012l-2.058-2.058l8.012-8.012L29.047,8.303z M31.898,5.453
	l-0.914-0.397l-0.22,0.22l0.29,1.021l-0.948,0.948l-2.058-2.058l0.948-0.948l1.008,0.276l0.22-0.22l-0.384-0.9
	c0,0,2.015-1.063,2.549-0.53C32.885,3.362,31.898,5.453,31.898,5.453z"/>
</svg>
