<?xml version="1.0" encoding="utf-8"?>
<!-- Generator: Adobe Illustrator 19.2.1, SVG Export Plug-In . SVG Version: 6.00 Build 0)  -->
<svg version="1.1" id="Layer_1" xmlns="http://www.w3.org/2000/svg" xmlns:xlink="http://www.w3.org/1999/xlink" x="0px" y="0px"
	 width="22px" height="32px" viewBox="0 0 22 32" style="enable-background:new 0 0 22 32;" xml:space="preserve">
<path d="M21.813,10.785c-0.187-0.262-0.488-0.417-0.809-0.417H5.231L4.548,8.744C4.392,8.374,4.03,8.133,3.63,8.133H0.996
	c-0.55,0-0.996,0.448-0.996,1s0.446,1,0.996,1H2.97l4.665,11.089c0.156,0.37,0.517,0.61,0.918,0.61h0.114
	c-0.064,0.167-0.102,0.346-0.102,0.535c0,0.828,0.669,1.5,1.494,1.5s1.494-0.672,1.494-1.5c0-0.189-0.039-0.369-0.102-0.535h2.694
	c-0.064,0.167-0.102,0.346-0.102,0.535c0,0.828,0.669,1.5,1.494,1.5c0.825,0,1.494-0.672,1.494-1.5c0-0.189-0.039-0.369-0.102-0.535
	h0.784c0.55,0,0.996-0.447,0.996-1s-0.445-1-0.996-1H9.213l-0.33-0.784h9.862c0.427,0,0.806-0.272,0.943-0.678l2.259-6.682
	C22.05,11.383,22.001,11.047,21.813,10.785z M18.031,17.048H8.042l-1.969-4.681h13.542L18.031,17.048z"/>
</svg>
