<?xml version="1.0" encoding="utf-8"?>
<!-- Generator: Adobe Illustrator 21.0.0, SVG Export Plug-In . SVG Version: 6.00 Build 0)  -->
<svg version="1.1" id="Layer_1" xmlns="http://www.w3.org/2000/svg" xmlns:xlink="http://www.w3.org/1999/xlink" x="0px" y="0px"
	 width="11.1000004px" height="32px" viewBox="0 0 11.1000004 32" style="enable-background:new 0 0 11.1000004 32;"
	 xml:space="preserve">
<path d="M6.6000004,12.3250008c-0.8250003,0-1.8000002,0.2249994-2.7000003,0.5999994
	c-0.5249996,0.2250004-0.9749999,0.6000004-1.5,1.125V4H0v24h1.7249999L1.875,27.7750015
	c0.5999999-0.75,0.8249998-1.125,2.3249998-2.1000004C5.9249997,24.4750004,7.6499996,22.9750004,8.625,21.8500004
	c1.7250004-1.9499989,2.4750004-3.4499989,2.4750004-5.3999996C11.0249996,14.0499992,9.1499996,12.3250008,6.6000004,12.3250008z
	 M6,14.875c0.9750004,0,1.7250004,0.75,1.7250004,1.7999992c0,2.1000004-1.3500004,4.0499992-5.25,7.5v-6.75
	c0.825-1.5,1.3500001-1.9499998,2.4750001-2.3249998C5.3999996,14.875,5.625,14.875,6,14.875z"/>
</svg>
