<?xml version="1.0" encoding="utf-8"?>
<!-- Generator: Adobe Illustrator 21.0.0, SVG Export Plug-In . SVG Version: 6.00 Build 0)  -->
<svg version="1.1" id="Layer_1" xmlns="http://www.w3.org/2000/svg" xmlns:xlink="http://www.w3.org/1999/xlink" x="0px" y="0px"
	 width="10.2749996px" height="32px" viewBox="0 0 10.2749996 32" style="enable-background:new 0 0 10.2749996 32;"
	 xml:space="preserve">
<path d="M1.2750001,17.2750015c1.0499997-1.6500006,1.6500001-2.1750011,3.0750003-2.8500013
	C4.875,14.2750006,5.25,14.2000008,5.625,14.2000008c1.4249997,0,2.4750004,1.125,2.4750004,2.5499992
	c0,2.5499992-1.6500001,4.7999992-6.8250008,9.2999992C1.2749999,26.0499992,1.2749999,17.2750015,1.2750001,17.2750015z M0,4v24
	h0.75c0.675-0.9000015,1.0500001-1.2750015,2.5500002-2.3250008C4.9500003,24.3999996,6.75,22.9749985,7.7999997,21.7750015
	c1.7999997-1.9500008,2.4749999-3.375,2.4749999-5.1750011c0-2.3249998-1.6499996-3.8999996-3.9749999-3.8999996
	c-0.75,0-1.6500001,0.2250004-2.5500002,0.6750002c-0.75,0.375-1.425,0.8999996-2.55,2.1750002V4H0z"/>
</svg>
