<?xml version="1.0" encoding="utf-8"?>
<!-- Generator: Adobe Illustrator 19.2.1, SVG Export Plug-In . SVG Version: 6.00 Build 0)  -->
<svg version="1.1" id="Layer_1" xmlns="http://www.w3.org/2000/svg" xmlns:xlink="http://www.w3.org/1999/xlink" x="0px" y="0px"
	 width="24px" height="32px" viewBox="0 0 24 32" style="enable-background:new 0 0 24 32;" xml:space="preserve">
<style type="text/css">
	.st0{fill-rule:evenodd;clip-rule:evenodd;}
</style>
<path class="st0" d="M11.997,4C5.385,4,0,9.385,0,16s5.385,12,11.997,12S24,22.615,24,16S18.615,4,11.997,4z M21.86,14.056h-2.724
	c-0.708-2.588-2.778-4.612-5.395-5.24V6.105C17.822,6.824,21.066,10.003,21.86,14.056z M11.997,21.455
	c-3.009,0-5.46-2.448-5.46-5.455s2.451-5.455,5.46-5.455s5.46,2.448,5.46,5.455S15.011,21.455,11.997,21.455z M9.847,6.185v2.733
	c-2.424,0.736-4.317,2.685-4.982,5.138H2.14C2.907,10.137,5.958,7.034,9.847,6.185z M2.14,17.944h2.73
	c0.67,2.448,2.564,4.397,4.982,5.138v2.733C5.958,24.966,2.907,21.863,2.14,17.944z M13.74,25.895v-2.706
	c2.617-0.634,4.687-2.658,5.395-5.24h2.724C21.066,21.997,17.822,25.176,13.74,25.895z"/>
</svg>
