<?xml version="1.0" encoding="utf-8"?>
<!-- Generator: Adobe Illustrator 19.2.1, SVG Export Plug-In . SVG Version: 6.00 Build 0)  -->
<svg version="1.1" id="Layer_1" xmlns="http://www.w3.org/2000/svg" xmlns:xlink="http://www.w3.org/1999/xlink" x="0px" y="0px"
	 width="87.0920029px" height="32px" viewBox="0 0 87.0920029 32" style="enable-background:new 0 0 87.0920029 32;"
	 xml:space="preserve">
<g>
	<path d="M67.6031189,16.8623524c0.4427948-0.0183849,1.5352173,0.1256371,3.8962631,0.2145004
		c2.4713516,0.0919285,2.9616394-1.8201952,2.8635864-3.0060797c-2.5219193,0.5439129-3.1179276,0.6833391-5.2935791,0.6833391
		c-2.2829056,0-5.095932,0.6373758-5.1464958,2.6460247c-0.05056,1.9948597,2.5586891,2.4422474,3.9146461,2.8237534
		c0.3753738,0.0888653,0.517868,0.3937626,0.2681274,0.5898781c-0.579155,0.4627094-1.8876114,1.0740376-2.0423584,2.1649284
		c-0.2206345,1.5459423,1.1843491,2.7563381,2.9662476,2.7195663c2.3732986-0.0490265,4.9948044-1.0571842,7.5136642-4.0801163
		c0.7109146-0.8534069,1.5106964-2.2951603,2.0025177-2.9310036c0.1179733-0.2282906,0.4581146-0.3386059,0.6067276-0.3217506
		c0.4504547,0.0995903,1.0878296,0.4397278,1.0020294,0.9300156c-0.1317673,0.7476921-2.1664658,3.0780926-0.8105087,4.4815388
		c0.831955,0.8626003,2.9294739,1.4877205,4.5995178,0.2727222c1.5627899-1.1368561,1.0127487-2.1771851,0.3937607-2.2522602
		c-0.4427948-0.0536251-1.6807709,1.5015068-2.6812668,0.3937626c-0.831955-0.9192905,1.1445236-2.8237534,1.5367432-3.5024948
		c0.5668945-0.979044-1.6439896-1.7160091-2.5740128-2.9310036c-0.6005936-0.7997828,0.9560623-3.2542877-0.9928284-3.9039192
		c-0.6358414-0.2114363-2.6031265,0.9713831-1.9029312,4.3681602c-0.8947754,3.3600063-7.7021179,9.2388687-8.6091537,6.8686295
		c-0.2206345-0.5776215,0.363121-1.5398102,1.9228516-1.8646278c2.5740128-0.536253,2.3717651-2.1281567,1.144516-2.2875004
		c-1.9305038-0.2497406-2.4667587-0.2497406-4.7665176-0.7890568C66.5030365,18.051302,66.5336761,16.845499,67.6031189,16.8623524
		L67.6031189,16.8623524z"/>
	<path d="M30.3534794,20.5624962c-0.618988,0.6281815-1.3345032,1.4969101-1.4294968,2.1986351
		c-0.2068405,1.5198956,0.5714912,2.85746,2.5020008,2.8237553c2.0730019-0.0352421,2.7532768-1.5367489,6.2205276-3.6465206
		c0.9683228-0.5883465,2.1710587-1.5857754,2.6659431-1.6654472c0.1899872,0,0.4688377,0.0582218,0.4504547,0.4244061
		c-0.2926407,1.3835316-0.6143913,2.3120155-0.2574005,3.4933052c0.2512703,0.8304253,1.3528862,1.3498249,2.1450081,0.7507534
		c1.3222466-1.0004959,1.3406334-1.5704536,3.0551071-3.8257809c0.2834473-0.3738441,1.3253098-2.0852566,1.8064079-1.8584976
		c0.3998909,0.1884537,0.2895737,0.7430954,0.2145004,1.1797581c-0.3600578,2.1113033-1.2762833,5.4483261,2.8957672,4.9335232
		c0.9928284-0.1225719,1.7910805-0.7921219,1.037262-1.5015068c-0.4550514-0.4290028-0.9652557-0.1179752-1.5367432-0.2497406
		c-1.3391037-0.309494,1.9734039-6.4105186,0.3937607-7.542778c-2.2216187-1.5919037-4.2823601,1.2287846-5.826767,3.289526
		c-0.6097984,0.8120403-1.0602455,0.4565811-1.457077-0.6879349c-0.4397278-1.2716846-3.0826836-0.3416691-4.599514,0.4412594
		c-2.4192657,1.2487049-6.8885498,5.4253464-7.305294,3.3416214c-0.0720119-0.3600578,0.5117378-1.1613693,1.5995674-1.5566673
		c1.2747498-0.464241,2.7165031-0.8763905,2.7165031-1.6439972c0-0.5929413-0.3600578-1.0096874-0.7415619-0.9882374
		c-1.7803574,0.0995903-3.8472271,0.568428-6.2159309-0.082737c-0.5393162-0.003067-0.7691422-1.3620815,0.8288937-1.1843548
		c0.4228725,0.0474968,1.3666782,0.1103172,4.948843,0.1823254c2.5234528,0.0505638,2.5786133-1.8385801,2.2400055-2.8406067
		c-2.0975113,0.6251173-3.1654243,0.5531063-5.3855076,0.5531063c-2.3304005,0-5.4697762,0.3217516-5.3349476,2.5663509
		c0.1133766,1.8891411,2.7639999,2.4070072,4.1383381,2.5632877C30.5143547,19.991003,30.6384583,20.3663807,30.3534794,20.5624962
		L30.3534794,20.5624962z"/>
	<path d="M22.7034512,15.7193689c0.2145004-0.7859926,0.6787415-0.9652548,1.2870064-1.1077442
		c0.9085636-0.298769,2.1817837-0.6955957,2.961647-0.8365545c1.9718781-0.4872236,2.5387726-0.3723125,2.7931099-1.7374582
		c0.1777267-0.9499331-0.2344189-1.4049816-0.2344189-1.4049816s-4.300745,1.3452282-5.1633472,1.5827112
		c-0.7507534,0.3217516-0.6082649-0.4642429-0.6082649-0.4642429s-0.1072502,0.5010128,0.3569908-1.536747
		c1.4095783-6.1990814,0.5837498-7.8522711-0.536253-8.7945433C20.7254429-0.9243812,10.3727026,3.9401953,2.9693515,9.7853498
		c-2.4667621,2.14501-3.8962584,2.6460247-2.2875006,4.3605003C2.1113474,15.575345,3.0413625,14.50284,3.0413625,14.50284
		c1.3590176-1.072505,4.2900219-4.0755196,6.2205305-5.5050154c2.7486782-2.0362287,6.5422821-4.9687638,9.9022875-5.7547569
		c2.6659412-0.6756783,3.4672565,0.1072507,3.1102657,2.8237529c-0.2099056,2.3319335-2.0025215,7.5780168-2.0025215,7.5780168
		s-2.753273,1.2303171-3.5745068,1.536747c-0.6419716,0.2390156-1.3222456,0.072011-1.3973207,1.5382795
		c-0.0321751,1.5719891,0.9192915,0.982111,1.558198,0.7384968c0.493351-0.1884518,1.6577854-0.7384968,2.0913849-0.9177589
		c0.3217506-0.2497406,0.6787415-0.0352402,0.5010128,0.4290028c-0.3217525,1.0372658-0.9009056,2.7165051-2.0025215,5.1480274
		c-1.3942566,3.3247662-3.8962593,7.8645267-4.2180109,9.0090427C13.2653999,31.8774281,14.0881662,31.9846783,15.1698627,32
		c0.9958973-0.0766068,1.4555435-0.7660751,1.4555435-0.7660751s1.2961979-2.7808533,3.2879944-7.683733
		C21.3612881,19.9879398,22.3050919,17.0462112,22.7034512,15.7193689L22.7034512,15.7193689z"/>
	<path d="M58.2845802,17.0201645c-1.5490074-0.4473877-2.9049568,1.3896599-3.3017807,3.0244637
		c-0.3600578,1.4907818-0.1700706,3.4963665,1.1797562,3.7537689c1.0816994,0.2053108,2.3365326-0.7384968,2.6582832-2.4897442
		c0.0858002-0.4673061,0.2849808-1.9642162,0.3447304-2.3503189c0.3723106-2.3763657,0.6496315-3.4182272,0.6496315-3.4182272
		c1.2946701-4.9611034,4.3957367-14.6090546,5.2414856-15.1728859c0.8763885-0.5852814,3.2895279-0.6833392,2.5341797,1.3314385
		c-1.1751556,3.1301832-2.5418396,5.9049087-3.7782822,9.7674599c-1.4494133,4.5290375-4.2547836,11.7975607-1.7512512,12.1193094
		c1.1705627,0.1501503,1.644001-0.9300156,2.3457184-0.3799706c1.0740356,0.8411503-0.0995865,2.3579788-2.1679916,2.5602226
		c-2.8467407,0.104187-2.7839203-1.5643253-4.0494766-0.845747c-4.0464096,2.2982254-6.5407524-0.9162254-5.7455635-4.9457836
		c0.6818047-3.4534664,3.3416176-5.891119,6.312458-4.3957386c0,0,0.7614784,0.3784409,0.6971283,1.0204124
		C59.404583,17.0952396,59.0307388,17.1948299,58.2845802,17.0201645L58.2845802,17.0201645z"/>
	<path d="M85.0129471,12.4635496c0.2773132,0,0.4810944,0.0275774,0.6097946,0.0812044
		c0.2313538,0.0965252,0.3462677,0.2849798,0.3462677,0.5668955c0,0.2007113-0.0720139,0.3462658-0.219101,0.4412594
		c-0.0781403,0.050561-0.1853867,0.0858002-0.3248215,0.1072502c0.1762009,0.0275784,0.3049011,0.1011219,0.3861008,0.2190971
		c0.0812073,0.1179743,0.1225739,0.2344189,0.1225739,0.3462658v0.1639404c0,0.0520935,0.0015335,0.1072502,0.0045929,0.1670046
		c0.0046005,0.0582218,0.0107269,0.0980577,0.0199203,0.1164436l0.0137863,0.0275784h-0.3692474
		c-0.0015335-0.0076609-0.0045929-0.0153217-0.006134-0.0229826c-0.0015259-0.0076609-0.0030594-0.0153217-0.0045929-0.0245142
		l-0.0076599-0.072011v-0.1777296c0-0.2589331-0.0704803-0.4305344-0.211441-0.5132704
		c-0.0842667-0.0474968-0.2298203-0.072011-0.4397202-0.072011h-0.3110275v0.8825188h-0.3937607v-2.2369394H85.0129471z
		 M85.4358215,12.8159428c-0.0995865-0.0551577-0.2574005-0.082736-0.474968-0.082736h-0.3355484v0.8105087h0.3554611
		c0.1654739,0,0.2911072-0.0168533,0.3753738-0.050561c0.1532135-0.061286,0.2298279-0.1777296,0.2298279-0.3493299
		C85.585968,12.9814148,85.535408,12.8711004,85.4358215,12.8159428L85.4358215,12.8159428 M86.4945297,15.0329657
		c-0.3968201,0.3998909-0.8779221,0.5990705-1.4432831,0.5990705c-0.5638351,0-1.0449295-0.2007113-1.4402237-0.5990705
		c-0.3937607-0.3983593-0.5914078-0.8794546-0.5914078-1.4463501c0-0.5607681,0.1991806-1.0403299,0.5960083-1.4371567
		c0.3968201-0.3968267,0.874855-0.5944738,1.4356232-0.5944738c0.5638275,0,1.0449219,0.1976471,1.4432831,0.5944748
		c0.3983612,0.3952951,0.5975418,0.8748579,0.5975418,1.4371567C87.0920715,14.1519775,86.8928986,14.6346064,86.4945297,15.0329657
		L86.4945297,15.0329657 M83.8148041,12.347105c-0.3416748,0.3416691-0.5117416,0.7553511-0.5117416,1.2410431
		c0,0.4887562,0.1700668,0.9055004,0.5086746,1.248702c0.3401413,0.3447342,0.7538223,0.5163345,1.2410431,0.5163345
		c0.4856949,0,0.8993759-0.1716022,1.2395096-0.5163345c0.3416672-0.3447351,0.511734-0.7599478,0.511734-1.248702
		c0-0.485692-0.1700668-0.8978415-0.511734-1.2410431c-0.3416672-0.3447342-0.7553482-0.5163345-1.2395096-0.5163345
		C84.5701523,11.8307705,84.1564713,12.0023708,83.8148041,12.347105L83.8148041,12.347105"/>
</g>
</svg>
