<?xml version="1.0" encoding="utf-8"?>
<!-- Generator: Adobe Illustrator 21.0.0, SVG Export Plug-In . SVG Version: 6.00 Build 0)  -->
<svg version="1.1" id="Layer_1" xmlns="http://www.w3.org/2000/svg" xmlns:xlink="http://www.w3.org/1999/xlink" x="0px" y="0px"
	 width="132.0440063px" height="32px" viewBox="0 0 132.0440063 32" style="enable-background:new 0 0 132.0440063 32;"
	 xml:space="preserve">
<g>
	<path d="M0,9.9321289h19.9256592v2.201416H6.7532959c-0.0828857-0.6751709-0.6518555-1.1999512-1.3494873-1.1999512
		c-0.6975098,0-1.2664795,0.5247803-1.3493652,1.1999512H0v0.3321533h4.0543823
		c0.0827637,0.675293,0.6517944,1.2003174,1.3494263,1.2003174c0.6977539,0,1.2667847-0.5250244,1.3494873-1.2003174h13.1723633
		v2.201355H12.151062c-0.0829468-0.6751709-0.6518555-1.1998901-1.3494873-1.1998901
		c-0.6975098,0-1.2664795,0.5247192-1.3493652,1.1998901H0v0.3321533h9.4521484
		c0.0827637,0.675354,0.6517334,1.2003174,1.3494263,1.2003174c0.6977539,0,1.2667847-0.5249634,1.3494873-1.2003174h7.7745972
		v2.201355H0v0.3322144h19.9256592v2.2012939h-2.3863525c-0.0829468-0.6751099-0.6519165-1.1998901-1.3494263-1.1998901
		c-0.6975708,0-1.2665405,0.5247803-1.3494873,1.1998901H0v0.3322144h14.8403931
		c0.0827026,0.675354,0.6517334,1.2003174,1.3494873,1.2003174c0.6976929,0,1.2667236-0.5249634,1.3494263-1.2003174h2.3863525
		v2.201355H0v0.3323364h21.59375v-13H0V9.9321289z"/>
	<path d="M31.2730713,16.2488403c0.6743164-0.6585083,0.8154297-1.473877,0.8154297-2.1326294
		c0-1.1604614-0.4703369-1.9129639-0.9094238-2.3363647c-0.5018311-0.47052-1.3330078-0.9096069-2.6658936-0.9096069H24.843689
		v10.4594727h2.414917v-4.1241455l2.8226929,4.1241455H33.02948l-3.2147217-4.2810059
		C30.3950195,16.9075928,30.9124146,16.5939331,31.2730713,16.2488403z M29.2502441,15.1669312
		c-0.4077759,0.4076538-1.0036011,0.4547729-1.442688,0.4547729H27.258606v-2.8696899h0.5645142
		c0.3137207,0,0.940918,0.0314331,1.3330078,0.3294067c0.2038574,0.1566162,0.486084,0.4702759,0.486084,1.0661621
		C29.6422119,14.6650391,29.4226685,14.9943848,29.2502441,15.1669312z"/>
	<rect x="36.2481079" y="10.8702393" width="2.414978" height="10.4594727"/>
	<polygon points="42.5942383,21.3297119 45.0091553,21.3297119 45.0091553,16.9702148 48.1455078,16.9702148 48.1455078,14.9318237 
		45.0091553,14.9318237 45.0091553,12.9088745 48.3963623,12.9088745 48.3963623,10.8702393 42.5942383,10.8702393 	"/>
	<polygon points="52.006958,21.3297119 54.421875,21.3297119 54.421875,16.9702148 57.5582275,16.9702148 57.5582275,14.9318237 
		54.421875,14.9318237 54.421875,12.9088745 57.809082,12.9088745 57.809082,10.8702393 52.006958,10.8702393 	"/>
	<path d="M66.1083984,15.1669922l-0.7840576-0.2979736c-0.7058105-0.2666016-1.0664673-0.3605957-1.3173218-0.5959473
		c-0.1567993-0.1411133-0.2352295-0.3291016-0.2352295-0.5802002c0-0.2666016,0.1098633-0.501709,0.2665405-0.6585693
		c0.2824097-0.3136597,0.6900635-0.3607788,1.0193481-0.3607788c0.2979736,0,0.97229,0.0471191,1.7563477,0.7527466
		l1.0820312-1.7563477c-1.2231445-0.9093628-2.383606-1.03479-3.1049805-1.03479
		c-0.972168,0-1.8503418,0.2037354-2.5874023,0.9564819c-0.6272583,0.6428223-0.9094849,1.427002-0.9094849,2.352356
		c0,0.5016479,0.0783691,1.2387085,0.6271973,1.8189087c0.4077148,0.4390869,0.972168,0.6585693,1.4584351,0.8311157
		l0.8624878,0.2979736c0.2979126,0.1096802,0.940918,0.3450317,1.2231445,0.5802002
		c0.2195435,0.1882324,0.3606567,0.4076538,0.3606567,0.7527466c0,0.3919678-0.1725464,0.6742554-0.3763428,0.8467407
		c-0.3449707,0.2979736-0.7841187,0.3605957-1.0977783,0.3605957c-0.486084,0-0.9094849-0.1254272-1.3172607-0.3762817
		c-0.2822876-0.1725464-0.7056274-0.5330811-0.972168-0.7998657l-1.2544556,1.7249756
		c0.3919678,0.3922119,1.00354,0.8781738,1.5366821,1.1447144c0.6586304,0.3294067,1.3173218,0.4390869,2.0699463,0.4390869
		c0.6900635,0,2.0386353-0.0939941,2.9638062-1.0662231c0.5488281-0.5644531,0.9252319-1.5054932,0.9252319-2.5874023
		c0-0.6116333-0.1568604-1.3643799-0.7683716-1.9446411C67.1275635,15.574646,66.5631104,15.3395386,66.1083984,15.1669922z"/>
	<polygon points="70.8636475,12.9088745 73.1375122,12.9088745 73.1375122,21.3297119 75.5524292,21.3297119 75.5524292,12.9088745 
		77.8261719,12.9088745 77.8261719,10.8702393 70.8636475,10.8702393 	"/>
	<path d="M83.3814697,10.8702393L79.163147,21.3297119h2.5090332l0.7996826-1.975769h3.9517212l0.7840576,1.975769h2.5090332
		l-4.1241455-10.4594727H83.3814697z M83.1776123,17.50354l1.3014526-3.5127563l1.2858887,3.5127563H83.1776123z"/>
	<polygon points="91.0536499,12.9088745 93.3275146,12.9088745 93.3275146,21.3297119 95.7424316,21.3297119 95.7424316,12.9088745 
		98.0162354,12.9088745 98.0162354,10.8702393 91.0536499,10.8702393 	"/>
	<rect x="101.171875" y="10.8702393" width="2.4150391" height="10.4594727"/>
	<path d="M112.9839478,10.6350708c-2.0856323,0-3.387207,0.8311157-4.0928955,1.5367432
		c-0.9408569,0.9407959-1.6151123,2.4620361-1.6151123,3.9673462c0,1.5366821,0.6272583,2.9482422,1.6308594,3.8890381
		c0.7840576,0.7527466,2.1170654,1.5366821,4.0771484,1.5366821c1.7564087,0,3.0735474-0.5957031,4.0458984-1.5366821
		c1.1289673-1.0976562,1.6307983-2.5246582,1.6307983-3.9204712c0-1.6149902-0.6429443-2.9951172-1.6307983-3.9515991
		C115.9790649,11.1368408,114.6148071,10.6350708,112.9839478,10.6350708z M115.2734375,18.4443359
		c-0.5018311,0.5019531-1.2544556,0.8938599-2.3207397,0.8938599c-0.8155518,0-1.5681763-0.2196655-2.2424927-0.8624268
		c-0.6429443-0.6273804-0.956604-1.3956299-0.956604-2.352356c0-1.1604614,0.470459-1.9286499,0.9251709-2.3677979
		c0.5645142-0.5644531,1.3800049-0.8938599,2.2894897-0.8938599c0.956604,0,1.7876587,0.3919678,2.3051758,0.8938599
		c0.47052,0.4705811,0.9096069,1.2702026,0.9096069,2.3521118
		C116.1830444,17.3153076,115.6812744,18.0523682,115.2734375,18.4443359z"/>
	<polygon points="129.6292114,10.8702393 129.6292114,17.6132812 123.9525146,10.8702393 121.8511963,10.8702393 
		121.8511963,21.3297119 124.2660522,21.3297119 124.2660522,14.5552979 129.942749,21.3297119 132.0441284,21.3297119 
		132.0441284,10.8702393 	"/>
</g>
</svg>
