<?xml version="1.0" encoding="utf-8"?>
<!-- Generator: Adobe Illustrator 19.2.1, SVG Export Plug-In . SVG Version: 6.00 Build 0)  -->
<svg version="1.1" id="Layer_1" xmlns="http://www.w3.org/2000/svg" xmlns:xlink="http://www.w3.org/1999/xlink" x="0px" y="0px"
	 width="24px" height="32px" viewBox="0 0 24 32" style="enable-background:new 0 0 24 32;" xml:space="preserve">
<g>
	<path d="M22.849,10.896c-0.009-0.018-0.017-0.036-0.026-0.054c-0.191-0.4-0.402-0.788-0.635-1.162c0,0,0,0,0,0
		c-0.975-1.569-2.299-2.892-3.868-3.868c0,0,0,0,0,0c-0.289-0.179-0.584-0.348-0.888-0.503c-0.014-0.007-0.028-0.013-0.042-0.02
		C15.767,4.471,13.94,4,12,4C5.373,4,0,9.373,0,16c0,1.585,0.315,3.094,0.873,4.479c0,0,0,0,0,0c1.164,2.888,3.415,5.214,6.25,6.478
		c0,0,0,0,0,0c0.331,0.148,0.671,0.278,1.017,0.396c0,0,0,0,0.001,0C9.353,27.766,10.648,28,12,28c6.627,0,12-5.373,12-12
		C24,14.172,23.579,12.447,22.849,10.896z M21.416,12.664L18.88,15.2l-5.657-5.657l2.727-2.727
		C18.492,7.914,20.483,10.04,21.416,12.664z M9.801,12.965l2.714-2.714l5.657,5.657l-2.714,2.714L9.801,12.965z M14.75,19.329
		l-3.398,3.398L5.695,17.07l3.398-3.398L14.75,19.329z M2,16C2,10.486,6.486,6,12,6c1.014,0,1.992,0.154,2.915,0.436L2.436,18.916
		C2.154,17.992,2,17.014,2,16z M2.816,19.95l2.172-2.172l5.657,5.657l-1.981,1.981C6.04,24.483,3.914,22.492,2.816,19.95z M12,26
		c-0.772,0-1.521-0.096-2.243-0.263l11.98-11.981C21.904,14.479,22,15.228,22,16C22,21.514,17.514,26,12,26z"/>
	<ellipse transform="matrix(0.7071 -0.7071 0.7071 0.7071 -2.3708 15.6674)" cx="17.727" cy="10.695" rx="1" ry="1"/>
	<ellipse transform="matrix(0.7071 -0.7071 0.7071 0.7071 -9.8976 12.5489)" cx="10.2" cy="18.222" rx="1" ry="1"/>
</g>
</svg>
