<?xml version="1.0" encoding="utf-8"?>
<!-- Generator: Adobe Illustrator 19.2.1, SVG Export Plug-In . SVG Version: 6.00 Build 0)  -->
<svg version="1.1" id="Layer_1" xmlns="http://www.w3.org/2000/svg" xmlns:xlink="http://www.w3.org/1999/xlink" x="0px" y="0px"
	 width="27.577px" height="32px" viewBox="0 0 27.577 32" style="enable-background:new 0 0 27.577 32;" xml:space="preserve">
<style type="text/css">
	.st0{fill-rule:evenodd;clip-rule:evenodd;}
</style>
<g>
	<path class="st0" d="M20.506,2.211L0,22.718l7.071,7.071L27.577,9.282L20.506,2.211z M1.768,22.364l3.376-3.376l5.657,5.657
		l-3.376,3.376L1.768,22.364z M5.851,18.281l2.714-2.714l5.657,5.657l-2.714,2.714L5.851,18.281z M9.272,14.859l3.398-3.398
		l5.657,5.657l-3.398,3.398L9.272,14.859z M13.378,10.754l2.714-2.714l5.657,5.657l-2.714,2.714L13.378,10.754z M16.8,7.332
		l3.353-3.353l5.657,5.657l-3.353,3.353L16.8,7.332z"/>
	<ellipse transform="matrix(0.7071 -0.7071 0.7071 0.7071 0.2407 17.5495)" class="st0" cx="21.304" cy="8.484" rx="1" ry="1"/>
	<ellipse transform="matrix(0.7071 -0.7071 0.7071 0.7071 -7.2865 14.4316)" class="st0" cx="13.777" cy="16.011" rx="1" ry="1"/>
	<ellipse transform="matrix(0.7071 -0.7071 0.7071 0.7071 -14.8138 11.3137)" class="st0" cx="6.25" cy="23.539" rx="1" ry="1"/>
</g>
</svg>
