<?xml version="1.0" encoding="utf-8"?>
<!-- Generator: Adobe Illustrator 19.2.1, SVG Export Plug-In . SVG Version: 6.00 Build 0)  -->
<svg version="1.1" id="Layer_1" xmlns="http://www.w3.org/2000/svg" xmlns:xlink="http://www.w3.org/1999/xlink" x="0px" y="0px"
	 width="15.5px" height="32px" viewBox="0 0 15.5 32" style="enable-background:new 0 0 15.5 32;" xml:space="preserve">
<path d="M6.4,19.2C5.9,22,5.2,24.6,3.3,26c-0.6-4.2,0.9-7.3,1.5-10.6C3.7,13.5,5,9.6,7.4,10.5c3,1.2-2.6,7.2,1.1,7.9
	c3.9,0.8,5.5-6.8,3.1-9.2c-3.5-3.5-10.1-0.1-9.3,5c0.2,1.2,1.5,1.6,0.5,3.3C0.6,17.1-0.1,15.3,0,13c0.1-3.8,3.4-6.5,6.8-6.9
	c4.2-0.5,8.1,1.5,8.7,5.5c0.6,4.5-1.9,9.3-6.4,8.9C7.8,20.4,7.3,19.8,6.4,19.2z"/>
</svg>
