<?xml version="1.0" encoding="utf-8"?>
<!-- Generator: Adobe Illustrator 19.2.1, SVG Export Plug-In . SVG Version: 6.00 Build 0)  -->
<svg version="1.1" id="Layer_1" xmlns="http://www.w3.org/2000/svg" xmlns:xlink="http://www.w3.org/1999/xlink" x="0px" y="0px"
	 width="10.123px" height="32px" viewBox="0 0 10.123 32" style="enable-background:new 0 0 10.123 32;" xml:space="preserve">
<style type="text/css">
	.st0{fill-rule:evenodd;clip-rule:evenodd;fill:#231F20;}
</style>
<path class="st0" d="M2.686,21.911C2.686,23.082,3.604,24,4.775,24s2.089-0.918,2.089-2.089c0-1.171-0.918-2.089-2.089-2.089
	S2.686,20.74,2.686,21.911z M6.359,18.743v-1.928c1.308-0.184,2.158-0.849,2.617-1.354c0.62-0.666,1.148-1.653,1.148-2.915
	c0-1.102-0.367-2.273-1.286-3.168C8.057,8.62,6.841,8,5.05,8C2.961,8,1.836,8.803,1.263,9.4C0.62,10.066,0.023,11.168,0,12.568
	h3.535c-0.023-0.459,0.138-1.01,0.39-1.286c0.207-0.207,0.574-0.436,1.171-0.436c0.321,0,0.758,0.069,1.102,0.436
	c0.275,0.298,0.436,0.712,0.436,1.171c0,0.643-0.275,1.217-0.689,1.584c-0.689,0.597-1.928,0.712-2.938,0.482v4.224H6.359z"/>
</svg>
