<?xml version="1.0" encoding="utf-8"?>
<!-- Generator: Adobe Illustrator 21.0.0, SVG Export Plug-In . SVG Version: 6.00 Build 0)  -->
<svg version="1.1" id="Layer_1" xmlns="http://www.w3.org/2000/svg" xmlns:xlink="http://www.w3.org/1999/xlink" x="0px" y="0px"
	 width="19.8px" height="32px" viewBox="0 0 19.8 32" style="enable-background:new 0 0 19.8 32;" xml:space="preserve">
<style type="text/css">
	.st0{fill:none;}
</style>
<g>
	<path id="SVGID_1_" d="M16.2,18.7c-1.2,0-2.2,0.6-2.8,1.4l-6.2-3.2c0.1-0.3,0.1-0.6,0.1-0.9c0-0.4-0.1-0.7-0.2-1l6.2-3.2
		c0.7,0.9,1.7,1.5,2.9,1.5c2,0,3.6-1.6,3.6-3.6c0-2-1.6-3.6-3.6-3.6c-2,0-3.6,1.6-3.6,3.6c0,0.3,0.1,0.6,0.1,0.9l-6.2,3.2
		c-0.7-0.8-1.7-1.4-2.9-1.4C1.6,12.4,0,14,0,16c0,2,1.6,3.6,3.6,3.6c1.2,0,2.2-0.6,2.9-1.5l6.2,3.2c-0.1,0.3-0.2,0.7-0.2,1
		c0,2,1.6,3.6,3.6,3.6c2,0,3.6-1.6,3.6-3.6C19.8,20.3,18.2,18.7,16.2,18.7"/>
</g>
<path class="st0" d="M16.2,18.7c-1.2,0-2.2,0.6-2.8,1.4l-6.2-3.2c0.1-0.3,0.1-0.6,0.1-0.9c0-0.4-0.1-0.7-0.2-1l6.2-3.2
	c0.7,0.9,1.7,1.5,2.9,1.5c2,0,3.6-1.6,3.6-3.6c0-2-1.6-3.6-3.6-3.6c-2,0-3.6,1.6-3.6,3.6c0,0.3,0.1,0.6,0.1,0.9l-6.2,3.2
	c-0.7-0.8-1.7-1.4-2.9-1.4C1.6,12.4,0,14,0,16c0,2,1.6,3.6,3.6,3.6c1.2,0,2.2-0.6,2.9-1.5l6.2,3.2c-0.1,0.3-0.2,0.7-0.2,1
	c0,2,1.6,3.6,3.6,3.6c2,0,3.6-1.6,3.6-3.6C19.8,20.3,18.2,18.7,16.2,18.7"/>
</svg>
