<?xml version="1.0" encoding="utf-8"?>
<!-- Generator: Adobe Illustrator 21.0.0, SVG Export Plug-In . SVG Version: 6.00 Build 0)  -->
<svg version="1.1" id="Layer_1" xmlns="http://www.w3.org/2000/svg" xmlns:xlink="http://www.w3.org/1999/xlink" x="0px" y="0px"
	 width="20px" height="32px" viewBox="0 0 20 32" style="enable-background:new 0 0 20 32;" xml:space="preserve">
<g>
	<path d="M15.9,9.5c-0.2-1.1-1.2-2-2.4-2c-1.2,0-2.2,0.9-2.4,2H0v1h11.1c0.2,1.1,1.2,2,2.4,2c1.2,0,2.2-0.9,2.4-2H20v-1H15.9z
		 M13.5,11.5c-0.8,0-1.5-0.7-1.5-1.5c0-0.8,0.7-1.5,1.5-1.5c0.8,0,1.5,0.7,1.5,1.5C15,10.8,14.3,11.5,13.5,11.5z"/>
	<path d="M13.5,19.5c-1.2,0-2.2,0.9-2.4,2H0v1h11.1c0.2,1.1,1.2,2,2.4,2c1.2,0,2.2-0.9,2.4-2H20v-1h-4.1
		C15.7,20.4,14.7,19.5,13.5,19.5z M13.5,23.5c-0.8,0-1.5-0.7-1.5-1.5c0-0.8,0.7-1.5,1.5-1.5c0.8,0,1.5,0.7,1.5,1.5
		C15,22.8,14.3,23.5,13.5,23.5z"/>
	<path d="M6.5,13.5c-1.2,0-2.2,0.9-2.4,2H0v1h4.1c0.2,1.1,1.2,2,2.4,2c1.2,0,2.2-0.9,2.4-2H20v-1H8.9C8.7,14.4,7.7,13.5,6.5,13.5z
		 M6.5,17.5C5.7,17.5,5,16.8,5,16c0-0.8,0.7-1.5,1.5-1.5C7.3,14.5,8,15.2,8,16C8,16.8,7.3,17.5,6.5,17.5z"/>
</g>
</svg>
