<?xml version="1.0" encoding="utf-8"?>
<!-- Generator: Adobe Illustrator 19.2.1, SVG Export Plug-In . SVG Version: 6.00 Build 0)  -->
<svg version="1.1" id="Layer_1" xmlns="http://www.w3.org/2000/svg" xmlns:xlink="http://www.w3.org/1999/xlink" x="0px" y="0px"
	 width="21.337px" height="32px" viewBox="0 0 21.337 32" style="enable-background:new 0 0 21.337 32;" xml:space="preserve">
<style type="text/css">
	.st0{fill:#030303;}
</style>
<path class="st0" d="M10.882,6.1c0.839,0,3.726,0.225,5.087,3.276c0.448,1.004,0.333,2.824,0.241,4.287
	c-0.016,0.255-0.032,0.509-0.045,0.764l0.062,0.069c0.025,0.028,0.258,0.271,0.776,0.291c0.006,0,0.011,0,0.017,0
	c0.342-0.013,0.728-0.119,1.148-0.316c0.061-0.029,0.144-0.043,0.23-0.043c0.099,0,0.204,0.019,0.291,0.055l0.013,0.005
	c0.22,0.077,0.375,0.222,0.378,0.353c0.001,0.075-0.055,0.342-0.833,0.649c-0.076,0.03-0.176,0.062-0.292,0.099
	c-0.507,0.161-1.272,0.404-1.53,1.011c-0.145,0.343-0.106,0.746,0.118,1.2c0.092,0.215,1.538,3.474,4.794,4.01
	c-0.001,0.015-0.005,0.032-0.013,0.052c-0.055,0.13-0.406,0.579-2.588,0.916c-0.342,0.053-0.425,0.435-0.523,0.88
	c-0.035,0.159-0.071,0.32-0.12,0.486c-0.015,0.05-0.018,0.053-0.072,0.053c-0.007,0-0.016,0-0.025,0l0,0
	c-0.563,0-1.118-0.188-1.689-0.188c-0.302,0-0.614,0.026-0.926,0.078c-0.668,0.111-1.211,0.495-1.786,0.902
	c-0.772,0.546-1.571,1.11-2.789,1.11c-0.057,0-0.114-0.002-0.171-0.005c-0.035,0.003-0.07,0.005-0.105,0.005
	c-1.218,0-2.017-0.564-2.789-1.11c-0.575-0.407-1.119-0.791-1.786-0.902c-0.312-0.052-0.624-0.078-0.926-0.078
	c-0.572,0-1.127,0.205-1.689,0.205c-0.079,0-0.081-0.005-0.097-0.062c-0.049-0.166-0.085-0.331-0.12-0.49
	c-0.097-0.445-0.181-0.83-0.522-0.883c-2.182-0.337-2.533-0.787-2.588-0.916C0.004,21.843,0.001,21.825,0,21.81
	c3.255-0.536,4.702-3.795,4.794-4.01c0.224-0.454,0.263-0.857,0.118-1.2c-0.258-0.607-1.023-0.85-1.53-1.011
	c-0.116-0.037-0.216-0.068-0.293-0.099c-0.658-0.26-0.86-0.522-0.83-0.68c0.035-0.183,0.352-0.369,0.629-0.369
	c0.062,0,0.117,0.01,0.157,0.029c0.449,0.21,0.86,0.317,1.22,0.317c0.566,0,0.818-0.263,0.845-0.293l0.061-0.069
	c-0.014-0.254-0.029-0.509-0.045-0.763C5.034,12.2,4.919,10.381,5.367,9.376c1.356-3.04,4.229-3.274,5.078-3.274
	C10.589,6.104,10.736,6.1,10.882,6.1"/>
</svg>
