<?xml version="1.0" encoding="utf-8"?>
<!-- Generator: Adobe Illustrator 19.2.1, SVG Export Plug-In . SVG Version: 6.00 Build 0)  -->
<svg version="1.1" id="Layer_1" xmlns="http://www.w3.org/2000/svg" xmlns:xlink="http://www.w3.org/1999/xlink" x="0px" y="0px"
	 width="24px" height="32px" viewBox="0 0 24 32" style="enable-background:new 0 0 24 32;" xml:space="preserve">
<g>
	<circle cx="12" cy="16" r="3.6"/>
	<path d="M12,8.8c-3.976,0-7.2,3.224-7.2,7.2c0,3.977,3.224,7.2,7.2,7.2s7.2-3.223,7.2-7.2C19.2,12.024,15.976,8.8,12,8.8z
		 M12,21.62c-3.104,0-5.62-2.516-5.62-5.62c0-3.103,2.516-5.618,5.62-5.618s5.62,2.516,5.62,5.618
		C17.62,19.104,15.104,21.62,12,21.62z"/>
	<path d="M12,4C5.373,4,0,9.373,0,16s5.373,12,12,12s12-5.373,12-12S18.627,4,12,4z M17.812,7.75c0.207,0,0.375,0.168,0.375,0.375
		c0,0.207-0.168,0.375-0.375,0.375c-0.207,0-0.375-0.168-0.375-0.375C17.438,7.918,17.606,7.75,17.812,7.75z M6.188,7.75
		c0.207,0,0.375,0.168,0.375,0.375c0,0.207-0.168,0.375-0.375,0.375S5.812,8.332,5.812,8.125C5.812,7.918,5.981,7.75,6.188,7.75z
		 M6.188,24.25c-0.207,0-0.375-0.168-0.375-0.375c0-0.207,0.168-0.375,0.375-0.375s0.375,0.168,0.375,0.375
		C6.562,24.082,6.394,24.25,6.188,24.25z M17.812,24.25c-0.207,0-0.375-0.168-0.375-0.375c0-0.207,0.168-0.375,0.375-0.375
		c0.207,0,0.375,0.168,0.375,0.375C18.188,24.082,18.02,24.25,17.812,24.25z M12,24.284c-4.575,0-8.284-3.709-8.284-8.284
		S7.425,7.716,12,7.716s8.284,3.709,8.284,8.284S16.575,24.284,12,24.284z"/>
</g>
</svg>
