<?xml version="1.0" encoding="utf-8"?>
<!-- Generator: Adobe Illustrator 19.2.1, SVG Export Plug-In . SVG Version: 6.00 Build 0)  -->
<svg version="1.1" id="Layer_1" xmlns="http://www.w3.org/2000/svg" xmlns:xlink="http://www.w3.org/1999/xlink" x="0px" y="0px"
	 width="19.44px" height="32px" viewBox="0 0 19.44 32" style="enable-background:new 0 0 19.44 32;" xml:space="preserve">
<style type="text/css">
	.st0{fill:#666666;}
</style>
<path class="st0" d="M9.72,11.423l1.22,2.406l0.471,0.93l1.032,0.146l2.616,0.37l-1.856,1.761l-0.779,0.74l0.186,1.058l0.45,2.554
	l-2.429-1.243L9.72,19.679l-0.911,0.466L6.38,21.388l0.45-2.554l0.186-1.058l-0.779-0.74l-1.856-1.761l2.616-0.37l1.032-0.146
	L8.5,13.83L9.72,11.423 M9.72,7l-3.004,5.925L0,13.875l4.86,4.612L3.713,25l6.007-3.075L15.728,25l-1.147-6.512l4.86-4.612
	l-6.716-0.95L9.72,7L9.72,7z"/>
</svg>
