<?xml version="1.0" encoding="utf-8"?>
<!-- Generator: Adobe Illustrator 19.2.1, SVG Export Plug-In . SVG Version: 6.00 Build 0)  -->
<svg version="1.1" id="Layer_1" xmlns="http://www.w3.org/2000/svg" xmlns:xlink="http://www.w3.org/1999/xlink" x="0px" y="0px"
	 width="14px" height="32px" viewBox="0 0 14 32" style="enable-background:new 0 0 14 32;" xml:space="preserve">
<style type="text/css">
	.st0{fill-rule:evenodd;clip-rule:evenodd;}
</style>
<g>
	<polygon class="st0" points="9.745,10.496 7.182,11.008 8.921,5.884 3.547,11.736 6.109,11.223 4.37,16.348 	"/>
	<path class="st0" d="M13.4,18.118c0-0.008-0.181-0.016-0.493-0.022v-9.07c0-1.689-0.492-3.218-1.32-4.406
		c-0.059-0.085-0.124-0.162-0.186-0.243c-0.249-0.324-0.524-0.618-0.822-0.881c-0.175-0.154-0.358-0.298-0.549-0.428
		C9.548,2.735,9.02,2.484,8.457,2.323c-0.46-0.131-0.939-0.208-1.438-0.208c-0.594,0-1.164,0.104-1.701,0.288
		c-1,0.343-1.883,0.976-2.576,1.829C2.05,5.081,1.554,6.145,1.307,7.337C1.195,7.877,1.13,8.44,1.13,9.026v2.312v2.68l0,1.103v1.892
		v0.473v0.612c-0.339,0.007-0.533,0.014-0.533,0.023C0.215,18.536,0,19.105,0,19.884V24.4h1.547v3.985c0,0.276,0.224,0.5,0.5,0.5
		s0.5-0.224,0.5-0.5V24.4h1.5v2.985c0,0.276,0.224,0.5,0.5,0.5s0.5-0.224,0.5-0.5V24.4h1.5v4.985c0,0.276,0.224,0.5,0.5,0.5
		s0.5-0.224,0.5-0.5V24.4h1.5v2.985c0,0.276,0.224,0.5,0.5,0.5s0.5-0.224,0.5-0.5V24.4h1.5v3.985c0,0.276,0.224,0.5,0.5,0.5
		s0.5-0.224,0.5-0.5V24.4H14v-3.965v-0.55C14,19.103,13.784,18.533,13.4,18.118z M2.129,17.486v-0.473v-1.891l0-1.104v-2.68V9.026
		c0-0.486,0.053-0.986,0.156-1.486c0.211-1.021,0.637-1.947,1.23-2.677C4.095,4.151,4.83,3.628,5.641,3.35
		c0.454-0.155,0.917-0.234,1.377-0.234c0.383,0,0.764,0.055,1.164,0.17c0.453,0.129,0.884,0.333,1.282,0.607
		c0.154,0.106,0.306,0.225,0.454,0.354c0.248,0.219,0.481,0.468,0.69,0.74l0.068,0.087c0.031,0.039,0.062,0.077,0.091,0.119
		c0.746,1.071,1.14,2.397,1.14,3.835v9.056c-2.45-0.023-7.3-0.022-9.778,0.002V17.486z"/>
</g>
</svg>
