<?xml version="1.0" encoding="utf-8"?>
<!-- Generator: Adobe Illustrator 19.2.1, SVG Export Plug-In . SVG Version: 6.00 Build 0)  -->
<svg version="1.1" id="Layer_1" xmlns="http://www.w3.org/2000/svg" xmlns:xlink="http://www.w3.org/1999/xlink" x="0px" y="0px"
	 width="20px" height="32px" viewBox="0 0 20 32" style="enable-background:new 0 0 20 32;" xml:space="preserve">
<style type="text/css">
	.st0{fill-rule:evenodd;clip-rule:evenodd;}
</style>
<path class="st0" d="M19.707,9.893c-0.723,0.324-1.506,0.538-2.324,0.638c0.833-0.498,1.476-1.29,1.78-2.237
	c-0.783,0.463-1.646,0.797-2.568,0.981C15.857,8.488,14.805,8,13.643,8c-2.234,0-4.044,1.808-4.044,4.04
	c0,0.319,0.035,0.623,0.105,0.922c-3.361-0.169-6.343-1.778-8.338-4.219c-0.349,0.598-0.549,1.29-0.549,2.032
	c0,1.4,0.713,2.64,1.8,3.362c-0.663-0.02-1.287-0.204-1.83-0.503v0.05c0,1.958,1.396,3.592,3.246,3.96
	c-0.339,0.095-0.698,0.139-1.067,0.139c-0.259,0-0.514-0.025-0.763-0.075c0.514,1.604,2.01,2.775,3.78,2.804
	c-1.386,1.086-3.127,1.729-5.021,1.729c-0.324,0-0.648-0.02-0.962-0.055C1.79,23.333,3.914,24,6.198,24
	c7.44,0,11.509-6.157,11.509-11.497c0-0.174-0.005-0.349-0.01-0.523C18.48,11.417,19.163,10.705,19.707,9.893z"/>
</svg>
