<?xml version="1.0" encoding="utf-8"?>
<!-- Generator: Adobe Illustrator 19.2.1, SVG Export Plug-In . SVG Version: 6.00 Build 0)  -->
<svg version="1.1" id="Layer_1" xmlns="http://www.w3.org/2000/svg" xmlns:xlink="http://www.w3.org/1999/xlink" x="0px" y="0px"
	 viewBox="0 0 256 256" style="enable-background:new 0 0 256 256;" xml:space="preserve">
<style type="text/css">
	.st0{fill:#666666;}
</style>
<path id="Fill-4_1_" class="st0" d="M173.3,105.1c0-24.7-20.3-44.7-45.3-44.7c-25,0-45.3,20-45.3,44.7c0,18.6,11.5,34.5,27.9,41.3
	c-25,5.3-45.6,24.8-45.6,48v34.4c0,0,14.2,19.9,65.5,19.9s60.6-19.9,60.6-19.9v-37.3c0-22.3-20.4-41-44.7-45.5
	C162.2,139,173.3,123.4,173.3,105.1z"/>
<path class="st0" d="M128,256C57.4,256,0,198.6,0,128C0,57.4,57.4,0,128,0c70.6,0,128,57.4,128,128C256,198.6,198.6,256,128,256z
	 M128,11.1C63.6,11.1,11.1,63.6,11.1,128c0,64.4,52.4,116.9,116.9,116.9c64.4,0,116.9-52.4,116.9-116.9
	C244.9,63.6,192.4,11.1,128,11.1z"/>
</svg>
