<?xml version="1.0" encoding="utf-8"?>
<!-- Generator: Adobe Illustrator 19.2.1, SVG Export Plug-In . SVG Version: 6.00 Build 0)  -->
<svg version="1.1" id="Layer_1" xmlns="http://www.w3.org/2000/svg" xmlns:xlink="http://www.w3.org/1999/xlink" x="0px" y="0px"
	 width="24px" height="32px" viewBox="0 0 24 32" style="enable-background:new 0 0 24 32;" xml:space="preserve">
<path d="M24,16c0-6.627-5.373-12-12-12S0,9.372,0,16c0,6.628,5.373,12,12,12c1.278,0,2.508-0.204,3.663-0.574
	c0.587-0.165,1.05-0.36,1.403-0.559C21.158,24.955,24,20.815,24,16z M2,16C2,10.486,6.486,6,12,6s10,4.486,10,10
	c0,3.183-1.5,6.018-3.825,7.85v-1.633c0-2.182-2-4.017-4.376-4.456c1.555-0.683,2.64-2.217,2.64-4.003
	c0-2.42-1.989-4.383-4.444-4.383c-2.454,0-4.443,1.963-4.443,4.383c0,1.823,1.129,3.385,2.735,4.046
	c-2.449,0.519-4.471,2.432-4.471,4.703v1.335C3.496,22.009,2,19.179,2,16z"/>
</svg>
