<?xml version="1.0" encoding="utf-8"?>
<!-- Generator: Adobe Illustrator 19.2.1, SVG Export Plug-In . SVG Version: 6.00 Build 0)  -->
<svg version="1.1" id="Layer_1" xmlns="http://www.w3.org/2000/svg" xmlns:xlink="http://www.w3.org/1999/xlink" x="0px" y="0px"
	 width="24px" height="32px" viewBox="0 0 24 32" style="enable-background:new 0 0 24 32;" xml:space="preserve">
<style type="text/css">
	.st0{enable-background:new    ;}
</style>
<g class="st0">
</g>
<g>
	<path d="M13.146,20.23c1.437-0.71,3.895-3.161,4.871-4.848c0.904-1.562,1.68-4.07,1.304-4.823c-0.607-1.22-2.206-1.001-4.834,0.189
		c-0.329,0.149-0.673,0.312-1.069,0.507c-0.29,0.142-1.226,0.608-1.341,0.665c-1.174,0.579-3.258,3.146-4.29,5.1
		c-0.634,1.201-1.212,2.395-1.6,3.367c-0.25,0.629-0.409,1.134-0.46,1.501c-0.069,0.498,0.067,0.826,0.471,0.8
		C7.687,22.589,10.326,21.62,13.146,20.23z M6.126,22.271c-0.023-0.058-0.028-0.171-0.007-0.329
		c0.046-0.328,0.196-0.807,0.436-1.409c0.38-0.955,0.954-2.138,1.581-3.328c0.998-1.887,3.035-4.396,4.114-4.93
		c0.117-0.057,1.052-0.523,1.341-0.664c0.393-0.193,0.734-0.355,1.059-0.502c2.422-1.097,3.857-1.294,4.316-0.374
		c0.292,0.586-0.456,3.003-1.293,4.448c-0.939,1.623-3.342,4.018-4.704,4.691c-2.775,1.369-5.377,2.323-6.799,2.418
		C6.136,22.294,6.135,22.293,6.126,22.271z"/>
	<path d="M16.735,15.316c0.611-0.919,0.86-1.721,0.604-2.238c-0.547-1.097-2.476-0.879-4.596,0.167
		c-0.825,0.408-2.337,2.09-3.111,3.352c-0.078,0.129-0.163,0.262-0.265,0.419c-1.107,1.702-1.217,1.914-0.976,2.394
		c0.418,0.841,1.552,0.654,3.451-0.207c0.217-0.098,0.444-0.206,0.701-0.331c0.11-0.053,0.221-0.107,0.354-0.173
		c0.081-0.039,0.173-0.085,0.342-0.169C14.245,18.033,16.008,16.41,16.735,15.316z M12.721,18.343
		c-0.132,0.065-0.244,0.12-0.351,0.172c-0.256,0.124-0.48,0.229-0.692,0.327c-1.681,0.763-2.668,0.925-2.933,0.391
		c-0.134-0.269,0.01-0.55,0.954-2.002c0.104-0.16,0.19-0.296,0.271-0.427c0.738-1.204,2.206-2.837,2.949-3.204
		c1.932-0.954,3.665-1.15,4.065-0.346c0.172,0.347-0.04,1.032-0.578,1.842c-0.69,1.038-2.4,2.614-3.342,3.078
		C12.894,18.258,12.803,18.303,12.721,18.343z"/>
	<path d="M15.256,14.578c-0.292-0.71-1.355-0.707-2.52-0.231c-0.462,0.188-1.288,1.053-1.721,1.732
		c-0.041,0.064-0.086,0.131-0.139,0.209c-0.642,0.946-0.696,1.045-0.562,1.37c0.217,0.526,0.851,0.456,1.928,0.04
		c0.119-0.046,0.242-0.095,0.383-0.153c0.084-0.035,0.55-0.233,0.668-0.281C14.342,16.836,15.556,15.307,15.256,14.578z
		 M13.142,16.898c-0.12,0.049-0.588,0.247-0.67,0.281c-0.138,0.057-0.258,0.106-0.372,0.15c-0.847,0.327-1.335,0.381-1.419,0.179
		c-0.049-0.122,0.03-0.269,0.523-0.996c0.055-0.081,0.102-0.151,0.144-0.218c0.394-0.615,1.171-1.429,1.538-1.579
		c0.98-0.399,1.831-0.401,2.003,0.016C15.081,15.198,14.017,16.541,13.142,16.898z"/>
	<path d="M12,4C5.373,4,0,9.373,0,16c0,6.627,5.373,12,12,12s12-5.373,12-12C24,9.373,18.627,4,12,4z M21.525,18.472
		c-2.429,3.869-3.635,5.171-6.294,6.483c-0.358,0.177-1.366,0.566-2.563,1.011C12.447,25.981,12.226,26,12,26
		c-0.842,0-1.656-0.116-2.438-0.313c1.886-0.761,3.917-1.585,4.414-1.831c2.52-1.242,5.475-4.543,7.422-8.05
		c0.194-0.348,0.35-0.71,0.505-1.118C21.961,15.119,22,15.555,22,16c0,0.695-0.072,1.373-0.207,2.028
		C21.704,18.175,21.621,18.32,21.525,18.472z M8.931,25.514c-0.63-0.204-1.231-0.468-1.8-0.787c1.21-0.471,2.761-1.211,5.045-2.357
		c0.097-0.049,0.097-0.049,0.196-0.098c0.477-0.239,0.811-0.406,1.143-0.57c1.901-0.937,5.131-4.253,6.392-6.549
		c0.569-1.035,1.024-2.071,1.321-2.996c0.231,0.553,0.412,1.132,0.541,1.73c-0.237,0.72-0.441,1.229-0.719,1.729
		c-1.911,3.443-4.815,6.685-7.251,7.886C13.272,23.762,10.936,24.705,8.931,25.514z M2.272,18.28
		c0.038-0.096,0.074-0.197,0.114-0.292c1.739-4.133,5.518-9.322,7.801-10.45c1.069-0.527,2.278-0.76,4.897-1.046
		c0.597,0.194,1.171,0.44,1.713,0.737c-0.019,0.003-0.029,0.004-0.049,0.007c-2.732,0.406-3.931,0.667-5.04,1.213
		c-2.225,1.098-5.962,5.669-7.78,9.269c-0.328,0.651-0.637,1.416-1.005,2.451C2.646,19.569,2.427,18.937,2.272,18.28z M14.046,6.212
		c-2.004,0.245-3.058,0.488-4.035,0.97c-2.34,1.155-6.058,6.223-7.875,10.39C2.055,17.059,2,16.536,2,16
		c0-0.672,0.069-1.329,0.196-1.965C4,10.896,6.433,7.832,8.173,6.765C9.353,6.274,10.645,6,12,6C12.701,6,13.385,6.074,14.046,6.212
		z M6.394,7.724c-1.238,1.219-2.584,2.956-3.767,4.824C3.356,10.575,4.68,8.889,6.394,7.724z M3.165,20.672
		c0.01-0.028,0.023-0.067,0.031-0.089c0.41-1.176,0.736-1.994,1.086-2.686c1.783-3.529,5.47-8.038,7.601-9.091
		c1.058-0.522,2.236-0.777,4.923-1.176c0.223-0.034,0.339-0.05,0.445-0.066c0.029-0.004,0.05-0.008,0.076-0.011
		c0.371,0.235,0.73,0.487,1.067,0.767c-0.61,0.095-1.304,0.278-2.201,0.57c-0.356,0.115-0.728,0.243-1.242,0.423
		c-0.152,0.053-0.843,0.295-0.65,0.227c-0.268,0.095-0.468,0.164-0.667,0.233c-0.631,0.218-1.156,0.393-1.669,0.55
		c-1.577,0.488-4.076,3.81-5.631,6.922c-0.681,1.363-1.516,3.355-2.022,4.894c-0.021,0.063-0.037,0.119-0.056,0.18
		C3.841,21.809,3.476,21.257,3.165,20.672z M4.567,22.666c0.041-0.135,0.075-0.26,0.122-0.405c0.499-1.52,1.327-3.493,2-4.84
		c1.504-3.013,3.962-6.278,5.394-6.72c0.517-0.16,1.046-0.334,1.681-0.555c0.199-0.068,0.399-0.139,0.669-0.233
		c-0.193,0.068,0.496-0.174,0.649-0.227c0.512-0.18,0.882-0.305,1.234-0.42c0.886-0.287,1.567-0.467,2.155-0.558
		c0.121-0.019,0.222-0.019,0.327-0.022c0.893,0.83,1.631,1.819,2.174,2.924c-0.271,0.988-0.766,2.176-1.411,3.351
		c-1.225,2.229-4.396,5.485-6.22,6.385c-0.333,0.164-0.668,0.332-1.145,0.571c-0.098,0.049-0.098,0.049-0.196,0.098
		c-2.462,1.235-4.065,1.995-5.298,2.45C5.908,23.967,5.191,23.361,4.567,22.666z M14.648,25.633c0.335-0.134,0.61-0.249,0.759-0.323
		c2.552-1.259,3.814-2.522,5.969-5.865C20.268,22.45,17.763,24.775,14.648,25.633z"/>
</g>
</svg>
